<svg id="ceb19f67-4ffa-4a3c-a196-9435dead6290" data-name="Layer 1" xmlns="http://www.w3.org/2000/svg" width="841.89" height="595.28" viewBox="0 0 841.89 595.28">
  <title>namecopy4-03</title>
  <path d="M324.54,299.06c0,1.61,1.62,2.92,3.63,2.92h60.65l14.3,11.51L417.4,302h56.94c2,0,3.63-1.31,3.63-2.92H415.9l-12.79,10.29-12.8-10.3H324.54" style="fill: none;stroke: #231f20;stroke-miterlimit: 10"/>
  <polyline points="367.28 295.06 370.99 295.06 404.89 238.83 437.58 295.07 441.18 295.07 404.89 228.79 367.28 295.06" style="fill: none;stroke: #231f20;stroke-miterlimit: 10"/>
  <polyline points="361.08 305.98 331.44 358.2 332.93 358.2 364.41 305.98 361.08 305.98" style="fill: none;stroke: #231f20;stroke-miterlimit: 10"/>
  <polyline points="443.93 305.99 474.27 358.2 475.75 358.2 447.16 305.99 443.93 305.99" style="fill: none;stroke: #231f20;stroke-miterlimit: 10"/>
</svg>
