<svg id="0be2b40a-ccfb-41f4-8c2b-fc42dfe4aee4" data-name="Layer 1" xmlns="http://www.w3.org/2000/svg" width="359.22" height="436.3" viewBox="0 0 359.22 436.3">
  <title>Untitled-5</title>
  <g id="83947a37-6961-480a-8308-4d13fb6854f6" data-name="JyW79y.tif">
    <g>
      <path d="M377.08,219.55l5-5h0l-5,5h0Z" transform="translate(-228.29 -155.16)" style="fill: none;stroke: #231f20;stroke-miterlimit: 10"/>
      <path d="M565.47,328.85h0l-3.36-2.43Z" transform="translate(-228.29 -155.16)" style="fill: none;stroke: #231f20;stroke-miterlimit: 10"/>
      <path d="M330.47,390.74c-1.56-3.49-3.67-6.73-5.55-10.08h0C326.79,384,328.9,387.25,330.47,390.74Z" transform="translate(-228.29 -155.16)" style="fill: none;stroke: #231f20;stroke-miterlimit: 10"/>
      <path d="M431.83,386.6c0.7-.9,2.26-1.56,3.33-2.34v0C434.1,385,432.53,385.7,431.83,386.6Z" transform="translate(-228.29 -155.16)" style="fill: none;stroke: #231f20;stroke-miterlimit: 10"/>
      <path d="M350.55,326.85l7.24,2.74h0Z" transform="translate(-228.29 -155.16)" style="fill: none;stroke: #231f20;stroke-miterlimit: 10"/>
      <path d="M435.33,384.5l1.84,4.4c-0.69-1.64-1.26-3-1.83-4.39h0Z" transform="translate(-228.29 -155.16)" style="fill: none;stroke: #231f20;stroke-miterlimit: 10"/>
      <path d="M360.66,321a29.85,29.85,0,0,0,4.5,1.23,28.81,28.81,0,0,1-4.5-1.24h0Z" transform="translate(-228.29 -155.16)" style="fill: none;stroke: #231f20;stroke-miterlimit: 10"/>
      <path d="M466.87,296.24c-0.46-9.86-.92-19.57-1.34-29.23h0Z" transform="translate(-228.29 -155.16)" style="fill: none;stroke: #231f20;stroke-miterlimit: 10"/>
      <path d="M360.77,357.37l-0.5.07-9.18-.85,9.18,0.85Z" transform="translate(-228.29 -155.16)" style="fill: none;stroke: #231f20;stroke-miterlimit: 10"/>
      <path d="M435.17,384.24l1.8-2.74-1.8,2.74h0Z" transform="translate(-228.29 -155.16)" style="fill: none;stroke: #231f20;stroke-miterlimit: 10"/>
      <path d="M474.58,477.59h0Z" transform="translate(-228.29 -155.16)" style="fill: none;stroke: #231f20;stroke-miterlimit: 10"/>
      <path d="M465.5,267l-5.91.35,5.91-.35h0Z" transform="translate(-228.29 -155.16)" style="fill: none;stroke: #231f20;stroke-miterlimit: 10"/>
      <path d="M386,396.59l0.2,0.16-0.2-.16h0Z" transform="translate(-228.29 -155.16)" style="fill: none;stroke: #231f20;stroke-miterlimit: 10"/>
      <path d="M357.44,225.55l-2.38,1.53h0Z" transform="translate(-228.29 -155.16)" style="fill: none;stroke: #231f20;stroke-miterlimit: 10"/>
      <path d="M354.78,227.38a4.24,4.24,0,0,1-.36.32A4.25,4.25,0,0,0,354.78,227.38Z" transform="translate(-228.29 -155.16)" style="fill: none;stroke: #231f20;stroke-miterlimit: 10"/>
      <path d="M431.87,181.35c-1.35-1.83-2.56-3.81-3.9-5.64h0C429.31,177.54,430.53,179.51,431.87,181.35Z" transform="translate(-228.29 -155.16)" style="fill: none;stroke: #231f20;stroke-miterlimit: 10"/>
      <path d="M343.55,328.85h0l-2.26-1.75Z" transform="translate(-228.29 -155.16)" style="fill: none;stroke: #231f20;stroke-miterlimit: 10"/>
      <path d="M377.1,219.59L366,229.16l11.13-9.57h0Z" transform="translate(-228.29 -155.16)" style="fill: none;stroke: #231f20;stroke-miterlimit: 10"/>
      <path d="M278.74,297.05l3.78-6.75h0Z" transform="translate(-228.29 -155.16)" style="fill: none;stroke: #231f20;stroke-miterlimit: 10"/>
      <path d="M456.06,349.41a17.43,17.43,0,0,1-.31,2A17.43,17.43,0,0,0,456.06,349.41Z" transform="translate(-228.29 -155.16)" style="fill: none;stroke: #231f20;stroke-miterlimit: 10"/>
      <path d="M384.56,266.67l-21.38,1.42h0Z" transform="translate(-228.29 -155.16)" style="fill: none;stroke: #231f20;stroke-miterlimit: 10"/>
      <path d="M382.07,214.55h0l4.95-4.92h0Z" transform="translate(-228.29 -155.16)" style="fill: none;stroke: #231f20;stroke-miterlimit: 10"/>
      <path d="M501,233.45c1.43,0.09,3,1,4.48,1.54h0C503.94,234.49,502.39,233.54,501,233.45Z" transform="translate(-228.29 -155.16)" style="fill: none;stroke: #231f20;stroke-miterlimit: 10"/>
      <path d="M515,392l-12.62-2.09h0Z" transform="translate(-228.29 -155.16)" style="fill: none;stroke: #231f20;stroke-miterlimit: 10"/>
      <path d="M360.69,282.74c0.15-4.84.52-9.67,0.83-14.54h0C361.21,273,360.84,277.89,360.69,282.74Z" transform="translate(-228.29 -155.16)" style="fill: none;stroke: #231f20;stroke-miterlimit: 10"/>
      <path d="M500.29,233.47a3.08,3.08,0,0,1,.62,0A3.07,3.07,0,0,0,500.29,233.47Z" transform="translate(-228.29 -155.16)" style="fill: none;stroke: #231f20;stroke-miterlimit: 10"/>
      <path d="M387,209.62c0.59-.33,1.21-0.62,1.81-0.94-0.6.31-1.22,0.61-1.81,0.94h0Z" transform="translate(-228.29 -155.16)" style="fill: none;stroke: #231f20;stroke-miterlimit: 10"/>
      <path d="M493.57,227.14h0c-0.26,2.52.12,4.3,1.21,5.35C493.68,231.42,493.31,229.65,493.57,227.14Z" transform="translate(-228.29 -155.16)" style="fill: none;stroke: #231f20;stroke-miterlimit: 10"/>
      <path d="M351.33,228.46a7.49,7.49,0,0,0,1,0A7.49,7.49,0,0,1,351.33,228.46Z" transform="translate(-228.29 -155.16)" style="fill: none;stroke: #231f20;stroke-miterlimit: 10"/>
      <path d="M453.9,356a13.91,13.91,0,0,0,1.53-3.4,13.91,13.91,0,0,1-1.53,3.4h0Z" transform="translate(-228.29 -155.16)" style="fill: none;stroke: #231f20;stroke-miterlimit: 10"/>
      <path d="M390,391.89l0.79-.14-0.79.14h0Z" transform="translate(-228.29 -155.16)" style="fill: none;stroke: #231f20;stroke-miterlimit: 10"/>
      <path d="M465.65,267c1,0.45,2,1.2,3,1.21a8.2,8.2,0,0,1-3-1.21h0Z" transform="translate(-228.29 -155.16)" style="fill: none;stroke: #231f20;stroke-miterlimit: 10"/>
      <path d="M443.46,183.58c0-1.54,0-3,0-4.41h0v4.41Z" transform="translate(-228.29 -155.16)" style="fill: none;stroke: #231f20;stroke-miterlimit: 10"/>
      <path d="M345.72,223.08L345,220.67Z" transform="translate(-228.29 -155.16)" style="fill: none;stroke: #231f20;stroke-miterlimit: 10"/>
      <path d="M346.07,224.23L346.9,227h0Z" transform="translate(-228.29 -155.16)" style="fill: none;stroke: #231f20;stroke-miterlimit: 10"/>
      <path d="M537.14,356.45c1.76,11-3.94,19-10.37,26.78,0,0,0,0,0,0h0C533.19,375.48,538.9,367.47,537.14,356.45Z" transform="translate(-228.29 -155.16)" style="fill: none;stroke: #231f20;stroke-miterlimit: 10"/>
      <path d="M465.68,267h0Z" transform="translate(-228.29 -155.16)" style="fill: none;stroke: #231f20;stroke-miterlimit: 10"/>
      <path d="M363.22,356.94c-0.38,0-.78.11-1.18,0.19C362.44,357,362.84,357,363.22,356.94Z" transform="translate(-228.29 -155.16)" style="fill: none;stroke: #231f20;stroke-miterlimit: 10"/>
      <path d="M362,357.13l-1.09.21Z" transform="translate(-228.29 -155.16)" style="fill: none;stroke: #231f20;stroke-miterlimit: 10"/>
      <polygon points="281.28 203.91 281.28 203.91 281.28 203.91 281.28 203.91" style="fill: none;stroke: #231f20;stroke-miterlimit: 10"/>
      <path d="M554,413.76a1.43,1.43,0,0,1,0,.14A1.43,1.43,0,0,0,554,413.76Z" transform="translate(-228.29 -155.16)" style="fill: none;stroke: #231f20;stroke-miterlimit: 10"/>
      <path d="M552.33,409.29L552,413.72l0.31-4.43h0Z" transform="translate(-228.29 -155.16)" style="fill: none;stroke: #231f20;stroke-miterlimit: 10"/>
      <path d="M553.66,414.43a2.78,2.78,0,0,1-.66.52A2.78,2.78,0,0,0,553.66,414.43Z" transform="translate(-228.29 -155.16)" style="fill: none;stroke: #231f20;stroke-miterlimit: 10"/>
      <path d="M457.7,354.79a2.3,2.3,0,0,1-.44.58A2.3,2.3,0,0,0,457.7,354.79Z" transform="translate(-228.29 -155.16)" style="fill: none;stroke: #231f20;stroke-miterlimit: 10"/>
      <polygon points="215.17 24 215.17 24 215.17 24 215.17 24" style="fill: none;stroke: #231f20;stroke-miterlimit: 10"/>
      <path d="M343.55,355.83q0-4.5,0-9,0-9,0-18v27Z" transform="translate(-228.29 -155.16)" style="fill: none;stroke: #231f20;stroke-miterlimit: 10"/>
      <path d="M435.2,384.23h0l-0.09.11Z" transform="translate(-228.29 -155.16)" style="fill: none;stroke: #231f20;stroke-miterlimit: 10"/>
      <polygon points="337.18 173.69 337.18 173.69 337.17 173.7 337.18 173.69" style="fill: none;stroke: #231f20;stroke-miterlimit: 10"/>
      <path d="M363.19,268.09h-1.66v0h1.38Z" transform="translate(-228.29 -155.16)" style="fill: none;stroke: #231f20;stroke-miterlimit: 10"/>
      <polygon points="207.03 229.35 207.04 229.35 207.04 229.35 207.03 229.35 207.03 229.35" style="fill: none;stroke: #231f20;stroke-miterlimit: 10"/>
      <path d="M435.1,384.36h0l0.23,0.14h0Z" transform="translate(-228.29 -155.16)" style="fill: none;stroke: #231f20;stroke-miterlimit: 10"/>
      <path d="M505.45,235h0l0,0h0Z" transform="translate(-228.29 -155.16)" style="fill: none;stroke: #231f20;stroke-miterlimit: 10"/>
      <polygon points="115.27 173.7 115.27 173.7 115.26 173.71 115.27 173.7" style="fill: none;stroke: #231f20;stroke-miterlimit: 10"/>
      <path d="M343.56,328.86h0q0,1,0,1.93Q343.56,329.82,343.56,328.86Z" transform="translate(-228.29 -155.16)" style="fill: none;stroke: #231f20;stroke-miterlimit: 10"/>
      <path d="M228.29,591.45,569.54,408.13c-0.06-10.89-.15-10.89,10.79-9.6A14.88,14.88,0,0,1,582,399l1.62,57H569.56C569.56,440,569.63,424.06,569.54,408.13Zm9.73-14.1,3.68,1.38-0.15.78H569l-0.16-.82,3-1.29-4-3.07,7.82-.71,0.13-.58L569,388.44V358.93h11.13C582.21,365.76,581.67,392,579.27,394Zm-11-38.71V330.58h11.3v24.73h-11.3Zm3.39-62.9c0.66,0,1.38-.95,2.41-1.7,5.69,5,2.65,13.05,5,20.66l-10.92-.48c0-5,.39-9.58-0.13-14C567.72,293.58,568.2,292.17,571.7,292.41Zm8.09,36.64-7.4-3-3.21,2.19-2.14-4.3C575.75,321.72,578.87,322.77,579.79,329.06Zm-14.32-.21h0v0.1l1.45,26.15-1.45,0V328.85h0l-3.36-2.43-1.31-.95-2.42,2.92L556,325l-2.9,3.63L550.49,325l-2.91,3.57c-1.6-3.6-3.32-4.68-5,.14L540,325.07l-2.9,3.54c-1.6-2.06-3.39-6-5.13.52-1.77-3.52-3.45-5.36-5.44-.37-1.7-3.2-3.54-5-5.37.42-1.61-3-3.35-5.86-5.35-.62l-2.58-3.14c-4.69,4.39-9.6,4.26-12.3.18l-4,2.77-2.79-5c9.39,0,17.32,0,25.25,0,13.61,0.1,27.23.18,40.84,0.48,2.91,0.06,7-.26,5.25,5.05h0Zm1.36,32.89V388.1l-0.81,0V361.71Zm-4-9.41a3.78,3.78,0,0,1-.54,1.13h-7.67V334.71c6.93-2.07,8-1.37,8.13,5.68C562.78,344.37,562.79,348.35,562.79,352.32Zm-11.07-17.94v19.16h-7.91V334.38h7.91ZM515,392l-3,5.37h-4.77c4.26,1.77,3.8,5.18,3.78,8.63-0.1,14.63,0,29.26,0,44l5.37,1.2-0.57,5.65H496.3V396.08c-13.72,6.79-26.45,1.46-39.23,1.67-0.27-3.71-.3-7.64-0.88-11.48-2.4-15.83-11.54-26.07-26.46-31.39a6.93,6.93,0,0,0-1.91-.55c-6.61-.3-19.77,10.7-21.09,18,6.7-.69,9-10.16,16.57-8.33L419.51,370c10.21-3.69,14.06,4.15,19.47,8.47l-2,3.06-1.8,2.74,0.05,0,0,0h0l0.12,0.29,0.81,0.51,1.12,0.7,2.75,1.71-0.41,5.45-4.68-1.62,2.23-2.36-1.84-4.4-0.23-.14h0l0.06-.1c-1.06.78-2.63,1.44-3.33,2.34a1.73,1.73,0,0,0-.32.58c-1,3.39-.66,3.43-4.06,2.74a25.58,25.58,0,0,0-3.52-.2l0.66,4.1-5.32-3.62-0.87,1.53-4.86-.73c-0.76,4.14-.76,4.25,3.85,4.28,8.09,0,16.18-.12,24.27,0,1.5,0,3,.84,4.48,1.29L445.9,399c-5.33,0-10.66.11-16,0q-21.15-.5-42.3-1.2a3,3,0,0,1-1.4-1l-0.2-.16a8.37,8.37,0,0,1-2.33,1.85,8.25,8.25,0,0,1-.83.39,9.6,9.6,0,0,1-1.73.5c-2.95.57-6.15,0-9.06,0.29-4,.43-8.21-1.48-12.37-1.88-3.6-.35-7.29.22-10.9-0.06-4.87-.39-9.71-1.21-14.74-1.87,1-5.07,2-9.71,2.7-14.4,0.09-.6-1.41-2.12-1.81-2-1,.3-1.78,1.3-2.67,2v-19l8.31-.37v24.68l-5.1,2.72c4.18,0.5,7.38.91,6.86,6a3.43,3.43,0,0,0,1.75-5.68c-0.56-.66-1.73-1.24-1.74-1.86-0.12-8.39-.08-16.79-0.08-25.18h1.32v24.54h0.94V359l6.54-2.4-6.23-1.06c0-6.76,0-13.35,0-19.94,0-3.9,1.22-6.26,5.92-5.44,2.24,0.39,4.66-.29,7-0.55l-7.24-2.74c-0.89.42-2.15,1.4-3.47,1.49-0.55,0-1.95-2.15-1.68-2.74a4.11,4.11,0,0,1,3-2.13c7.25,0,14.5.21,21.74,0.51,0.64,0,1.24,1.07,1.86,1.64l3.13-.3c2.48-.25,5-0.56,7.44-0.84s5-.5,7.44-0.58c7.61-.23,15.24-0.06,22.85,0,2.57,0,5.86-1.29,6,2.63,9.37-4.08,19-2.23,29-2.65l-0.29,5.52-3.27-4.21-2.47,3.61-2.54-3.64c-4.15,4.61-.25,7.31,1.55,10.19l3.86-1.21c3.7,3.55-4.15,8.83,3.07,11.5V334.67h8.05a32.69,32.69,0,0,0,0,6.79c0.1,1.35.22,2.7,0.28,4,0,0.45,0,.89,0,1.34a24.4,24.4,0,0,1-.1,2.57,17.43,17.43,0,0,1-.31,2q-0.13.61-.31,1.21a13.91,13.91,0,0,1-1.53,3.4c1.56,0.19,2.66,0,3.35-.65a2.3,2.3,0,0,0,.44-0.58,4.13,4.13,0,0,0,.43-1.72,9.42,9.42,0,0,0,0-1.16c-0.3-5-.1-9.94-0.13-14.9,0-7.33,1.92-8.85,8.95-6.85a10.57,10.57,0,0,1,2.12,1c-0.7,1.43-1.88,2.75-1.92,4.1-0.19,6.76-.09,13.53-0.09,20.13l-13,1.6c5.08,5.28,5.08,5.28,5.45,12.66-1.57-1.53-2.71-2.28-3.36-3.32q-11.78-19-23.42-38.06c-1.61-2.63-6.13-2.87-10,.42,9.24-1.28,10.37,6.1,13.57,11,5.72,8.77,10.3,18.4,16.8,26.51,6.86,8.56,8,17.44,6,27.47a2.42,2.42,0,0,0,.43,1.35,3,3,0,0,0,.7.68l3.27-6.08L460.8,377l6.54-5.92v19.64c5.76-.28,11.88-0.8,18-0.75,2.5,0,5,1.24,7.47,2a7.74,7.74,0,0,1,1.92,1.4l-2.23,1.3,0.07,0.71,10.26-1.34-6.51-.65V357.67l13.25,1.4h0a1.1,1.1,0,0,0,0-.14H532.1v0.14H509.58v30.31l-0.72.05-6.52.47Zm-1.31,34.93,0.8,0v21.19l-0.8,0V426.91Zm-0.48-3.39V402.27l0.85-.06v21.16Zm-31,3.31h9.3V448.3h-9.3V426.84ZM481.89,424V402.38h9.43V424h-9.43Zm-11.52,2.88h9.32v21.56h-9.32V426.86Zm-0.11-2.78V402.32h9.06v21.77h-9.06Zm-21.67,13.13c-0.34-.71,0-1.81.21-2.7,0.09-.44.75-0.9,0.66-1.22-1.62-5.68.21-11.4-.28-17.09-0.2-2.37,0-4.77,0-7.15l1.57-.22,2.71,8.21v15l-1.06,19.18-1.61.1-3-4.36C450.16,443.91,450.28,440.69,448.59,437.21ZM374.32,427h10.54v21.61a4.55,4.55,0,0,1-.91.51c-9.68.92-9.68,0.92-9.64-8.58C374.33,436.09,374.32,431.64,374.32,427Zm0.43-2.73V402.74h10.37v21.52H374.74Zm-12.75.11V402.62h10.29v21.75H362Zm10.13,22.69c0,0.79-1.56,2.06-2.51,2.18a65.37,65.37,0,0,1-7.93.1V427.06h10.56C372.24,433.87,372.33,440.47,372.12,447.05Zm-33.34-22.92V402.88l1.14,0.13v21.14Zm0.73,3.2v21.72l-1,0V427.36Zm80.84-128.27-0.05.76H396.9v11.51h-9.28V300.2h-27.1V311H346V299.08h74.33Zm-57.69-5v-23.2h9.94v23.2h-9.94ZM388,264.28c-0.43-9.36-.84-18.54-1.32-27.72a5.39,5.39,0,0,0-1.39-.27l0.18-.4H397v28.39H388Zm8.59,32.13H387.5c0-8.88-.13-17.61.06-26.32,0.08-3.64,3.2-2.35,5.32-2.67,2.65-.4,3.72.82,3.73,3.26C396.64,279.1,396.63,287.52,396.63,296.4ZM385.44,239.9v22.56h-9.87V239.9h9.87Zm-10,54.36V270.82h10v23.44h-10Zm24.71-54.54c2.36-2.11,8.1-.46,11.94-0.46l-13.49,12.94c0.16,0.17-.23-0.06-0.21-0.25C398.77,247.71,397.76,241.83,400.12,239.72Zm16.43,0.89c-3.6,4-8.15,9-12.49,14.13-0.86,1-1,2.68-1.32,4.08-0.07.32,0.49,0.78,1.27,1.91,4.07-7.32,9.5-12.85,17.74-13.84,5.53-.67,11.34-1,16.29,2.72l8.94,9.88c5.35,10,1.88,18.38-4.6,26.48,4.26-.82,6.56-4.14,8.14-7.58a32.7,32.7,0,0,0,3.16-11.31c0.24-4-1-8-1.59-12.37,5.21,4.76,4.78,19.89-.88,27.6-7.37,10.05-21.67,14.7-33.33,10.46-13.26-4.82-20.61-15.55-19.86-29C398.62,252.82,407.42,242.55,416.55,240.61Zm24.79-1.28h13.29v12.52Zm13.6,41.11V294.2H441.2c2.64-2.15,5.25-3.95,7.45-6.15S452.67,283.23,454.94,280.44Zm-43.33,13.84H399V281.23Zm4.22,8.16V310h-7v-7.58h7Zm-9.8-.17v7.41c-7.45,1.07-7.45,1.07-7.37-7.06Zm-20.67.37v7.46H375.31v-7.46h10.06Zm-12.73,0v7c-9.71,2.19-10.59,1.65-10.22-7h10.22Zm-12,12.08c0.06-.05.07-0.06,0,0h0L359.07,316h62.65l-3-1.58,4.36-4c0,1.65-.15,4.27.08,6.86,0.08,0.88,1.13,1.67,1.74,2.5,0.5-1,1.44-2.06,1.41-3.06-0.07-2.25-.74-4.48-0.91-6.73,0-.48,1-1,1.56-1.56,0.78,0.83,2.2,1.64,2.22,2.49a87.39,87.39,0,0,1-.67,9c3.09-1.88,3.09-1.88,2.58-14.93l-5.88-1.12v-6l2.27,3,2-2.71h25.85v1.71h-22.5a7.19,7.19,0,0,0-.81,1.61c-0.71,15.11-.71,15.05,14.37,15,14-.06,28,0,42,0,1.6,0,3.21.16,4.81,0.24l0.08,1.39-10.15.86-0.17.91,7.13,0.89,0,1.09c-8.09,0-16.18,0-24.27,0-7,0-13.92-.29-20.88-0.3q-32.53-.07-65.06,0c-4.64,0-9.28.63-13.93,0.66a6,6,0,0,1-.67,0,29.85,29.85,0,0,1-4.5-1.23l0,0.07h-14.8l-0.07-1,10.82-.57v-0.83l-10.85-.8,0-1.24Zm95-4.81h-7.69l-0.38-7.32H455Zm-17.49.21v-7.7h6.65C446.58,309.71,446.58,309.71,438.15,310.09ZM487.76,267v1.27c-6.37,0-12.75.06-19.12-.06-1,0-2-.76-3-1.21h-0.12c0.42,9.66.87,19.37,1.34,29.23h-9.35V267.49l2.07-.12,5.91-.35v-0.11l0,0.05h0l0,0,0.16,0.08h22.08Zm-19.53-4.53V239.89h8.63v22.59h-8.63Zm23.84,1.75h-0.73V237.58h0.73v26.65ZM492.5,269v26.69l-0.59,0V269.09Zm1.3,35.79c0,2.09,0,4.19,0,6.29l-1.59.05V300H467.08v12.1l-9.06-.42a10.72,10.72,0,0,1-.37-1.67c-0.49-14.21-1.05-10.79,11.11-11.17,6.31-.2,12.65.3,18.94-0.1C492.53,298.43,493.87,300.67,493.8,304.81Zm-3.29,54.83H467.68v8.86l-6.51.42V358l4.14-.54,4.09-.53,10.66-1a40.84,40.84,0,0,1,6.94.2c1.46,0.28,2.74,1.54,4.09,2.37Zm0.16,2.47v25.12h-9.23V362.11h9.23Zm-11.9,0v25h-9.28v-25h9.28Zm-0.05-8.29h-9.37V334.59c1.34-.1,2.49-0.1,3.61-0.29,4.21-.72,6.15.7,5.83,5.27S478.72,348.79,478.72,353.84Zm2.28-.06v-19h9.2v19H481Zm8.61-28.55-2.87,3c-2.71-3.75-6.61-3.7-9.12.14-1.61-2.42-3.28-5-4.81.35L470.37,325c-3,5.8-7.93,3.56-12.19,3.6-0.89,0-1.79-2-2.69-3.1l0.88-1.65c11.38,0,22.77-.15,34.15.11,2.64,0.06,4.32,1.93,1.93,5.46Zm3.24,7.08,0.66,0V355l-0.66.12V332.31Zm0.59,30,0.55,0v26.39l-0.55,0V362.29Zm-3.81-59.49v7.32h-9.12V302.8h9.12Zm-11.93-.3v7.2c-9.21,1.72-9.86,1.23-8.87-7.2h8.87Zm-9.23-8.2V271h9V294.3h-9Zm20.66,0h-8.78V271h8.78v23.3Zm-0.52-31.81h-9V239.89h9v22.55Zm-22.68-21.58c-0.13,7.76-.06,15.53-0.06,23.52H457c0-8.52,0-16.62,0-24.73,0-1,.2-1.94.34-3.23l9.88-.52C466.75,237.61,466,239.23,465.93,240.87Zm46.22,115.06h13.4l-0.41.33h0a3.47,3.47,0,0,0-.9-0.25c-3.33,0-6.66-.1-10,0.08a7.05,7.05,0,0,1-2.11-.16H495.35c0-8,0-15.42,0-22.84,0-.77.37-2.17,0.71-2.22,3.38-.46,6.88-1.26,10.14-0.72,1.41,0.23,3.15,3.29,3.33,5.2a135.29,135.29,0,0,1,.31,16.44C509.8,354.25,510.51,355.5,512.15,355.92Zm-0.28-2.36V334.32h7.72v19.24h-7.72Zm10.51,0V334.95c7.18-2.33,8.14-1.71,8.3,5.83,0.08,4.12,0,8.24,0,12.8h-8.31Zm-27-33.59h12.55l0,0.95H495.44Zm48.6,2.29c-10.55-.34-21.12-0.09-31.68-0.09l0-1.67H556.1l0-1.93c-20.24-.25-40.51.22-60.74-0.36l0.06-1.83h70A34.38,34.38,0,0,1,544,322.27ZM513.91,313l21.87-27.14L559,313H513.91Zm21.31-30.32c-8.16,10.61-16.58,21-24.91,31.5l-1.65-1.36,1.28-1.65H494.88c0.41-4.26-.54-9.36,1.58-11.71,1.68-1.87,8.21-1.79,10.55,0s1.94,6.83,3,11.62l26.47-34C536.1,278.87,536.3,281.26,535.22,282.66Zm-27,13.42-13.72-.71c0-8.6-.08-17.3.13-26,0-.87,1.79-2.25,2.9-2.42a20.54,20.54,0,0,1,7.4.07c1.28,0.29,3.11,2.09,3.15,3.26C508.3,278.86,508.18,287.46,508.18,296.08ZM494.44,195.32c-0.54-4.21,2.91-6.09,3.9-10.07l2,6.65,1.55-4,1,0.33-2,6,1.25-.21L504,210.78c-2.92,0-5.41.34-7.73-.14-1.16-.24-2.86-2-2.84-3C493.54,203.49,494.95,199.3,494.44,195.32ZM506.49,218c0.29,4.63.7,9.33,0.78,14,0,0.92-1.25,1.86-1.9,2.81l0.16,0.13h-0.07c0.78,1.3,2.1,2.6,2.13,3.92,0.21,8.42.1,16.84,0.1,25.47l-13.36-.65V235h11.11l0,0c-1.49-.5-3-1.45-4.48-1.54h0a3.08,3.08,0,0,0-.62,0l-0.94.11c-2.12.18-3.62-.18-4.58-1.1s-1.47-2.83-1.21-5.35h0.1l-2.11-9.1h14.94ZM480.36,214c2.28,2.25,3.76,4.64,5.88,5.61,4.52,2.07-.69,3.76-0.41,5.38l0,0.16a0.76,0.76,0,0,1,0-.16l-1.74-6.12-3.73,4.68V214Zm-19.58-16.38c1.38,0.5,3,.73,4.12,1.54,6.84,4.77,8.1,8,5.42,13.34l-1.9-7.95-1.3.08-2.44,3.87c-1.3-3.77,1.94-9.05-5.13-9.21Zm-111.94,5c0.3-3,1.65-5.95,2.51-8.92l-2.28-3,4.28-3.33,2.52,4.23,2.67-5.66,0.64,5.84-4.33,1.82c5.51,4.4,4,10.48,4.05,16.49a22.66,22.66,0,0,1-2.39.45C348.44,211.15,348,210.86,348.83,202.59Zm9.87,15.47,0.16,0.58-5.29.89a26.61,26.61,0,0,1,5.37.19c2.82,0.66,3.55,0,4.8-3.57a11.92,11.92,0,0,1,3.28-4.21c15.88-15.1,31.85-30.11,47.67-45.27,2.32-2.22,6-4.22,3.95-8.7-0.18-.4,1-2,1.64-2.08a46.26,46.26,0,0,1,10.39.11c0.9,0.15,1.34,3.1,2,4.76l-1.14.55-5.37-4.57-2.13,3.4,5.11,5.42,14.32,13.59h0c3.32,3.19,6.46,6.58,10,9.49,3.29,2.71,4,5.34,1.12,8.72l-2.07-7.73-1.38.12-2,4.22-1.54-9.23-1.33,0-2.76,3.8v-9.44h0l-3.67,2.32-1,.66-2.25-6.56-3.07,1.79-1.59-7.08h-1.56l-2.23,5,0,0.36-0.11,0c1.34,1.84,2.55,3.81,3.9,5.64a24.62,24.62,0,0,0,2.68,3.14c8.88,8.61,18,17,27.12,25.34,6.72,6.09,13.61,12,20.62,17.76,1.22,1,3.44.69,5.06,1.34a50.46,50.46,0,0,1,5.28,2.82l-0.56,2.11H475.88l0,1.38,2.68,1.2-1,1.07-3.36-3.73c-6.54-.33-12.51-0.78-18.48-0.86-2.86,0-5.72.74-8.6,0.95-2.26.16-4.54,0-6.8,0-5.42.05-10.85,0.33-16.27,0.15-4.59-.15-9.17-1.13-13.75-1.18-4.95-.05-9.9.78-14.85,0.81-4.78,0-9.55-.53-14.34-0.69a10.68,10.68,0,0,0-3,.83l0.84,2.62H368.71V236.1l9.15-.44c-1.64-1.45-2.47-2.85-3.33-2.86-10.12-.15-20.25-0.1-30.17-0.1L345,231.5l2-3.82-0.1,0c0-.22,0-0.43,0-0.65l-0.84-2.77-0.35-1.15L345,220.67l-0.79-2.61h14.51Zm14,21.51V262.2h-9.59V239.57h9.59Zm-28.75-2.79,2.59,3.15c-0.46-5.56,3.48-4.54,6.31-4.64a69.65,69.65,0,0,1,8.39.59v28.28H343.9V236.78Zm-0.23,32.13h1.14v23.48H346c0-7.13.12-14.26-.05-21.39-0.09-3.57,1.71-4.87,4.8-4.55,3.57,0.37,7.1,1.16,10.64,1.77l0.07-.08h0l0,0h0v0h1.66l21.38-1.42,0.05,1.42q-10.84,0-21.7,0l-1.39.09c-0.32,4.87-.69,9.7-0.83,14.54-0.14,4.46,0,8.93,0,13.32h-17V268.91Zm-28.1,10.54c0.37,1.14,1.21,2.52.89,2.9-8.54,9.9-17.19,19.69-25.85,29.49a3.86,3.86,0,0,1-1.3.62l-0.94-.71ZM338.15,313H292.71l23.18-27Zm-63.89-18.21c1.54-3.48-.17-8.74,4.68-10.78,0.33-.14.28-1.21,0.56-2.62l3,8.92,2.91-6.38-2.78-7.34c5.18,2.85,4.73,7.35,3.82,11.68a2.29,2.29,0,0,1-1.53,1.11c-0.79.31-1.73,0.59-2.42,0.92l-3.78,6.75,0.71,0.81,5.68-5.64c0,5.47-.21,9.75.06,14,0.25,3.89-1.41,5-5,4.65a61.82,61.82,0,0,0-6.4,0C273.8,305,272.32,299.15,274.26,294.78Zm3.36,20.93c2.22-.14,5.37,2,5.68-3.74l2,4.81H342.9l0.05,1.52H325.2l-0.11,1.92,13.34,0.63-0.11.85H317.93l4.8-1.71-0.08-1.29h-50l-0.25-2.41C274.14,316.1,275.88,315.82,277.63,315.72Zm35.23,6.14H290.58l-0.11-.93h22.38v0.93Zm-41,10,10-1.93-4.19-3.9c-0.42.76-.73,2-1.23,2.08a6.54,6.54,0,0,1-3.73-.41c-0.51-.25-0.82-2-0.46-2.68a3.55,3.55,0,0,1,2.57-1.67c5.08,0,10.16.35,15.24,0.36,15.45,0,30.9-.05,46.36-0.06,6,0,7.76,1.29,7.13,5.15h0q0,1,0,1.93,0,12.52,0,25,0-4.49,0-9,0,4.5,0,9v-27h0l-2.26-1.75-2-1.53-2.59,3.24-2.29-3.32-1.47.1-0.8,6.54h-8.44l0-.43h8l-2.57-6.95L326,329l-2.37-3.78-3.1,3.41c-1.65-4-3.38-3.89-5.09.32l-2.78-3.67-2.86,3.61-2.75-4-2.54,3.9-2.69-3.66-2.8,3.91-2.39-3.71c-2.39,2.36-4.35,4.28-.59,6.82h-3.27l-0.48-6.66c-3.95.61-3.41,7.4-6.7,4.43a92.18,92.18,0,0,1,1.48,9.92c0.27,5.31.07,10.64,0.07,16.06H271.85v-24Zm68.79,2.86v19.4h-8v-19.4h8Zm-10.82.09v19.28h-8.25V334.86h8.25Zm-21.49.1v19.27h-8.15V335h8.15Zm-10.8-.08v19.28h-8V334.87h8ZM271,358.53h39l0,1.26H286.5v29.72H271v-31Zm20.58,22.71-1.27,6.27c-2.38-1.85-2.75-11.11-1-24.89H297c0,7.73.18,15.48-.17,23.2-0.06,1.35-2.38,2.59-4.62,4.86l0.46-9.22Zm-21,12.63,0-2.09,18.9-1.21c0.14,1,1.07,3,.44,4.08a6,6,0,0,1-4.33,2.44c-5.09.3-10.2,0.11-15.3,0.11l-0.09-1.57,8.1-.57v-0.61ZM288,427.37l1.16,0v21.3H288V427.37Zm12.48,48.46H266.6V475h33.88ZM328.57,466l-2,0a39,39,0,0,1-.5-4.44c0-9,.05-18,0-27,0-6.23-1.07-7.27-7.22-7.29-3,0-6,0-9,0-5.31,0-6.79,1.38-6.86,6.72-0.15,11.16-.31,22.33-0.21,33.49,0,4.18-.62,6.07-5.7,5.75-9.9-.6-19.86-0.18-29.8-0.18l-0.18-1.21a20.24,20.24,0,0,1,3.66-.65c8.49,0,17,0,25.48.26,3.48,0.1,5.08-.9,3.91-5.31h-32l-0.65-1.41c1.54-.76,3-2.1,4.62-2.18,5.81-.26,11.65-0.1,17.88-0.1l0.85-4.81H270V398.92l15.44,0.9c0,16.46.11,32-.08,47.44,0,3.69,1.28,4.74,5.2,4.12V417.17l-0.85-.19-0.7,7.09h-0.59V403l1.1-.1,0.53,11.94h1l0.68-14c6.76-6.14,9.11-13.2,12.65-19.51l-1.14-.78-3.6,4.46V362.45h8.46v9.82l1.86,0.58c0.41-1.09,1.44-2.4,1.14-3.22-1.26-3.4-.82-3,1.48-6.64,1.28-2,.42-5.6.08-8.43-0.17-1.4-1.87-2.65-1.94-4-0.24-5.12-.1-10.26-0.1-15.68h8.42c0,6,.23,11.77-0.13,17.55-0.12,1.9-1.76,3.71-3.16,6.46h25.25q0,0.54,0,1.08H316.23c1.16,2.35,2.47,4,2.65,5.69s-0.86,3.32-1.7,6.1l7.76,8.93,0.1,0.08c-2.46-5.64-5.7-11.12-3.25-18.15h7.86v22L325,380.77l0,0.06-0.16-.17c1.88,3.35,4,6.59,5.55,10.08,0.88,2,.86,4.34,1.24,6.53l-1.35.46,3.42,5.14,0.54-4.43a4.12,4.12,0,0,1,1.11.18,78.2,78.2,0,0,1,0,21.56l-1.55.16c-0.4-2.27-1-4.53-1.17-6.82-0.78-9.77-5-17.38-13.48-22.59-3.15-1.93-6.1-2.51-9.15-.16-3.24,2.49-6.4,5.1-9.6,7.66l1,1.29c3-2.13,5.83-5.31,9.16-6,2.37-.52,5.46,2.27,8,3.44L309.23,400l0.21,1.91c4.15-2.58,7.84-2.86,10.46,1.48,1.91,3.17,3.7,6.42,6,10.46l-1.19-10.09c2.08,2.34,3.7,3.53,4.42,5.12,0.84,1.86.9,4.07,1.3,6.13a30.58,30.58,0,0,1-5.06.9c-7.59.1-15.19,0-22.78,0v1.78h24.72l0,1.4h-24v1.57h24.38v1.52H301.44v1.23h29C330.89,438.05,330.65,452.05,328.57,466Zm36.49,10,0-.66h19.39l0,0.66H365.06Zm191.42-70.73c-2.06-7.23-6.77-11.51-12.43-14.82-5.4-3.16-8.4-2.41-13.06,3.06l5.27-1.12-2,4.3c4.58-.74,9.45,2.35,11.95,7.58,1.26,1.17,3,2.12,3.67,3.56,0.88,1.77.94,4,2.15,5.94l0.31-4.43h0c1.27,2.28,1.87,3.58,1.67,4.48a1.43,1.43,0,0,1,0,.14,1.47,1.47,0,0,1-.3.52,2.78,2.78,0,0,1-.66.52,14,14,0,0,1-2.37,1v5.5h-25.2l0,1.34h28.67v41.47l-1.59.59c-0.73-1.34-2-2.67-2.1-4-0.33-9-.34-18-0.56-27-0.16-6.42-1.28-7.43-7.73-7.41-2.83,0-5.66,0-8.49.07-5.75.07-6.85,1.15-6.75,7.13,0.2,12.31.49,24.62,0.72,36.93a11.63,11.63,0,0,1-.43,2c-9.87,0-19.8,0-29.72-.08-0.65,0-1.29-1.07-1.94-1.66h-0.14c-4.4.65-8.78,1.58-13.2,1.86-6,.38-12.06.28-18.09,0.33a30.12,30.12,0,0,1-3.69-.41l0-1.77h34.94l0.12,0,0,0c6.61-.08,13.21-0.1,19.82-0.23q3.3-.07,6.61-0.17c1.35,0,2.65-1.43,4-2.2-1.38-.88-2.75-2.48-4.15-2.52-7.31-.19-14.63,0-21.94.09-11.19.16-22.37,0.52-33.56,0.45-3.62,0-7.22-1.32-10.87-1.71a24.75,24.75,0,0,0-5.84.48c-1.47.2-2.9,0.59-4.76,1l0.25,5.3,3.34,0.32,0,0.88-5.63.72c0-16.7.17-33.34-.07-50-0.12-8.18-3-10.27-9.14-9.61-4.26.46-8.63-.08-12.95,0-5.91.07-8.54,2.79-8.54,8.85,0,16.33.11,32.66,0.13,49,0,2,1.26,5.61-3.17,2.23-1.51-1.15-4.53-.4-6.86-0.4q-34.16,0-68.33.1a4,4,0,0,1-3.16-1.25,20.19,20.19,0,0,1,3.6-.67q34.21-.19,68.41-0.29c1.33,0,2.79.34,4-.09a4.15,4.15,0,0,0,2.15-2.52c0.13-.44-1.24-1.73-2.1-1.95a18.55,18.55,0,0,0-4.47-.18l-54.93.06H332.54c0-10.86,0-20.74,0-30.62,0-3.33,0-6.67.24-10a19.85,19.85,0,0,1,1.3-4.28l1.53,0.2v28.7c6,1.86,6.5,1.55,6.52-3.81,0-12,0-24,.72-36v41.12H344q0-10.56,0-21.12c0-8.82.08-17.65-.08-26.46-0.06-3.3.77-5,4.46-4.72s7.42,0.06,11.33.06c0,16,.16,31-0.1,46-0.08,4.46.9,6.23,5.72,5.93,6.95-.43,13.94-0.11,21.44-0.11V409.53c6.68-7.49,14-2.11,21-3.94l0.8-4.53h35.67l0.51,6.37c-11.79,0-23.37.07-35,0-3.6,0-4.89,1.24-3.77,4.51,1.24-.9,2.42-2.52,3.64-2.54,11.78-.19,23.57-0.12,36.07-0.12v52.23c2.23,0.66,3.68,1,5,1.51,4,1.66,6.57.11,6.52-4.21-0.15-15.46-.4-30.93-0.56-46.39,0-2.28.21-4.57,0.33-6.85l1.66-.33c0.42,2,1.2,4,1.2,5.93,0,14.65-.12,29.3-0.14,44a17.73,17.73,0,0,0,1.38,7.11v-57l1.29,1L468,401v49.52h25.77V410h0.85v47.13H467.34c-1.65,4-.26,4.9,3.06,4.86,13.75-.15,27.49-0.18,41.24-0.22,2,0,3.94.22,6,.35,0-10.3.06-20.75,0-31.2-0.07-9-.46-18-0.33-27,0-2.61,1.38-5.2,2.22-8.14l-1.94-.16c-2.11-4.79,2.06-10.14-.39-14.86l-1.83,0-0.89,6.56c-2.57-1.74-3.53-15.8-1.91-25.3h7.62c0.42,8.71,1.22,17.53.18,26.68,2,0.69,3.72-.54,6.51-5.57h-0.11l-3.82.43V362.1h7.69c1.28,6.31,1,12.27-3.57,17.52-0.64.73-.24,2.38-0.28,3.6,6.43-7.77,12.12-15.78,10.37-26.78q-0.18-1.1-.45-2.24L533,353.3v-19H541c-0.16,7,1.4,13.86-.25,21.2H561.4v1.11H540.54l0,1.47H562v1.48H540.8l1,10.05-1.44.15,4.38,5.91L543.88,362h8.65V384l-6-7.57-1.24.63C551.63,385.18,558.4,393.19,556.48,405.22Zm-1.22-22.17v-21h7c2.8,7.86,2,23.9-2.08,26.66L566,393l-7.12,2.57v-17.5Zm15,88.12v-1h15.6l0,1H570.22Zm2.23-6.18c-3.62-.79-6.68,0-10,0.19-2.51.13-3.85,0.85-3-3.46,1.29-6.37.18-13.22,0.08-19.87-0.2-13.82-.43-27.64-0.58-41.46a14,14,0,0,1,.7-3.16l1.28,0.18V412.8l1.58,0V402h1.41v21.09l-0.63.22-1.18-7.63c-0.66.72-1.18,1-1.17,1.32,0.43,9.8,1,19.6,1.34,29.4,0.12,3.43,1.33,4.6,4.82,3.08V409.79H568v46.44l-5.24.41v3.9c7.4,3.64,15.81-2.84,23.77,3.09C581.43,466.22,576.51,465.88,572.44,465Zm-7.77-38.76v21h-0.84V426.22h0.84Z" transform="translate(-228.29 -155.16)" style="fill: none;stroke: #231f20;stroke-miterlimit: 10"/>
      <path d="M505.44,235h0Z" transform="translate(-228.29 -155.16)" style="fill: none;stroke: #231f20;stroke-miterlimit: 10"/>
      <path d="M362.91,268.11l0.27,0h0l-0.27,0h0Z" transform="translate(-228.29 -155.16)" style="fill: none;stroke: #231f20;stroke-miterlimit: 10"/>
      <polygon points="298.45 228.11 298.45 228.1 298.45 228.1 298.45 228.11" style="fill: none;stroke: #231f20;stroke-miterlimit: 10"/>
      <path d="M495.48,470.86h0Z" transform="translate(-228.29 -155.16)" style="fill: none;stroke: #231f20;stroke-miterlimit: 10"/>
      <path d="M465.56,267l0,0h0l0,0h0Z" transform="translate(-228.29 -155.16)" style="fill: none;stroke: #231f20;stroke-miterlimit: 10"/>
      <path d="M325,380.77h0l-0.1-.08h0Z" transform="translate(-228.29 -155.16)" style="fill: none;stroke: #231f20;stroke-miterlimit: 10"/>
      <path d="M505.47,235h0Z" transform="translate(-228.29 -155.16)" style="fill: none;stroke: #231f20;stroke-miterlimit: 10"/>
      <polygon points="237.27 111.85 237.27 111.85 237.27 111.85 237.27 111.85" style="fill: none;stroke: #231f20;stroke-miterlimit: 10"/>
      <path d="M546.5,376.38l6,7.57V362h-8.65l0.81,13.66-4.38-5.91,1.44-.15-1-10.05H562v-1.48H540.49l0-1.47h20.87v-1.11H540.77c1.66-7.34.1-14.23,0.25-21.2H533v19l3.71,0.91q0.28,1.14.45,2.24c1.76,11-4,19-10.34,26.79h0c-2.78,5-4.52,6.26-6.51,5.57,1-9.15.24-18-.18-26.68h-7.62c-1.62,9.5-.66,23.55,1.91,25.3l0.89-6.56,1.83,0c2.45,4.73-1.73,10.07.39,14.86l1.94,0.16c-0.84,2.94-2.18,5.53-2.22,8.14-0.13,9,.26,18,0.33,27,0.08,10.45,0,20.9,0,31.2-2-.12-4-0.35-6-0.35-13.75,0-27.49.06-41.24,0.22-3.32,0-4.72-.91-3.06-4.86h27.32V410h-0.85v40.5H468V401l-5.57,5.23-1.29-1v57a17.73,17.73,0,0,1-1.38-7.11c0-14.65.17-29.3,0.14-44,0-2-.78-4-1.2-5.93l-1.66.33c-0.12,2.28-.35,4.57-0.33,6.85,0.16,15.46.41,30.93,0.56,46.39,0,4.32-2.53,5.87-6.52,4.21-1.34-.56-2.79-0.85-5-1.51V409.24c-12.5,0-24.29-.08-36.07.12-1.22,0-2.4,1.64-3.64,2.54-1.12-3.27.17-4.54,3.77-4.51,11.58,0.11,23.17,0,35,0l-0.51-6.37H408.62l-0.8,4.53c-7,1.82-14.36-3.55-21,3.94v41.89c-7.5,0-14.49-.32-21.44.11-4.82.3-5.8-1.47-5.72-5.93,0.27-15,.1-30,0.1-46-3.9,0-7.63.2-11.33-.06s-4.52,1.43-4.46,4.72c0.16,8.82.07,17.64,0.08,26.46q0,10.56,0,21.12h-1.15V410.75c-0.7,12-.67,24-0.72,36,0,5.36-.54,5.67-6.52,3.81v-28.7l-1.53-.2a19.85,19.85,0,0,0-1.3,4.28c-0.25,3.32-.23,6.65-0.24,10,0,9.88,0,19.76,0,30.62h14.77l54.93-.06a18.55,18.55,0,0,1,4.47.18c0.86,0.22,2.23,1.5,2.1,1.95a4.15,4.15,0,0,1-2.15,2.52c-1.17.43-2.63,0.08-4,.09q-34.21.13-68.41,0.29a20.19,20.19,0,0,0-3.6.67,4,4,0,0,0,3.16,1.25q34.16,0,68.33-.1c2.33,0,5.34-.75,6.86.4,4.44,3.38,3.17-.27,3.17-2.23,0-16.33-.11-32.66-0.13-49,0-6.06,2.63-8.78,8.54-8.85,4.32,0,8.68.49,12.95,0,6.17-.66,9,1.43,9.14,9.61,0.24,16.64.07,33.28,0.07,50l5.63-.72,0-.88-3.34-.32-0.25-5.3c1.85-.39,3.29-0.78,4.76-1a24.75,24.75,0,0,1,5.84-.48c3.64,0.39,7.24,1.68,10.87,1.71,11.18,0.07,22.37-.29,33.56-0.45,7.31-.1,14.63-0.28,21.94-0.09,1.4,0,2.77,1.64,4.15,2.52-1.32.77-2.63,2.16-4,2.2q-3.3.11-6.61,0.17c-6.6.13-13.21,0.16-19.82,0.23,0.65,0.59,1.29,1.65,1.94,1.66,9.92,0.11,19.85.08,29.72,0.08a11.63,11.63,0,0,0,.43-2c-0.23-12.31-.52-24.62-0.72-36.93-0.1-6,1-7.06,6.75-7.13,2.83,0,5.66-.07,8.49-0.07,6.44,0,7.57,1,7.73,7.41,0.23,9,.23,18,0.56,27,0.05,1.37,1.37,2.69,2.1,4l1.59-.59V422.8H525.41l0-1.34h25.2V416a14,14,0,0,0,2.37-1,2.78,2.78,0,0,0,.66-0.52,1.47,1.47,0,0,0,.3-0.52,1.43,1.43,0,0,0,0-.14c0.2-.9-0.41-2.2-1.67-4.48L552,413.72c-1.22-2-1.28-4.17-2.15-5.94-0.71-1.44-2.41-2.39-3.67-3.56,1.88,2.64,4,5.23,1.84,9.29-2.27-4.21-4-8.21-6.5-11.7-1-1.46-3.64-1.75-5.39-2.81a8.88,8.88,0,0,1-1.89-2.35l2-4.3L531,393.46c4.66-5.47,7.66-6.21,13.06-3.06,5.66,3.31,10.37,7.58,12.43,14.82,1.92-12-4.86-20-11.23-28.2ZM420.41,403.27l0.14-1,9.9,1.23-0.29.46,5.38-.89,0.19,1.87h-15.5l0.24-.36h4.72l0.06-.83Zm-31.92,23.84H389v24.44l-0.5.11V427.11Zm0.58,35.51H336.45l-0.58-4.8h53.2v4.8Zm157.72-46.8c-6,.58-12,3.83-18.15,1.57v-1.57h18.14Zm-13.34-11.24,7.81,5.45-6.72.74-1.88-5.2Zm-2.39-1-1.58,9.85C528.46,410.21,525.33,406.62,531.06,403.62Z" transform="translate(-228.29 -155.16)" style="fill: none;stroke: #231f20;stroke-miterlimit: 10"/>
      <path d="M495.49,470.86h0c6.61-.08,13.21-0.1,19.82-0.23C508.71,470.76,502.1,470.78,495.49,470.86Z" transform="translate(-228.29 -155.16)" style="fill: none;stroke: #231f20;stroke-miterlimit: 10"/>
      <path d="M495.49,470.86l0,0v0h0Z" transform="translate(-228.29 -155.16)" style="fill: none;stroke: #231f20;stroke-miterlimit: 10"/>
      <path d="M554,413.9a1.47,1.47,0,0,1-.3.52A1.47,1.47,0,0,0,554,413.9Z" transform="translate(-228.29 -155.16)" style="fill: none;stroke: #231f20;stroke-miterlimit: 10"/>
      <path d="M554,413.76c0.2-.9-0.41-2.2-1.67-4.48h0C553.6,411.57,554.2,412.86,554,413.76Z" transform="translate(-228.29 -155.16)" style="fill: none;stroke: #231f20;stroke-miterlimit: 10"/>
      <path d="M508.87,389.43l0.72-.05V359.06h0l-13.24-1.4v35.82l6.51,0.65-10.26,1.34-0.07-.71,2.23-1.3a7.74,7.74,0,0,0-1.92-1.4c-2.46-.81-5-2-7.47-2-6.11-.05-12.23.47-18,0.75V371.12L460.8,377l2.74,12.58-3.27,6.08a3,3,0,0,1-.7-0.68,2.42,2.42,0,0,1-.43-1.35c2-10,.85-18.91-6-27.47-6.5-8.11-11.09-17.74-16.8-26.51-3.2-4.9-4.33-12.29-13.57-11,3.87-3.29,8.39-3.05,10-.42q11.65,19.07,23.42,38.06c0.65,1,1.79,1.79,3.36,3.32-0.37-7.38-.37-7.38-5.45-12.66l-0.2-1h0a13.91,13.91,0,0,0,1.53-3.4q0.18-.61.31-1.21a17.43,17.43,0,0,0,.31-2,24.42,24.42,0,0,0,.1-2.57c0-.45,0-0.89,0-1.34-0.06-1.34-.18-2.69-0.28-4a32.69,32.69,0,0,1,0-6.79h-8.05v10.94c-7.21-2.68.64-8-3.07-11.5l-3.86,1.21c-1.8-2.88-5.7-5.58-1.55-10.19l2.54,3.64,2.47-3.61,3.27,4.21,0.29-5.52c-10,.42-19.65-1.43-29,2.65-0.17-3.92-3.47-2.61-6-2.63-7.62-.06-15.24-0.22-22.85,0-2.48.08-5,.31-7.44,0.58s-5,.59-7.43.84l10,1.19c2.47,3.29,9.53,3.66,13.44.05,1.43-1.32,7.47-.1,9,2.08,1.71-3.78,3.48-4.32,5,.19l2.13-3.18a3.28,3.28,0,0,1,1.19.3c0.32,1.34,1.22,3.07.7,4-2.43,4.27-5.38,8.25-7.88,12.49-1.09,1.86-1.54,4.1-3.06,5.82l0.93-12.82c-7.64-2.1-8.14-1.75-8.15,5.09a89.28,89.28,0,0,0,.05,9,11.77,11.77,0,0,0,2.9,6.46l-2.48,4.8-4.43-3.11c0.93-1.65,2.18-2.88,2.22-4.14,0.22-6,.12-12,0.1-18,0-1.49-.12-3-0.19-4.44a2.94,2.94,0,0,0-1-.38c-8.21.43-8.21,0.43-8.21,9a47.43,47.43,0,0,0,0,5.49c0.92,7.79,2,15.57,3,23.59a11.07,11.07,0,0,1,1.77.28c1.39,0.43,2.75,1,4.12,1.44-0.92,1.08-1.7,2.91-2.78,3.11-5.59,1-3.61,4.9-3.36,8.12a46.78,46.78,0,0,0,.92,7c0.19,0.82,1.43,1.4,2.67,2.53l-2.9.5-0.79.14-4,4.7,0.2,0.16a3,3,0,0,0,1.4,1q21.15,0.68,42.3,1.2c5.32,0.13,10.65,0,16,0l0.23-2.43c-1.49-.45-3-1.28-4.48-1.29-8.09-.09-16.18.08-24.27,0-4.61,0-4.61-.14-3.85-4.28l4.86,0.73,0.87-1.53,5.32,3.62-0.66-4.1a25.58,25.58,0,0,1,3.52.2c3.41,0.69,3.11.65,4.06-2.74a1.73,1.73,0,0,1,.32-0.58c0.7-.9,2.27-1.56,3.34-2.36l1.8-2.74,2-3.06c-5.41-4.32-9.25-12.17-19.47-8.47L423.3,364c-7.62-1.83-9.87,7.65-16.57,8.33,1.31-7.34,14.47-18.34,21.09-18a6.93,6.93,0,0,1,1.91.55c14.92,5.32,24.07,15.56,26.46,31.39,0.58,3.84.61,7.76,0.88,11.48,12.78-.21,25.51,5.11,39.23-1.67v60.75h19.43l0.57-5.65-5.37-1.2c0-14.73-.06-29.36,0-44,0-3.46.48-6.86-3.78-8.63H512l3-5.37-12.63-2.08h0ZM407.59,383a19.77,19.77,0,0,1,3.72-6.11c-1.33,4.11,7.47,5.71,2.25,10.16l-3.07-5.24-1.77,14.43c-3-4-4.65-6.71-1.16-9.94C408.11,385.82,407.22,384,407.59,383Z" transform="translate(-228.29 -155.16)" style="fill: none;stroke: #231f20;stroke-miterlimit: 10"/>
      <path d="M435.16,384.26h0v0h0v0Z" transform="translate(-228.29 -155.16)" style="fill: none;stroke: #231f20;stroke-miterlimit: 10"/>
      <path d="M509.57,359.06l-13.25-1.4,13.24,1.4h0Z" transform="translate(-228.29 -155.16)" style="fill: none;stroke: #231f20;stroke-miterlimit: 10"/>
      <path d="M382.55,324.46c-2.48.27-5,.59-7.44,0.84h0C377.6,325,380.08,324.73,382.55,324.46Z" transform="translate(-228.29 -155.16)" style="fill: none;stroke: #231f20;stroke-miterlimit: 10"/>
      <path d="M455.84,341.45c0.1,1.35.22,2.7,0.28,4C456.06,344.16,455.94,342.81,455.84,341.45Z" transform="translate(-228.29 -155.16)" style="fill: none;stroke: #231f20;stroke-miterlimit: 10"/>
      <path d="M431.83,386.6a1.73,1.73,0,0,0-.32.58A1.73,1.73,0,0,1,431.83,386.6Z" transform="translate(-228.29 -155.16)" style="fill: none;stroke: #231f20;stroke-miterlimit: 10"/>
      <polygon points="225.61 200.86 225.61 200.86 225.61 200.86 225.61 200.86" style="fill: none;stroke: #231f20;stroke-miterlimit: 10"/>
      <path d="M456.16,346.84a24.42,24.42,0,0,1-.1,2.57A24.4,24.4,0,0,0,456.16,346.84Z" transform="translate(-228.29 -155.16)" style="fill: none;stroke: #231f20;stroke-miterlimit: 10"/>
      <path d="M455.74,351.4q-0.13.61-.31,1.21Q455.62,352,455.74,351.4Z" transform="translate(-228.29 -155.16)" style="fill: none;stroke: #231f20;stroke-miterlimit: 10"/>
      <path d="M502.34,389.9h0l6.52-.47Z" transform="translate(-228.29 -155.16)" style="fill: none;stroke: #231f20;stroke-miterlimit: 10"/>
      <path d="M435.2,384.23l0,0-0.05,0v0Z" transform="translate(-228.29 -155.16)" style="fill: none;stroke: #231f20;stroke-miterlimit: 10"/>
      <path d="M435.1,384.36h0l0.09-.11,0,0Z" transform="translate(-228.29 -155.16)" style="fill: none;stroke: #231f20;stroke-miterlimit: 10"/>
      <path d="M435.16,384.26h0l-0.06.1h0Z" transform="translate(-228.29 -155.16)" style="fill: none;stroke: #231f20;stroke-miterlimit: 10"/>
      <path d="M301.43,423.46v-1.23h26.32v-1.52H303.37v-1.57h24l0-1.4H302.62V416c7.59,0,15.19.06,22.78,0a30.58,30.58,0,0,0,5.06-.9c-0.4-2.06-.46-4.27-1.3-6.13-0.72-1.59-2.33-2.78-4.42-5.12l1.19,10.09c-2.32-4-4.11-7.29-6-10.46-2.62-4.33-6.31-4.06-10.46-1.48L309.23,400l9.46-2.88c-2.49-1.18-5.58-4-8-3.44-3.33.73-6.13,3.91-9.16,6l-1-1.29c3.19-2.56,6.35-5.17,9.6-7.66,3-2.34,6-1.77,9.15.16,8.49,5.21,12.7,12.81,13.48,22.59,0.18,2.29.77,4.55,1.17,6.82l1.55-.16a78.2,78.2,0,0,0,0-21.56,4.12,4.12,0,0,0-1.11-.18l-0.54,4.43-3.42-5.14,1.35-.46c-0.39-2.19-.36-4.56-1.24-6.53-1.56-3.49-3.68-6.74-5.56-10.08h0l0,0-7.76-8.93c0.84-2.78,1.87-4.51,1.7-6.1s-1.5-3.35-2.65-5.69h24.85q0-.54,0-1.08H315.83c1.4-2.74,3-4.55,3.16-6.46,0.36-5.78.13-11.59,0.13-17.55H310.7c0,5.42-.15,10.56.1,15.68,0.06,1.36,1.77,2.62,1.94,4,0.34,2.82,1.2,6.38-.08,8.43-2.3,3.67-2.75,3.24-1.48,6.64,0.3,0.82-.72,2.13-1.14,3.22l-1.86-.58v-9.82h-8.46V385l3.6-4.46,1.14,0.78c-3.54,6.32-5.89,13.38-12.65,19.51l-0.68,14h-1l-0.53-11.94-1.1.1v21.07H289l0.7-7.09,0.85,0.19v34.21c-3.92.61-5.24-.44-5.2-4.12,0.19-15.49.08-31,.08-47.44l-15.44-.9v58.76h20.84L290,462.49c-6.23,0-12.06-.16-17.88.1-1.57.07-3.08,1.42-4.62,2.18l0.65,1.41h32c1.17,4.41-.43,5.41-3.91,5.31-8.49-.24-17-0.24-25.48-0.26a20.24,20.24,0,0,0-3.66.65l0.18,1.21c9.94,0,19.9-.43,29.8.18,5.09,0.31,5.74-1.57,5.7-5.75-0.1-11.16.05-22.33,0.21-33.49,0.07-5.34,1.55-6.69,6.86-6.72,3,0,6,0,9,0,6.15,0,7.21,1.06,7.22,7.29,0,9-.06,18,0,27a39,39,0,0,0,.5,4.44l2,0c2.08-13.9,2.32-27.9,1.86-42.5h-29Z" transform="translate(-228.29 -155.16)" style="fill: none;stroke: #231f20;stroke-miterlimit: 10"/>
      <path d="M324.91,380.66l0,0h0l0,0h0Z" transform="translate(-228.29 -155.16)" style="fill: none;stroke: #231f20;stroke-miterlimit: 10"/>
      <path d="M324.92,380.67l0.16,0.17-0.16-.17h0Z" transform="translate(-228.29 -155.16)" style="fill: none;stroke: #231f20;stroke-miterlimit: 10"/>
      <path d="M422.79,177.36c-10.84,10-21.47,20.13-32.23,30.17a7.81,7.81,0,0,1-1.73,1.16c-0.6.31-1.22,0.61-1.81,0.94l-4.95,4.92,0,0h0l-5,5,0,0h0L366,229.16l-0.46,0-0.46,0H358l-0.55-3.61-2.38,1.53-0.28.3a4.25,4.25,0,0,1-.36.32,3.43,3.43,0,0,1-.54.36,3.36,3.36,0,0,1-.71.27,4.49,4.49,0,0,1-.84.13,7.49,7.49,0,0,1-1,0,26.84,26.84,0,0,1-4.31-.79l-2,3.82-0.64,1.21c9.92,0,20-.05,30.17.1,0.86,0,1.7,1.41,3.33,2.86l-9.15.44v0.29H379l-0.84-2.62a10.68,10.68,0,0,1,3-.83c4.78,0.16,9.56.72,14.34,0.69,5,0,9.9-.86,14.85-0.81,4.59,0,9.16,1,13.75,1.18,5.41,0.18,10.84-.1,16.27-0.15,2.27,0,4.55.16,6.8,0,2.88-.2,5.74-1,8.6-0.95,6,0.08,11.94.53,18.48,0.86l3.36,3.73,1-1.07-2.68-1.2,0-1.38h16.18l0.56-2.11a50.46,50.46,0,0,0-5.28-2.82c-1.62-.65-3.84-0.34-5.06-1.34-7-5.76-13.9-11.67-20.62-17.76-9.16-8.31-18.24-16.72-27.12-25.34a24.62,24.62,0,0,1-2.68-3.14c-1.35-1.83-2.56-3.81-3.9-5.64C426.2,176.21,424,176.24,422.79,177.36Zm-13.12,52.71H387.81q0-.32,0-0.65h21.85v0.65Zm-27.93-5.77,23.8-22.75c-0.11,11.46-.07,11.53,10,22.75H381.74Zm64.92-22.63L470,223.52l-0.68,1.29H437c2.79-3.72,5.91-6.65,7.42-10.25S445.88,206.58,446.66,201.67Zm-6.37-3.82c-4.95,5.69-6.32,10.48-1,15.79-6.46-.57-11.14.92-13,7.74-2-2.81-3-5.4-4.9-6.57s-4.71-.95-8.09-1.49c5.43-5,2.6-9.52-1.23-14.58h10l4.51-7.28C428.7,197.77,433,199.82,440.29,197.84Zm-20.06-10.26,5.49-5.07,6.23,5.07H420.22Z" transform="translate(-228.29 -155.16)" style="fill: none;stroke: #231f20;stroke-miterlimit: 10"/>
      <circle cx="387.02" cy="209.62" transform="translate(-281.18 40.05) rotate(-26.57)" style="fill: none;stroke: #231f20;stroke-miterlimit: 10"/>
      <path d="M347,227.67l-2,3.82,2-3.82h0Z" transform="translate(-228.29 -155.16)" style="fill: none;stroke: #231f20;stroke-miterlimit: 10"/>
      <path d="M405.09,269.9c1.18,12.1,12.94,21.47,24.38,19.41,13.56-2.44,21.31-13.8,18-26.41a33.93,33.93,0,0,1-.53-3.41L438,249.61c-3.87-.79-7.73-2.2-11.61-2.27C414.13,247.13,403.95,258.15,405.09,269.9Z" transform="translate(-228.29 -155.16)" style="fill: none;stroke: #231f20;stroke-miterlimit: 10"/>
      <path d="M390,391.89h0l-14.81-.63-15-.64V360h26.73l0.65,10.11c2.7-7.42,2.08-9.28-2.4-12.46-7.37.73-13.8,2.21-20.36-.59a3.22,3.22,0,0,0-1.58-.17c-0.38,0-.78.11-1.18,0.19l-1.09.21-0.18,0-0.5.07-9.18-.85-6.54,2.4v28.28h-0.94V362.71h-1.32c0,8.39,0,16.79.08,25.18,0,0.63,1.18,1.2,1.74,1.86a3.43,3.43,0,0,1-1.75,5.68c0.52-5-2.68-5.45-6.86-6l5.1-2.72V362.07l-8.31.37v19c0.88-.73,1.67-1.73,2.67-2,0.4-.12,1.91,1.4,1.81,2-0.72,4.68-1.71,9.32-2.7,14.4,5,0.66,9.87,1.48,14.74,1.87,3.61,0.29,7.3-.28,10.9.06,4.16,0.4,8.37,2.32,12.37,1.88,2.91-.31,6.12.28,9.06-0.29a9.6,9.6,0,0,0,1.73-.5,8.25,8.25,0,0,0,.83-0.39,8.37,8.37,0,0,0,2.33-1.85h0Z" transform="translate(-228.29 -155.16)" style="fill: none;stroke: #231f20;stroke-miterlimit: 10"/>
      <path d="M383.7,398.44a8.37,8.37,0,0,0,2.33-1.85h0A8.37,8.37,0,0,1,383.7,398.44Z" transform="translate(-228.29 -155.16)" style="fill: none;stroke: #231f20;stroke-miterlimit: 10"/>
      <path d="M382.86,398.83a9.6,9.6,0,0,1-1.73.5A9.6,9.6,0,0,0,382.86,398.83Z" transform="translate(-228.29 -155.16)" style="fill: none;stroke: #231f20;stroke-miterlimit: 10"/>
      <path d="M364,325.93l-5.93,3.65c2.82,2.16,1.86,5.25,1.91,8.06,0.11,6.59.17,13.19,0.24,19.79l0.5-.07,0.18,0,1.09-.21c0.4-.08.8-0.15,1.18-0.19a3.22,3.22,0,0,1,1.58.17c6.56,2.8,13,1.32,20.36.59,4.49,3.18,5.1,5,2.4,12.46L386.92,360H360.19v30.58l15,0.64L390,391.89l0.79-.14,2.9-.5c-1.24-1.13-2.48-1.71-2.67-2.53a46.78,46.78,0,0,1-.92-7c-0.26-3.22-2.24-7.1,3.36-8.12,1.08-.2,1.86-2,2.78-3.11-1.37-.48-2.73-1-4.12-1.44a11.07,11.07,0,0,0-1.77-.28c-1-8-2.07-15.8-3-23.59a47.43,47.43,0,0,1,0-5.49c0-8.54,0-8.54,8.21-9a2.94,2.94,0,0,1,1,.38c0.06,1.46.18,2.95,0.19,4.44,0,6,.12,12-0.1,18,0,1.27-1.3,2.49-2.22,4.14l4.43,3.11,2.48-4.8a11.77,11.77,0,0,1-2.9-6.46,89.28,89.28,0,0,1-.05-9c0-6.85.51-7.19,8.15-5.09l-0.93,12.82c1.51-1.72,2-4,3.06-5.82,2.49-4.24,5.45-8.21,7.88-12.49,0.52-.91-0.38-2.65-0.7-4a3.28,3.28,0,0,0-1.19-.3l-2.13,3.18c-1.5-4.51-3.27-4-5-.19-1.52-2.18-7.56-3.4-9-2.08-3.91,3.61-11,3.24-13.44-.05l-10-1.19h0l-3.13.3-6.72,2Zm8.64,44.77c0,5.45,0,10.91,0,16.69H362.08V362.95a4.53,4.53,0,0,1,.91-0.62C372.68,361,372.68,361,372.67,370.7ZM385,387.4H375v-25H385v25Zm3.31,1.66-1,.09v-15h1v14.88Zm-13.23-54.14H385.2v19.2H375.12v-19.2Zm-2.77-.24V354.2H362.3V334.68h10.06Z" transform="translate(-228.29 -155.16)" style="fill: none;stroke: #231f20;stroke-miterlimit: 10"/>
      <path d="M375.12,325.29h0l-3.13.3,3.13-.3h0Z" transform="translate(-228.29 -155.16)" style="fill: none;stroke: #231f20;stroke-miterlimit: 10"/>
      <path d="M390,391.89h0l-14.81-.63Z" transform="translate(-228.29 -155.16)" style="fill: none;stroke: #231f20;stroke-miterlimit: 10"/>
      <path d="M361,357.34l-0.18,0Z" transform="translate(-228.29 -155.16)" style="fill: none;stroke: #231f20;stroke-miterlimit: 10"/>
      <path d="M345.74,317.92l10.85,0.8v0.83l-10.82.57,0.07,1h14.8L360.5,321h0l0,0h0.21c0.31-.72.61-1.86,0.92-1.86,10.59-.11,21.18-0.09,31.78.14l-32.71,1.72,0,0.06a28.81,28.81,0,0,0,4.5,1.24,6,6,0,0,0,.67,0c4.64,0,9.28-.64,13.93-0.66q32.53-.11,65.06,0c7,0,13.92.25,20.88,0.3,8.09,0.06,16.18,0,24.27,0l0-1.09-7.13-.89,0.17-.91,10.15-.86-0.08-1.39c-1.6-.09-3.21-0.24-4.81-0.24-14,0-28-.1-42,0-15.09.06-15.09,0.12-14.37-15a7.19,7.19,0,0,1,.81-1.61h22.5V298.2H429.42l-2,2.71-2.27-3v6L431,305c0.51,13,.51,13-2.58,14.93a87.39,87.39,0,0,0,.67-9c0-.84-1.44-1.66-2.22-2.49-0.55.52-1.59,1.08-1.56,1.56,0.17,2.26.84,4.48,0.91,6.73,0,1-.91,2-1.41,3.06-0.61-.83-1.66-1.62-1.74-2.5-0.23-2.59-.08-5.21-0.08-6.86l-4.36,4,3,1.58H359.07l1.61-1.32-14.92,2Z" transform="translate(-228.29 -155.16)" style="fill: none;stroke: #231f20;stroke-miterlimit: 10"/>
      <path d="M360.5,321l0.13,0.12L360.5,321h0Z" transform="translate(-228.29 -155.16)" style="fill: none;stroke: #231f20;stroke-miterlimit: 10"/>
      <path d="M360.68,314.7h0C360.75,314.64,360.74,314.64,360.68,314.7Z" transform="translate(-228.29 -155.16)" style="fill: none;stroke: #231f20;stroke-miterlimit: 10"/>
      <path d="M352.35,220.09L349,221.61l0.49,3.54Z" transform="translate(-228.29 -155.16)" style="fill: none;stroke: #231f20;stroke-miterlimit: 10"/>
      <path d="M355.06,227.09l2.38-1.53,6.38-3.4c2.31,0.94,1.35,4.14,1.24,7l0.46,0,0.46,0,0.95-9.68,1.63-.07,2.51,4,1.37-9h1.31l3.23,4.92c0.25-3.34-1.4-7.11,2.15-10.41l1.6,3,1.24,2.33,0.5-9.73,2-.23,2.47,5,1-9.72,1.32-.23,3,3.63,1.52-9.53,3.67,4.32,1.33-9.57,3.81,4.4,1-7.87,1.87-1,2,3.95,1.94-9.34,3.44,4.89,1.34-8.42,1.46-.07,2.35,3.88,1.39-8.46,1.23-.16,2.47,3.55c2.7-2.05-2.43-7.63,3.73-8l2.24-.09L424,160.14l2.13-3.4,5.37,4.57,1.14-.55c-0.65-1.66-1.09-4.61-2-4.76a46.26,46.26,0,0,0-10.39-.11c-0.62,0-1.82,1.68-1.64,2.08,2,4.48-1.63,6.48-3.95,8.7-15.82,15.16-31.79,30.17-47.67,45.27a11.92,11.92,0,0,0-3.28,4.21c-1.25,3.6-2,4.23-4.8,3.57a26.61,26.61,0,0,0-5.37-.19l-1,.47Z" transform="translate(-228.29 -155.16)" style="fill: none;stroke: #231f20;stroke-miterlimit: 10"/>
      <polygon points="153.8 59.43 153.8 59.43 153.8 59.43 153.8 59.43" style="fill: none;stroke: #231f20;stroke-miterlimit: 10"/>
      <path d="M583.64,456L582,399a14.88,14.88,0,0,0-1.69-.44c-10.94-1.29-10.85-1.29-10.79,9.6,0.09,15.93,0,31.87,0,47.86h14.08Z" transform="translate(-228.29 -155.16)" style="fill: none;stroke: #231f20;stroke-miterlimit: 10"/>
      <path d="M287,339.87a92.18,92.18,0,0,0-1.48-9.92c3.29,3,2.75-3.82,6.7-4.43l0.48,6.66H296c-3.76-2.54-1.8-4.47.59-6.82l2.39,3.71,2.8-3.91,2.69,3.66,2.54-3.9,2.75,4,2.86-3.61,2.78,3.67c1.72-4.2,3.44-4.29,5.09-.32l3.1-3.41L326,329l3.22-4.24,2.57,6.95h-8l0,0.43h8.44l0.8-6.54,1.47-.1,2.29,3.32,2.59-3.24,2,1.53,2.26,1.75c0.63-3.86-1.11-5.15-7.13-5.15-15.45,0-30.9.09-46.36,0.06-5.08,0-10.16-.37-15.24-0.36a3.55,3.55,0,0,0-2.57,1.67c-0.36.67-.06,2.43,0.46,2.68a6.54,6.54,0,0,0,3.73.41c0.5-.08.81-1.33,1.23-2.08l4.19,3.9-10,1.93v24h15.24C287.09,350.51,287.29,345.18,287,339.87Z" transform="translate(-228.29 -155.16)" style="fill: none;stroke: #231f20;stroke-miterlimit: 10"/>
      <path d="M341.3,327.1l-2-1.53Z" transform="translate(-228.29 -155.16)" style="fill: none;stroke: #231f20;stroke-miterlimit: 10"/>
      <polygon points="115.26 173.71 115.27 173.7 115.26 173.7 115.26 173.71" style="fill: none;stroke: #231f20;stroke-miterlimit: 10"/>
      <circle cx="343.56" cy="328.85" transform="translate(-356.94 230.3) rotate(-50.58)" style="fill: none;stroke: #231f20;stroke-miterlimit: 10"/>
      <path d="M417.87,292.78c11.67,4.24,26-.4,33.33-10.46,5.65-7.71,6.08-22.84.88-27.6,0.62,4.37,1.83,8.41,1.59,12.37a32.7,32.7,0,0,1-3.16,11.31c-1.58,3.44-3.87,6.76-8.14,7.58,6.49-8.1,10-16.49,4.6-26.48a33.93,33.93,0,0,0,.53,3.41c3.27,12.61-4.49,24-18,26.41-11.43,2.06-23.2-7.31-24.38-19.41-1.15-11.76,9-22.77,21.33-22.56,3.88,0.07,7.74,1.48,11.61,2.27-4.95-3.74-10.76-3.39-16.29-2.72-8.24,1-13.67,6.52-17.74,13.84-0.77-1.13-1.34-1.59-1.27-1.91,0.32-1.4.46-3.07,1.32-4.08,4.34-5.13,8.89-10.09,12.49-14.13-9.13,1.95-17.93,12.21-18.54,23.18C397.26,277.22,404.61,288,417.87,292.78Z" transform="translate(-228.29 -155.16)" style="fill: none;stroke: #231f20;stroke-miterlimit: 10"/>
      <path d="M292.71,313h45.45l-22.26-27Zm24.39-17,3.75,0.4,0.11,1.24-4.31.78v11.37L315,310c0-2.34.09-4.69,0-7-0.11-2,1.18-5.11-3-4.73-0.29,0-.67-0.83-1-1.27l3.57-1.41,0.95-5.45,1.18,0.05Z" transform="translate(-228.29 -155.16)" style="fill: none;stroke: #231f20;stroke-miterlimit: 10"/>
      <path d="M513.91,313H559l-23.25-27.14Zm23.78-17.61,3.83,1.8-4.3,1.81v11.25l-1.51,0-0.55-10.72L531,297l3.7-1.46,0.41-5.76,1.48-.14Z" transform="translate(-228.29 -155.16)" style="fill: none;stroke: #231f20;stroke-miterlimit: 10"/>
      <path d="M286.5,359.79H310l0-1.26H271v31H286.5V359.79Z" transform="translate(-228.29 -155.16)" style="fill: none;stroke: #231f20;stroke-miterlimit: 10"/>
      <path d="M360.69,282.74c0.15-4.85.52-9.69,0.8-14.54h-0.07c-3.54-.61-7.07-1.4-10.64-1.77-3.09-.32-4.89,1-4.8,4.55,0.17,7.13.05,14.26,0.05,21.39h-1.2V268.9h-1.14v27.15h17C360.66,291.67,360.55,287.2,360.69,282.74Zm-6.75,9.4,0,0c0-6.39.11-12.78-.16-19.16,0-.66-2.29-1.22-4.21-2.17l4.39-.27v21.65Z" transform="translate(-228.29 -155.16)" style="fill: none;stroke: #231f20;stroke-miterlimit: 10"/>
      <path d="M361.49,268.13h0l-0.07.08h0Z" transform="translate(-228.29 -155.16)" style="fill: none;stroke: #231f20;stroke-miterlimit: 10"/>
      <path d="M361.19,235.88a69.65,69.65,0,0,0-8.39-.59c-2.83.1-6.77-.92-6.31,4.64l-2.59-3.15v27.38h17.29V235.88Zm-6.52,21.07-0.35,0c0-4.17.22-8.36-.1-12.51-0.13-1.74-1.4-3.39-2.3-5.4h2.75v17.89Z" transform="translate(-228.29 -155.16)" style="fill: none;stroke: #231f20;stroke-miterlimit: 10"/>
      <path d="M569,388.44l6.83,1.28-0.13.58-7.82.71,4,3.07-3,1.29,0.16,0.82H582.8l0.15-.78L579.27,394c2.4-2,2.94-28.27.87-35.1H569v29.51Zm8.66-3.77-1.87-22.07C579.47,369.57,577.92,377.21,577.67,384.66Z" transform="translate(-228.29 -155.16)" style="fill: none;stroke: #231f20;stroke-miterlimit: 10"/>
      <path d="M562.8,460.53v-3.9l5.24-.41V409.78h-0.92v39.74c-3.49,1.51-4.7.35-4.82-3.08-0.35-9.8-.91-19.6-1.34-29.4,0-.29.51-0.6,1.17-1.32l1.18,7.63,0.63-.22V402h-1.41v10.79l-1.58,0V397.41l-1.28-.18a14,14,0,0,0-.7,3.16c0.16,13.82.38,27.64,0.58,41.46,0.1,6.65,1.21,13.5-.08,19.87-0.87,4.31.47,3.59,3,3.46,3.31-.17,6.37-1,10-0.19,4.07,0.89,9,1.22,14.12-1.37C578.6,457.69,570.2,464.18,562.8,460.53Z" transform="translate(-228.29 -155.16)" style="fill: none;stroke: #231f20;stroke-miterlimit: 10"/>
      <path d="M494.34,235v28.74l13.36,0.65c0-8.63.1-17.06-.1-25.47,0-1.31-1.33-2.6-2.14-3.92H494.34Z" transform="translate(-228.29 -155.16)" style="fill: none;stroke: #231f20;stroke-miterlimit: 10"/>
      <path d="M505.45,235l0.07,0h0l-0.09,0h0Z" transform="translate(-228.29 -155.16)" style="fill: none;stroke: #231f20;stroke-miterlimit: 10"/>
      <path d="M507.6,239c0-1.32-1.35-2.61-2.13-3.92h0C506.27,236.35,507.57,237.64,507.6,239Z" transform="translate(-228.29 -155.16)" style="fill: none;stroke: #231f20;stroke-miterlimit: 10"/>
      <ellipse cx="505.46" cy="235.03" rx="0.01" ry="0.01" transform="translate(-179.87 399) rotate(-59.86)" style="fill: none;stroke: #231f20;stroke-miterlimit: 10"/>
      <path d="M505.46,235h0.05l-0.07,0Z" transform="translate(-228.29 -155.16)" style="fill: none;stroke: #231f20;stroke-miterlimit: 10"/>
      <path d="M505.45,235h0Z" transform="translate(-228.29 -155.16)" style="fill: none;stroke: #231f20;stroke-miterlimit: 10"/>
      <path d="M360,337.65c0-2.82.91-5.9-1.91-8.06l-0.13.08h0l-0.19-.07c-2.35.26-4.77,0.93-7,.55-4.71-.81-5.91,1.54-5.92,5.44,0,6.59,0,13.18,0,19.94l6.23,1.06,9.18,0.85C360.19,350.84,360.14,344.24,360,337.65Z" transform="translate(-228.29 -155.16)" style="fill: none;stroke: #231f20;stroke-miterlimit: 10"/>
      <path d="M358,329.66h0l-0.19-.07h0l0.19,0.07h0Z" transform="translate(-228.29 -155.16)" style="fill: none;stroke: #231f20;stroke-miterlimit: 10"/>
      <path d="M525.14,356.25h0Z" transform="translate(-228.29 -155.16)" style="fill: none;stroke: #231f20;stroke-miterlimit: 10"/>
      <path d="M509.56,335.35c-0.18-1.91-1.92-5-3.33-5.2-3.26-.54-6.76.26-10.14,0.72-0.34,0-.71,1.44-0.71,2.22-0.05,7.42,0,14.83,0,22.84h16.81c-1.64-.42-2.35-1.67-2.28-4.13A135.29,135.29,0,0,0,509.56,335.35Z" transform="translate(-228.29 -155.16)" style="fill: none;stroke: #231f20;stroke-miterlimit: 10"/>
      <path d="M525.12,356.27h0Z" transform="translate(-228.29 -155.16)" style="fill: none;stroke: #231f20;stroke-miterlimit: 10"/>
      <path d="M525.12,356.26h0Z" transform="translate(-228.29 -155.16)" style="fill: none;stroke: #231f20;stroke-miterlimit: 10"/>
      <path d="M514.26,356.08c3.32-.18,6.65-0.08,10-0.08a3.47,3.47,0,0,1,.9.25l0.41-.33h-13.4A7.05,7.05,0,0,0,514.26,356.08Z" transform="translate(-228.29 -155.16)" style="fill: none;stroke: #231f20;stroke-miterlimit: 10"/>
      <path d="M504.89,267a20.54,20.54,0,0,0-7.4-.07c-1.1.16-2.87,1.55-2.9,2.42-0.22,8.69-.13,17.4-0.13,26l13.72,0.71c0-8.63.12-17.22-.14-25.8C508,269.11,506.16,267.31,504.89,267Zm-2.08,22c-1.16-4.11.1-8.56-.16-12.84a16,16,0,0,0-1.46-5.34,12.06,12.06,0,0,1,1.46,5.34C503.11,280.35,502.37,284.73,502.8,289Z" transform="translate(-228.29 -155.16)" style="fill: none;stroke: #231f20;stroke-miterlimit: 10"/>
      <path d="M346,311h14.5V300.2h27.1v11.15h9.28V299.84h23.4l0.05-.76H346V311Zm46.18-8.52,2.66,3.07-3.6,4.81C388.08,306.92,388.7,304.51,392.21,302.44Z" transform="translate(-228.29 -155.16)" style="fill: none;stroke: #231f20;stroke-miterlimit: 10"/>
      <path d="M392.89,267.42c-2.12.32-5.24-1-5.32,2.67-0.19,8.72-.06,17.44-0.06,26.32h9.12c0-8.89,0-17.31,0-25.72C396.61,268.24,395.54,267,392.89,267.42Z" transform="translate(-228.29 -155.16)" style="fill: none;stroke: #231f20;stroke-miterlimit: 10"/>
      <path d="M465.5,267h0Z" transform="translate(-228.29 -155.16)" style="fill: none;stroke: #231f20;stroke-miterlimit: 10"/>
      <path d="M459.59,267.36l-2.07.12v28.75h9.35L465.5,267Z" transform="translate(-228.29 -155.16)" style="fill: none;stroke: #231f20;stroke-miterlimit: 10"/>
      <path d="M465.56,267l0,0V267h0Z" transform="translate(-228.29 -155.16)" style="fill: none;stroke: #231f20;stroke-miterlimit: 10"/>
      <path d="M465.53,267l0-.05V267h0V267Z" transform="translate(-228.29 -155.16)" style="fill: none;stroke: #231f20;stroke-miterlimit: 10"/>
      <path d="M465.53,267h0Z" transform="translate(-228.29 -155.16)" style="fill: none;stroke: #231f20;stroke-miterlimit: 10"/>
      <path d="M579.61,330.58h-11.3v24.73h11.3V330.58Zm-3.09,20.21c0,0.81-2.75,1.47-4.88,2.54,2.11-2.23,4.21-3.39,4.42-4.83,1.08-7.33-.18-10.61-3.82-11.82l0.5-1.39c1.17,0.44,3.3.8,3.35,1.35A99,99,0,0,1,576.52,350.79Z" transform="translate(-228.29 -155.16)" style="fill: none;stroke: #231f20;stroke-miterlimit: 10"/>
      <path d="M397,235.88H385.51l-0.18.4a5.39,5.39,0,0,1,1.39.27c0.48,9.18.89,18.35,1.32,27.72H397V235.88Z" transform="translate(-228.29 -155.16)" style="fill: none;stroke: #231f20;stroke-miterlimit: 10"/>
      <path d="M362.67,270.86v23.2h9.94v-23.2h-9.94Z" transform="translate(-228.29 -155.16)" style="fill: none;stroke: #231f20;stroke-miterlimit: 10"/>
      <path d="M375.41,270.82v23.44h10V270.82h-10Z" transform="translate(-228.29 -155.16)" style="fill: none;stroke: #231f20;stroke-miterlimit: 10"/>
      <path d="M560.22,323.79c-13.61-.29-27.23-0.37-40.84-0.48-7.93-.06-15.86,0-25.25,0l2.79,5,4-2.77c2.69,4.08,7.61,4.21,12.3-.18l2.58,3.14c2-5.24,3.74-2.42,5.35.62,1.83-5.42,3.67-3.62,5.37-.42,2-5,3.67-3.15,5.44.37,1.73-6.54,3.53-2.58,5.13-.52l2.9-3.54,2.63,3.68c1.68-4.82,3.4-3.74,5-.14l2.91-3.57,2.58,3.55L556,325l2.41,3.44,2.42-2.92,1.31,0.95,3.36,2.43C567.24,323.53,563.13,323.86,560.22,323.79Z" transform="translate(-228.29 -155.16)" style="fill: none;stroke: #231f20;stroke-miterlimit: 10"/>
      <polygon points="337.17 173.7 337.18 173.69 337.18 173.69 337.17 173.7" style="fill: none;stroke: #231f20;stroke-miterlimit: 10"/>
      <circle cx="565.47" cy="328.85" transform="translate(-297.49 332.09) rotate(-44.19)" style="fill: none;stroke: #231f20;stroke-miterlimit: 10"/>
      <path d="M457,239.66c0,8.11,0,16.21,0,24.73h8.89c0-8-.07-15.76.06-23.52,0-1.63.82-3.26,1.29-5l-9.88.52C457.2,237.73,457,238.7,457,239.66Z" transform="translate(-228.29 -155.16)" style="fill: none;stroke: #231f20;stroke-miterlimit: 10"/>
      <path d="M481.45,387.23h9.23V362.11h-9.23v25.12Z" transform="translate(-228.29 -155.16)" style="fill: none;stroke: #231f20;stroke-miterlimit: 10"/>
      <path d="M478.77,387.13v-25h-9.28v25h9.28Z" transform="translate(-228.29 -155.16)" style="fill: none;stroke: #231f20;stroke-miterlimit: 10"/>
      <path d="M372.29,402.62H362v21.75h10.29V402.62Z" transform="translate(-228.29 -155.16)" style="fill: none;stroke: #231f20;stroke-miterlimit: 10"/>
      <path d="M375.57,262.46h9.87V239.9h-9.87v22.56Z" transform="translate(-228.29 -155.16)" style="fill: none;stroke: #231f20;stroke-miterlimit: 10"/>
      <path d="M384,449.11a4.55,4.55,0,0,0,.91-0.51V427H374.32c0,4.66,0,9.1,0,13.54C374.28,450,374.27,450,384,449.11Z" transform="translate(-228.29 -155.16)" style="fill: none;stroke: #231f20;stroke-miterlimit: 10"/>
      <path d="M361.68,449.34a65.37,65.37,0,0,0,7.93-.1c1-.12,2.48-1.39,2.51-2.18,0.2-6.59.11-13.18,0.11-20H361.68v22.28Z" transform="translate(-228.29 -155.16)" style="fill: none;stroke: #231f20;stroke-miterlimit: 10"/>
      <polygon points="225.61 200.86 225.61 200.86 225.61 200.86 225.61 200.86" style="fill: none;stroke: #231f20;stroke-miterlimit: 10"/>
      <path d="M453.9,356l0.2,1,13-1.6c0-6.6-.11-13.37.09-20.13,0-1.35,1.22-2.68,1.92-4.1a10.57,10.57,0,0,0-2.12-1c-7-2-9-.48-8.95,6.85,0,5-.17,10,0.13,14.9a9.42,9.42,0,0,1,0,1.16,4.13,4.13,0,0,1-.43,1.72,2.3,2.3,0,0,1-.44.58C456.56,356,455.46,356.2,453.9,356Z" transform="translate(-228.29 -155.16)" style="fill: none;stroke: #231f20;stroke-miterlimit: 10"/>
      <path d="M457.7,354.79a4.13,4.13,0,0,0,.43-1.72A4.13,4.13,0,0,1,457.7,354.79Z" transform="translate(-228.29 -155.16)" style="fill: none;stroke: #231f20;stroke-miterlimit: 10"/>
      <path d="M453.9,356c1.56,0.19,2.66,0,3.35-.65-0.69.65-1.8,0.83-3.35,0.65h0Z" transform="translate(-228.29 -155.16)" style="fill: none;stroke: #231f20;stroke-miterlimit: 10"/>
      <path d="M385.11,402.74H374.74v21.52h10.37V402.74Z" transform="translate(-228.29 -155.16)" style="fill: none;stroke: #231f20;stroke-miterlimit: 10"/>
      <path d="M477.46,271h-9V294.3h9V271Z" transform="translate(-228.29 -155.16)" style="fill: none;stroke: #231f20;stroke-miterlimit: 10"/>
      <path d="M495.39,318.23c20.23,0.58,40.5.11,60.74,0.36l0,1.93H512.27l0,1.67c10.56,0,21.13-.26,31.68.09a34.38,34.38,0,0,0,21.42-5.87h-70Z" transform="translate(-228.29 -155.16)" style="fill: none;stroke: #231f20;stroke-miterlimit: 10"/>
      <path d="M566,393l-5.79-4.26c4-2.76,4.87-18.8,2.08-26.66h-7v21l3.64-5v17.5Z" transform="translate(-228.29 -155.16)" style="fill: none;stroke: #231f20;stroke-miterlimit: 10"/>
      <path d="M480.36,294.25h8.78V271h-8.78v23.3Z" transform="translate(-228.29 -155.16)" style="fill: none;stroke: #231f20;stroke-miterlimit: 10"/>
      <path d="M491.32,402.38h-9.43V424h9.43V402.38Z" transform="translate(-228.29 -155.16)" style="fill: none;stroke: #231f20;stroke-miterlimit: 10"/>
      <path d="M363.06,262.2h9.59V239.57h-9.59V262.2Z" transform="translate(-228.29 -155.16)" style="fill: none;stroke: #231f20;stroke-miterlimit: 10"/>
      <path d="M479.59,262.45h9V239.89h-9v22.55Z" transform="translate(-228.29 -155.16)" style="fill: none;stroke: #231f20;stroke-miterlimit: 10"/>
      <path d="M479.31,402.32h-9.06v21.77h9.06V402.32Z" transform="translate(-228.29 -155.16)" style="fill: none;stroke: #231f20;stroke-miterlimit: 10"/>
      <path d="M280.19,310.89c3.58,0.38,5.24-.76,5-4.65-0.27-4.26-.06-8.54-0.06-14l-5.68,5.64-0.71-.81,3.78-6.75h0l-3-8.92c-0.28,1.41-.22,2.48-0.56,2.62-4.84,2-3.13,7.3-4.68,10.78-1.94,4.37-.47,10.26-0.47,16.07A61.82,61.82,0,0,1,280.19,310.89Z" transform="translate(-228.29 -155.16)" style="fill: none;stroke: #231f20;stroke-miterlimit: 10"/>
      <path d="M491.51,426.84h-9.3V448.3h9.3V426.84Z" transform="translate(-228.29 -155.16)" style="fill: none;stroke: #231f20;stroke-miterlimit: 10"/>
      <path d="M479.69,426.86h-9.32v21.56h9.32V426.86Z" transform="translate(-228.29 -155.16)" style="fill: none;stroke: #231f20;stroke-miterlimit: 10"/>
      <path d="M296.82,385.81c0.35-7.73.17-15.48,0.17-23.2h-7.7c-1.72,13.78-1.35,23,1,24.89l1.27-6.27,1.07,0.21-0.46,9.22C294.44,388.41,296.76,387.16,296.82,385.81Z" transform="translate(-228.29 -155.16)" style="fill: none;stroke: #231f20;stroke-miterlimit: 10"/>
      <path d="M468.23,239.89v22.59h8.63V239.89h-8.63Z" transform="translate(-228.29 -155.16)" style="fill: none;stroke: #231f20;stroke-miterlimit: 10"/>
      <path d="M496.3,210.63c2.32,0.48,4.8.14,7.73,0.14l-1.91-16.69-1.25.21,2-6-1-.33-1.55,4-2-6.65c-1,4-4.44,5.86-3.9,10.07,0.51,4-.9,8.17-1,12.28C493.44,208.64,495.15,210.39,496.3,210.63Z" transform="translate(-228.29 -155.16)" style="fill: none;stroke: #231f20;stroke-miterlimit: 10"/>
      <path d="M473,334.3c-1.11.19-2.26,0.18-3.61,0.29v19.25h9.37c0-5-.24-9.67.07-14.27S477.17,333.59,473,334.3Z" transform="translate(-228.29 -155.16)" style="fill: none;stroke: #231f20;stroke-miterlimit: 10"/>
      <path d="M490.2,334.78H481v19h9.2v-19Z" transform="translate(-228.29 -155.16)" style="fill: none;stroke: #231f20;stroke-miterlimit: 10"/>
      <path d="M322.65,318.71l0.08,1.29-4.8,1.71h20.39l0.11-.85-13.34-.63,0.11-1.92H343l-0.05-1.52H285.29l-2-4.81c-0.31,5.74-3.46,3.6-5.68,3.74-1.75.11-3.49,0.38-5.24,0.58l0.25,2.41h50Z" transform="translate(-228.29 -155.16)" style="fill: none;stroke: #231f20;stroke-miterlimit: 10"/>
      <path d="M487.71,298.74c-6.29.41-12.63-.09-18.94,0.1-12.16.38-11.59-3-11.11,11.17a10.72,10.72,0,0,0,.37,1.67l9.06,0.42V300h25.13v11.15l1.59-.05c0-2.1,0-4.19,0-6.29C493.87,300.67,492.53,298.43,487.71,298.74Z" transform="translate(-228.29 -155.16)" style="fill: none;stroke: #231f20;stroke-miterlimit: 10"/>
      <path d="M332.6,354.17h8v-19.4h-8v19.4Z" transform="translate(-228.29 -155.16)" style="fill: none;stroke: #231f20;stroke-miterlimit: 10"/>
      <path d="M289.51,354.15h8V334.87h-8v19.28Z" transform="translate(-228.29 -155.16)" style="fill: none;stroke: #231f20;stroke-miterlimit: 10"/>
      <path d="M530.68,340.78c-0.15-7.54-1.11-8.17-8.3-5.83v18.64h8.31C530.7,349,530.77,344.9,530.68,340.78Z" transform="translate(-228.29 -155.16)" style="fill: none;stroke: #231f20;stroke-miterlimit: 10"/>
      <path d="M554.58,334.71v18.74h7.67a3.78,3.78,0,0,0,.54-1.13c0-4,0-8-.08-11.93C562.58,333.34,561.52,332.64,554.58,334.71Z" transform="translate(-228.29 -155.16)" style="fill: none;stroke: #231f20;stroke-miterlimit: 10"/>
      <path d="M300.18,354.22h8.15V335h-8.15v19.27Z" transform="translate(-228.29 -155.16)" style="fill: none;stroke: #231f20;stroke-miterlimit: 10"/>
      <path d="M321.57,354.14h8.25V334.86h-8.25v19.28Z" transform="translate(-228.29 -155.16)" style="fill: none;stroke: #231f20;stroke-miterlimit: 10"/>
      <path d="M543.82,353.54h7.91V334.38h-7.91v19.16Z" transform="translate(-228.29 -155.16)" style="fill: none;stroke: #231f20;stroke-miterlimit: 10"/>
      <path d="M511.87,334.32v19.24h7.72V334.32h-7.72Z" transform="translate(-228.29 -155.16)" style="fill: none;stroke: #231f20;stroke-miterlimit: 10"/>
      <path d="M450.76,451.37l1.61-.1,1.06-19.18V417l-2.71-8.21-1.57.22c0,2.38-.17,4.78,0,7.15,0.49,5.69-1.34,11.41.28,17.09,0.09,0.31-.58.78-0.66,1.22-0.17.89-.55,2-0.21,2.7,1.69,3.48,1.57,6.7-.83,9.8Z" transform="translate(-228.29 -155.16)" style="fill: none;stroke: #231f20;stroke-miterlimit: 10"/>
      <path d="M493.7,227.15l0.48-7.17,3,5,2.19-4.78,2.31,4.69,2.14-3.7,1.24,0.08c0.15,2,.87,4.21.21,5.88-0.33.84-3.2,0.93-4.91,0.89a55.08,55.08,0,0,1-6.66-.88v0.1l-0.11-.11c-0.26,2.51.11,4.29,1.2,5.34s2.46,1.29,4.58,1.1l0.94-.11a3.07,3.07,0,0,1,.62,0h0c1.43,0.09,3,1,4.47,1.53l-0.07-.11c0.67-.93,1.94-1.87,1.92-2.79-0.08-4.71-.49-9.41-0.78-14H491.55l2.11,9.1h0Z" transform="translate(-228.29 -155.16)" style="fill: none;stroke: #231f20;stroke-miterlimit: 10"/>
      <path d="M500.92,233.44h0Z" transform="translate(-228.29 -155.16)" style="fill: none;stroke: #231f20;stroke-miterlimit: 10"/>
      <path d="M505.42,235h0l-0.05-.09,0.15,0.12-0.16-.13c0.66-.95,1.92-1.89,1.9-2.81,0,0.92-1.25,1.86-1.92,2.79Z" transform="translate(-228.29 -155.16)" style="fill: none;stroke: #231f20;stroke-miterlimit: 10"/>
      <path d="M494.77,232.48c1,0.92,2.46,1.29,4.58,1.1C497.24,233.76,495.73,233.4,494.77,232.48Z" transform="translate(-228.29 -155.16)" style="fill: none;stroke: #231f20;stroke-miterlimit: 10"/>
      <path d="M505.44,235l0.09,0-0.15-.12Z" transform="translate(-228.29 -155.16)" style="fill: none;stroke: #231f20;stroke-miterlimit: 10"/>
      <path d="M356.5,210.51a22.66,22.66,0,0,0,2.39-.45c-0.06-6,1.46-12.09-4.05-16.49l-3.49.11c-0.87,3-2.22,5.89-2.51,8.92C348,210.86,348.44,211.15,356.5,210.51Z" transform="translate(-228.29 -155.16)" style="fill: none;stroke: #231f20;stroke-miterlimit: 10"/>
      <path d="M329.66,362.61H321.8c-2.45,7,.79,12.51,3.25,18.15l4.61,3.83v-22Z" transform="translate(-228.29 -155.16)" style="fill: none;stroke: #231f20;stroke-miterlimit: 10"/>
      <path d="M325.08,380.83l0-.06-0.09-.08Z" transform="translate(-228.29 -155.16)" style="fill: none;stroke: #231f20;stroke-miterlimit: 10"/>
      <path d="M329.66,384.6L325,380.77h0Z" transform="translate(-228.29 -155.16)" style="fill: none;stroke: #231f20;stroke-miterlimit: 10"/>
      <polygon points="96.61 225.5 96.62 225.5 96.62 225.5 96.61 225.5" style="fill: none;stroke: #231f20;stroke-miterlimit: 10"/>
      <path d="M324.91,380.66h0l0.16,0.17-0.12-.14Z" transform="translate(-228.29 -155.16)" style="fill: none;stroke: #231f20;stroke-miterlimit: 10"/>
      <path d="M568.23,310.89l10.92,0.48c-2.39-7.61.65-15.63-5-20.66-1,.76-1.76,1.75-2.41,1.7-3.5-.24-4,1.16-3.6,4.44C568.62,301.31,568.23,305.88,568.23,310.89Zm7.28-14.28L575,298l-3.43-.2-0.49.91L575,301.4l-4.29,3L570,294Z" transform="translate(-228.29 -155.16)" style="fill: none;stroke: #231f20;stroke-miterlimit: 10"/>
      <path d="M526.77,383.23l0,0h0S526.77,383.24,526.77,383.23Z" transform="translate(-228.29 -155.16)" style="fill: none;stroke: #231f20;stroke-miterlimit: 10"/>
      <path d="M527,379.63c4.59-5.25,4.85-11.21,3.57-17.52h-7.69v21.58l3.82-.43C526.82,382,526.41,380.36,527,379.63Z" transform="translate(-228.29 -155.16)" style="fill: none;stroke: #231f20;stroke-miterlimit: 10"/>
      <path d="M527,379.63c-0.64.74-.23,2.4-0.31,3.63h0l0,0C526.81,382,526.41,380.36,527,379.63Z" transform="translate(-228.29 -155.16)" style="fill: none;stroke: #231f20;stroke-miterlimit: 10"/>
      <path d="M507,299.47c-2.34-1.83-8.87-1.9-10.55,0-2.12,2.35-1.17,7.46-1.58,11.71h15.06l0-.06C508.94,306.3,509.26,301.24,507,299.47Zm-6.67,9.63c-0.27-.22-2-0.93-2.28-2a7.37,7.37,0,0,1,.65-5.19c0.54-.84,2.8-0.58,3.78-0.74Z" transform="translate(-228.29 -155.16)" style="fill: none;stroke: #231f20;stroke-miterlimit: 10"/>
      <path d="M490.52,324c-11.38-.27-22.77-0.11-34.15-0.11l-0.88,1.65c0.9,1.09,1.81,3.11,2.69,3.1,4.26,0,9.23,2.2,12.19-3.6l2.43,3.68c1.54-5.31,3.2-2.77,4.81-.35,2.51-3.84,6.41-3.89,9.12-.14l2.87-3,2.84,4.25C494.83,325.94,493.15,324.07,490.52,324Z" transform="translate(-228.29 -155.16)" style="fill: none;stroke: #231f20;stroke-miterlimit: 10"/>
      <path d="M510,311.15h-0.06l-1.28,1.65,1.65,1.36c8.34-10.47,16.75-20.89,24.91-31.5,1.08-1.4.88-3.79,1.25-5.57l-26.47,34v0.06Z" transform="translate(-228.29 -155.16)" style="fill: none;stroke: #231f20;stroke-miterlimit: 10"/>
      <path d="M510,311.09l0,0.06H510v-0.06Z" transform="translate(-228.29 -155.16)" style="fill: none;stroke: #231f20;stroke-miterlimit: 10"/>
      <path d="M358.08,329.56l0,0,5.93-3.65,1.23,1.69,6.72-2c-0.62-.57-1.22-1.61-1.86-1.64-7.24-.29-14.49-0.52-21.74-0.51a4.11,4.11,0,0,0-3,2.13c-0.27.59,1.13,2.78,1.68,2.74,1.32-.09,2.58-1.06,3.47-1.49l7.24,2.74Z" transform="translate(-228.29 -155.16)" style="fill: none;stroke: #231f20;stroke-miterlimit: 10"/>
      <path d="M357.8,329.59l0.19,0.07,0.1-.1Z" transform="translate(-228.29 -155.16)" style="fill: none;stroke: #231f20;stroke-miterlimit: 10"/>
      <path d="M358,329.66l0.13-.08,0,0Z" transform="translate(-228.29 -155.16)" style="fill: none;stroke: #231f20;stroke-miterlimit: 10"/>
      <polygon points="129.69 174.5 129.69 174.5 129.79 174.4 129.69 174.5" style="fill: none;stroke: #231f20;stroke-miterlimit: 10"/>
      <path d="M487,356.11a40.84,40.84,0,0,0-6.94-.2l7.65,1c-3.41,2.19-14.94,2-18.31,0h0l-4.09.53-4.14.54v11l6.51-.42v-8.86h22.83l0.59-1.17C489.74,357.65,488.47,356.39,487,356.11Z" transform="translate(-228.29 -155.16)" style="fill: none;stroke: #231f20;stroke-miterlimit: 10"/>
      <path d="M469.41,356.89h0l-4.09.53,4.09-.53h0Z" transform="translate(-228.29 -155.16)" style="fill: none;stroke: #231f20;stroke-miterlimit: 10"/>
      <path d="M270.23,395.63l0.09,1.57c5.1,0,10.22.19,15.3-.11a6,6,0,0,0,4.33-2.44c0.63-1.11-.29-3.1-0.44-4.08l-18.9,1.21,0,2.09,7.7,0.58v0.61Z" transform="translate(-228.29 -155.16)" style="fill: none;stroke: #231f20;stroke-miterlimit: 10"/>
      <path d="M399,294.28h12.66L399,281.23v13.06Z" transform="translate(-228.29 -155.16)" style="fill: none;stroke: #231f20;stroke-miterlimit: 10"/>
      <path d="M398.56,252.19l13.49-12.94c-3.84,0-9.57-1.65-11.94.46s-1.34,8-1.77,12.22C398.33,252.13,398.72,252.36,398.56,252.19Z" transform="translate(-228.29 -155.16)" style="fill: none;stroke: #231f20;stroke-miterlimit: 10"/>
      <path d="M290.62,311.82c8.66-9.79,17.31-19.59,25.85-29.49,0.32-.38-0.52-1.76-0.89-2.9l-27.2,32.29,0.94,0.71A3.86,3.86,0,0,0,290.62,311.82Z" transform="translate(-228.29 -155.16)" style="fill: none;stroke: #231f20;stroke-miterlimit: 10"/>
      <path d="M454.64,239.33H441.34l13.29,12.52V239.33Z" transform="translate(-228.29 -155.16)" style="fill: none;stroke: #231f20;stroke-miterlimit: 10"/>
      <path d="M441.2,294.2h13.74V280.44c-2.27,2.79-4.08,5.4-6.28,7.61S443.85,292,441.2,294.2Z" transform="translate(-228.29 -155.16)" style="fill: none;stroke: #231f20;stroke-miterlimit: 10"/>
      <path d="M385.36,310.1v-7.46H375.31v7.46h10.06Z" transform="translate(-228.29 -155.16)" style="fill: none;stroke: #231f20;stroke-miterlimit: 10"/>
      <path d="M372.63,309.63v-7H362.41C362,311.28,362.92,311.83,372.63,309.63Z" transform="translate(-228.29 -155.16)" style="fill: none;stroke: #231f20;stroke-miterlimit: 10"/>
      <path d="M477.7,309.7v-7.2h-8.87C467.84,310.92,468.49,311.42,477.7,309.7Z" transform="translate(-228.29 -155.16)" style="fill: none;stroke: #231f20;stroke-miterlimit: 10"/>
      <path d="M489.63,310.12V302.8h-9.12v7.32h9.12Z" transform="translate(-228.29 -155.16)" style="fill: none;stroke: #231f20;stroke-miterlimit: 10"/>
      <path d="M428,175.31l2.23-5h1.56l1.59,7.08,3.07-1.79,2.25,6.56,1-.66,3.67-2.32h0l-14.32-13.59-2.24.09Z" transform="translate(-228.29 -155.16)" style="fill: none;stroke: #231f20;stroke-miterlimit: 10"/>
      <path d="M439.79,181.48l3.67-2.32h0Z" transform="translate(-228.29 -155.16)" style="fill: none;stroke: #231f20;stroke-miterlimit: 10"/>
      <polygon points="215.17 24 215.17 24 215.17 24 215.17 24" style="fill: none;stroke: #231f20;stroke-miterlimit: 10"/>
      <path d="M428,175.31l2.23-5-2.23,5h0Z" transform="translate(-228.29 -155.16)" style="fill: none;stroke: #231f20;stroke-miterlimit: 10"/>
      <path d="M443.46,188.61l2.76-3.8,1.33,0,1.54,9.23,2-4.22,1.38-.12,2.07,7.73c2.87-3.39,2.17-6-1.12-8.72-3.54-2.91-6.68-6.31-10-9.49,0,1.44,0,2.87,0,4.41v5Z" transform="translate(-228.29 -155.16)" style="fill: none;stroke: #231f20;stroke-miterlimit: 10"/>
      <circle cx="443.46" cy="179.15" transform="translate(-143.39 340.52) rotate(-63.43)" style="fill: none;stroke: #231f20;stroke-miterlimit: 10"/>
      <rect x="215.17" y="24" style="fill: none;stroke: #231f20;stroke-miterlimit: 10"/>
      <polygon points="215.17 24 215.16 24 215.17 24 215.17 24" style="fill: none;stroke: #231f20;stroke-miterlimit: 10"/>
      <polygon points="215.16 24 215.17 24.01 215.17 24 215.16 24" style="fill: none;stroke: #231f20;stroke-miterlimit: 10"/>
      <polygon points="215.17 24.01 215.17 24.01 215.17 24 215.17 24 215.17 24.01" style="fill: none;stroke: #231f20;stroke-miterlimit: 10"/>
      <polygon points="215.17 24 215.17 24 215.16 24 215.16 24 215.17 24 215.17 24" style="fill: none;stroke: #231f20;stroke-miterlimit: 10"/>
      <polygon points="215.17 24 215.16 24 215.16 24 215.17 24" style="fill: none;stroke: #231f20;stroke-miterlimit: 10"/>
      <circle cx="443.46" cy="179.15" transform="translate(-225.09 210.89) rotate(-45)" style="fill: none;stroke: #231f20;stroke-miterlimit: 10"/>
      <path d="M536.13,399c1.75,1.06,4.36,1.34,5.39,2.81,2.47,3.49,4.23,7.49,6.5,11.7,2.18-4.05,0-6.64-1.84-9.29-2.5-5.23-7.37-8.32-11.95-7.58A8.88,8.88,0,0,0,536.13,399Z" transform="translate(-228.29 -155.16)" style="fill: none;stroke: #231f20;stroke-miterlimit: 10"/>
      <path d="M460.38,472.64a30.12,30.12,0,0,0,3.69.41c6,0,12.08.05,18.09-.33,4.42-.28,8.8-1.21,13.2-1.86H460.42Z" transform="translate(-228.29 -155.16)" style="fill: none;stroke: #231f20;stroke-miterlimit: 10"/>
      <path d="M495.48,470.86h0v0l-0.12,0h0.12Z" transform="translate(-228.29 -155.16)" style="fill: none;stroke: #231f20;stroke-miterlimit: 10"/>
      <path d="M460.42,470.86h0Z" transform="translate(-228.29 -155.16)" style="fill: none;stroke: #231f20;stroke-miterlimit: 10"/>
      <polygon points="267.19 315.7 267.18 315.69 267.19 315.7 267.19 315.7" style="fill: none;stroke: #231f20;stroke-miterlimit: 10"/>
      <path d="M266.6,475.84h33.85l0-.81H266.6v0.81Z" transform="translate(-228.29 -155.16)" style="fill: none;stroke: #231f20;stroke-miterlimit: 10"/>
      <path d="M438.15,310.09c8.42-.38,8.42-0.38,6.65-7.7h-6.65v7.7Z" transform="translate(-228.29 -155.16)" style="fill: none;stroke: #231f20;stroke-miterlimit: 10"/>
      <path d="M406,309.69v-7.41l-7.37.35C398.59,310.76,398.59,310.76,406,309.69Z" transform="translate(-228.29 -155.16)" style="fill: none;stroke: #231f20;stroke-miterlimit: 10"/>
      <path d="M415.83,310v-7.58h-7V310h7Z" transform="translate(-228.29 -155.16)" style="fill: none;stroke: #231f20;stroke-miterlimit: 10"/>
      <path d="M464.67,208.5l2.44-3.87,1.3-.08,1.9,7.95c2.68-5.39,1.42-8.57-5.42-13.34-1.16-.81-2.73-1-4.12-1.54l-1.24,1.68C466.61,199.45,463.37,204.73,464.67,208.5Z" transform="translate(-228.29 -155.16)" style="fill: none;stroke: #231f20;stroke-miterlimit: 10"/>
      <path d="M447.57,302.57l0.38,7.32h7.69L455,302.57h-7.43Z" transform="translate(-228.29 -155.16)" style="fill: none;stroke: #231f20;stroke-miterlimit: 10"/>
      <path d="M572.39,326.05l7.4,3c-0.92-6.29-4-7.34-12.75-5.11l2.14,4.3Z" transform="translate(-228.29 -155.16)" style="fill: none;stroke: #231f20;stroke-miterlimit: 10"/>
      <path d="M491.35,264.23h0.73V237.58h-0.73v26.65Z" transform="translate(-228.29 -155.16)" style="fill: none;stroke: #231f20;stroke-miterlimit: 10"/>
      <path d="M339.92,403l-1.14-.13v21.25l1.14,0V403Z" transform="translate(-228.29 -155.16)" style="fill: none;stroke: #231f20;stroke-miterlimit: 10"/>
      <path d="M338.53,449l1,0V427.34l-1,0V449Z" transform="translate(-228.29 -155.16)" style="fill: none;stroke: #231f20;stroke-miterlimit: 10"/>
      <path d="M563.83,447.28h0.84v-21h-0.84v21.05Z" transform="translate(-228.29 -155.16)" style="fill: none;stroke: #231f20;stroke-miterlimit: 10"/>
      <path d="M514.45,426.88l-0.8,0v21.19l0.8,0V426.88Z" transform="translate(-228.29 -155.16)" style="fill: none;stroke: #231f20;stroke-miterlimit: 10"/>
      <path d="M485.83,225c-0.28-1.62,4.93-3.31.41-5.38-2.12-1-3.6-3.36-5.88-5.61v9.55l3.73-4.68Z" transform="translate(-228.29 -155.16)" style="fill: none;stroke: #231f20;stroke-miterlimit: 10"/>
      <path d="M485.83,225a0.76,0.76,0,0,0,0,.16Z" transform="translate(-228.29 -155.16)" style="fill: none;stroke: #231f20;stroke-miterlimit: 10"/>
      <path d="M365,475.28l0,0.66h19.39l0-.66H365Z" transform="translate(-228.29 -155.16)" style="fill: none;stroke: #231f20;stroke-miterlimit: 10"/>
      <path d="M487.71,356.89l-7.65-1-10.66,1C472.78,358.9,484.3,359.07,487.71,356.89Z" transform="translate(-228.29 -155.16)" style="fill: none;stroke: #231f20;stroke-miterlimit: 10"/>
      <path d="M480.06,355.91l-10.66,1h0Z" transform="translate(-228.29 -155.16)" style="fill: none;stroke: #231f20;stroke-miterlimit: 10"/>
      <path d="M514,402.21l-0.85.06v21.25l0.85-.15V402.21Z" transform="translate(-228.29 -155.16)" style="fill: none;stroke: #231f20;stroke-miterlimit: 10"/>
      <path d="M491.91,295.75l0.59,0V269l-0.59.06v26.66Z" transform="translate(-228.29 -155.16)" style="fill: none;stroke: #231f20;stroke-miterlimit: 10"/>
      <path d="M345.72,223.08l0.35,1.15L346.9,227a24.41,24.41,0,0,1,0-4.28c0.07-.46,1.34-0.74,2.06-1.11l3.35-1.52,0.14-.24,0.05,0.15,1-.47,5.29-.89-0.16-.58H344.2l0.79,2.61Z" transform="translate(-228.29 -155.16)" style="fill: none;stroke: #231f20;stroke-miterlimit: 10"/>
      <path d="M359.17,191.74l-0.64-5.84-2.67,5.66-2.52-4.23-4.28,3.33,2.28,3,3.49-.11Z" transform="translate(-228.29 -155.16)" style="fill: none;stroke: #231f20;stroke-miterlimit: 10"/>
      <path d="M290.58,321.86h22.28v-0.93H290.47Z" transform="translate(-228.29 -155.16)" style="fill: none;stroke: #231f20;stroke-miterlimit: 10"/>
      <path d="M384.61,268.09l-0.05-1.42-21.38,1.42h21.43Z" transform="translate(-228.29 -155.16)" style="fill: none;stroke: #231f20;stroke-miterlimit: 10"/>
      <path d="M361.48,268.2h0Z" transform="translate(-228.29 -155.16)" style="fill: none;stroke: #231f20;stroke-miterlimit: 10"/>
      <path d="M362.91,268.11q10.87,0,21.7,0H363.19Z" transform="translate(-228.29 -155.16)" style="fill: none;stroke: #231f20;stroke-miterlimit: 10"/>
      <path d="M362.91,268.11h-1.38v0.09Z" transform="translate(-228.29 -155.16)" style="fill: none;stroke: #231f20;stroke-miterlimit: 10"/>
      <path d="M361.52,268.2v-0.09h0l0,0v0.07h0Z" transform="translate(-228.29 -155.16)" style="fill: none;stroke: #231f20;stroke-miterlimit: 10"/>
      <path d="M361.52,268.2h0l1.39-.09h0Z" transform="translate(-228.29 -155.16)" style="fill: none;stroke: #231f20;stroke-miterlimit: 10"/>
      <path d="M361.41,268.21h0Z" transform="translate(-228.29 -155.16)" style="fill: none;stroke: #231f20;stroke-miterlimit: 10"/>
      <path d="M361.48,268.2v-0.07l-0.07.08h0.07Z" transform="translate(-228.29 -155.16)" style="fill: none;stroke: #231f20;stroke-miterlimit: 10"/>
      <path d="M289.13,427.39l-1.16,0V448.7h1.16v-21.3Z" transform="translate(-228.29 -155.16)" style="fill: none;stroke: #231f20;stroke-miterlimit: 10"/>
      <path d="M282.51,290.3h0c0.69-.33,1.63-0.61,2.42-0.92a2.29,2.29,0,0,0,1.53-1.11c0.91-4.33,1.36-8.83-3.82-11.68l2.78,7.34-2.91,6.38h0Z" transform="translate(-228.29 -155.16)" style="fill: none;stroke: #231f20;stroke-miterlimit: 10"/>
      <path d="M282.51,290.3c0.69-.33,1.63-0.61,2.42-0.92-0.79.31-1.73,0.59-2.42,0.92h0Z" transform="translate(-228.29 -155.16)" style="fill: none;stroke: #231f20;stroke-miterlimit: 10"/>
      <path d="M566.93,355.1l-1.45-26.15v26.19Z" transform="translate(-228.29 -155.16)" style="fill: none;stroke: #231f20;stroke-miterlimit: 10"/>
      <path d="M565.47,328.94v-0.1h0v0.09Z" transform="translate(-228.29 -155.16)" style="fill: none;stroke: #231f20;stroke-miterlimit: 10"/>
      <polygon points="337.18 173.69 337.18 173.69 337.18 173.69 337.18 173.69" style="fill: none;stroke: #231f20;stroke-miterlimit: 10"/>
      <path d="M494,362.28l-0.55,0v26.39l0.55,0V362.28Z" transform="translate(-228.29 -155.16)" style="fill: none;stroke: #231f20;stroke-miterlimit: 10"/>
      <path d="M566.83,388.1V361.73l-0.81,0v26.42Z" transform="translate(-228.29 -155.16)" style="fill: none;stroke: #231f20;stroke-miterlimit: 10"/>
      <path d="M570.2,470.22v1h15.63l0-1H570.2Z" transform="translate(-228.29 -155.16)" style="fill: none;stroke: #231f20;stroke-miterlimit: 10"/>
      <path d="M493.51,332.27l-0.66,0v22.82l0.66-.12V332.27Z" transform="translate(-228.29 -155.16)" style="fill: none;stroke: #231f20;stroke-miterlimit: 10"/>
      <path d="M343.56,346.84q0-8,0-16.06,0-1,0-1.93h0Q343.55,337.85,343.56,346.84Z" transform="translate(-228.29 -155.16)" style="fill: none;stroke: #231f20;stroke-miterlimit: 10"/>
      <path d="M343.56,355.83q0-12.53,0-25,0,8,0,16.06Q343.56,351.34,343.56,355.83Z" transform="translate(-228.29 -155.16)" style="fill: none;stroke: #231f20;stroke-miterlimit: 10"/>
      <polygon points="115.27 173.7 115.27 173.7 115.27 173.7 115.27 173.7" style="fill: none;stroke: #231f20;stroke-miterlimit: 10"/>
      <path d="M507.93,320H495.38l0.06,0.95h12.51Z" transform="translate(-228.29 -155.16)" style="fill: none;stroke: #231f20;stroke-miterlimit: 10"/>
      <path d="M509.58,359.06h0Z" transform="translate(-228.29 -155.16)" style="fill: none;stroke: #231f20;stroke-miterlimit: 10"/>
      <path d="M532.1,359.06v-0.14H509.58v0.14H532.1Z" transform="translate(-228.29 -155.16)" style="fill: none;stroke: #231f20;stroke-miterlimit: 10"/>
      <polygon points="281.29 203.91 281.29 203.91 281.28 203.91 281.28 203.91 281.29 203.91" style="fill: none;stroke: #231f20;stroke-miterlimit: 10"/>
      <path d="M509.58,358.92a1.1,1.1,0,0,1,0,.14h0v-0.14Z" transform="translate(-228.29 -155.16)" style="fill: none;stroke: #231f20;stroke-miterlimit: 10"/>
      <path d="M437.17,388.9l-2.23,2.36,4.68,1.62,0.41-5.45-2.75-1.71-1.12-.7-0.81-.51C435.9,385.88,436.48,387.26,437.17,388.9Z" transform="translate(-228.29 -155.16)" style="fill: none;stroke: #231f20;stroke-miterlimit: 10"/>
      <path d="M436.15,385l-0.81-.51h0Z" transform="translate(-228.29 -155.16)" style="fill: none;stroke: #231f20;stroke-miterlimit: 10"/>
      <path d="M435.33,384.5h0l-0.12-.29h0Z" transform="translate(-228.29 -155.16)" style="fill: none;stroke: #231f20;stroke-miterlimit: 10"/>
      <path d="M435.1,384.36h0l0.23,0.14-0.12-.28h0l-0.1.11v0Z" transform="translate(-228.29 -155.16)" style="fill: none;stroke: #231f20;stroke-miterlimit: 10"/>
      <polygon points="206.8 229.2 206.8 229.2 206.8 229.2 206.8 229.2 206.8 229.2 206.8 229.2" style="fill: none;stroke: #231f20;stroke-miterlimit: 10"/>
      <path d="M436.15,385l1.12,0.7Z" transform="translate(-228.29 -155.16)" style="fill: none;stroke: #231f20;stroke-miterlimit: 10"/>
      <path d="M435.11,384.34h0v0Z" transform="translate(-228.29 -155.16)" style="fill: none;stroke: #231f20;stroke-miterlimit: 10"/>
      <circle cx="206.8" cy="229.2" style="fill: none;stroke: #231f20;stroke-miterlimit: 10"/>
      <path d="M468.63,268.22c6.37,0.12,12.75.06,19.12,0.06V267H465.68A8.2,8.2,0,0,0,468.63,268.22Z" transform="translate(-228.29 -155.16)" style="fill: none;stroke: #231f20;stroke-miterlimit: 10"/>
      <path d="M465.68,267h0Z" transform="translate(-228.29 -155.16)" style="fill: none;stroke: #231f20;stroke-miterlimit: 10"/>
      <path d="M465.65,267h0l-0.16-.08,0,0h0Z" transform="translate(-228.29 -155.16)" style="fill: none;stroke: #231f20;stroke-miterlimit: 10"/>
      <path d="M465.56,267h0Z" transform="translate(-228.29 -155.16)" style="fill: none;stroke: #231f20;stroke-miterlimit: 10"/>
      <path d="M465.56,267h0.09l-0.12-.06h0l0,0h0Z" transform="translate(-228.29 -155.16)" style="fill: none;stroke: #231f20;stroke-miterlimit: 10"/>
      <path d="M336.45,462.62h52.62v-4.8h-53.2Z" transform="translate(-228.29 -155.16)" style="fill: none;stroke: #231f20;stroke-miterlimit: 10"/>
      <path d="M420.47,404.6l-0.24.36h15.5l-0.19-1.87-5.38.89,0.29-.46-9.9-1.23-0.14,1,4.84,0.51-0.06.83h-4.72Z" transform="translate(-228.29 -155.16)" style="fill: none;stroke: #231f20;stroke-miterlimit: 10"/>
      <path d="M528.64,417.38c6.18,2.27,12.1-1,18.15-1.57H528.65v1.57Z" transform="translate(-228.29 -155.16)" style="fill: none;stroke: #231f20;stroke-miterlimit: 10"/>
      <path d="M389,427.11h-0.5v24.55l0.5-.11V427.11Z" transform="translate(-228.29 -155.16)" style="fill: none;stroke: #231f20;stroke-miterlimit: 10"/>
      <path d="M541.26,410l-7.81-5.45-0.78,1,1.88,5.2Z" transform="translate(-228.29 -155.16)" style="fill: none;stroke: #231f20;stroke-miterlimit: 10"/>
      <path d="M529.48,413.47l1.58-9.85C525.33,406.62,528.46,410.21,529.48,413.47Z" transform="translate(-228.29 -155.16)" style="fill: none;stroke: #231f20;stroke-miterlimit: 10"/>
      <path d="M408.73,396.26l1.77-14.43,3.07,5.24c5.22-4.45-3.58-6.05-2.25-10.16a19.77,19.77,0,0,0-3.72,6.11c-0.37,1,.52,2.8,0,3.3C404.08,389.55,405.77,392.28,408.73,396.26Z" transform="translate(-228.29 -155.16)" style="fill: none;stroke: #231f20;stroke-miterlimit: 10"/>
      <path d="M387,209.59h0l0,0c0.59-.33,1.21-0.62,1.81-0.94a7.81,7.81,0,0,0,1.73-1.16c10.75-10,21.39-20.22,32.23-30.17,1.21-1.11,3.41-1.15,5.19-1.65l-0.07-.1h0l0.13-.3-1.15-9.66c-6.16.34-1,5.91-3.73,8l-2.47-3.55-1.23.16-1.39,8.46-2.35-3.88-1.46.07-1.34,8.42-3.44-4.89-1.94,9.34-2-3.95-1.87,1-1,7.87-3.81-4.4-1.33,9.57-3.67-4.32-1.52,9.53-3-3.63-1.32.23-1,9.72Z" transform="translate(-228.29 -155.16)" style="fill: none;stroke: #231f20;stroke-miterlimit: 10"/>
      <polygon points="199.61 20.45 199.78 20.52 199.61 20.45 199.61 20.45" style="fill: none;stroke: #231f20;stroke-miterlimit: 10"/>
      <path d="M427.9,175.61h0l0.13-.3h0Z" transform="translate(-228.29 -155.16)" style="fill: none;stroke: #231f20;stroke-miterlimit: 10"/>
      <path d="M387,209.62l0,0h0l0,0h0Z" transform="translate(-228.29 -155.16)" style="fill: none;stroke: #231f20;stroke-miterlimit: 10"/>
      <path d="M427.9,175.61l0.07,0.1h0l-0.07-.1h0Z" transform="translate(-228.29 -155.16)" style="fill: none;stroke: #231f20;stroke-miterlimit: 10"/>
      <path d="M428,175.7l0.11,0-0.17-.07Z" transform="translate(-228.29 -155.16)" style="fill: none;stroke: #231f20;stroke-miterlimit: 10"/>
      <path d="M388,199.69l-1,9.72h0Z" transform="translate(-228.29 -155.16)" style="fill: none;stroke: #231f20;stroke-miterlimit: 10"/>
      <polygon points="199.61 20.45 199.61 20.45 199.61 20.45 199.61 20.45" style="fill: none;stroke: #231f20;stroke-miterlimit: 10"/>
      <path d="M427.9,175.61l0.17,0.07,0-.36-0.13.3h0Z" transform="translate(-228.29 -155.16)" style="fill: none;stroke: #231f20;stroke-miterlimit: 10"/>
      <path d="M426.52,191.46L422,198.74H412c3.83,5.07,6.66,9.6,1.23,14.58,3.38,0.54,6.17.31,8.09,1.49s2.91,3.76,4.9,6.57c1.86-6.82,6.54-8.31,13-7.74-5.29-5.31-3.92-10.1,1-15.79C433,199.82,428.7,197.77,426.52,191.46Zm6.13,15.23c-1.67,2.49-4.43,5.78-6.77,5.82-2.12,0-4.3-3.84-7.68-7.2,3.46-2.47,5.44-4.55,7.85-5.4C428.12,199.18,433.73,205.09,432.66,206.69Z" transform="translate(-228.29 -155.16)" style="fill: none;stroke: #231f20;stroke-miterlimit: 10"/>
      <path d="M450.43,224.81H469.3l0.68-1.29-23.32-21.85c-0.78,4.91-.71,9.23-2.25,12.89s-4.64,6.54-7.42,10.25h13.44Zm-0.84-17.68,11.49,15H443.48Z" transform="translate(-228.29 -155.16)" style="fill: none;stroke: #231f20;stroke-miterlimit: 10"/>
      <path d="M405.53,201.55l-23.8,22.75H415.5C405.46,213.08,405.43,213,405.53,201.55Zm2.9,20.54H387l15.17-14.4Z" transform="translate(-228.29 -155.16)" style="fill: none;stroke: #231f20;stroke-miterlimit: 10"/>
      <path d="M377.09,219.6l-0.15.09c0-.1,0-0.2,0-0.3l-3.23-4.92h-1.31l-1.37,9-2.51-4-1.63.07L366,229.16l11.13-9.57h0Z" transform="translate(-228.29 -155.16)" style="fill: none;stroke: #231f20;stroke-miterlimit: 10"/>
      <polygon points="148.81 64.44 148.81 64.44 148.8 64.44 148.81 64.44" style="fill: none;stroke: #231f20;stroke-miterlimit: 10"/>
      <path d="M377.09,219.6l-0.15.09Z" transform="translate(-228.29 -155.16)" style="fill: none;stroke: #231f20;stroke-miterlimit: 10"/>
      <path d="M376.94,219.68l0.13-.13h0Z" transform="translate(-228.29 -155.16)" style="fill: none;stroke: #231f20;stroke-miterlimit: 10"/>
      <path d="M377.09,219.6h0l0,0-0.13.13Z" transform="translate(-228.29 -155.16)" style="fill: none;stroke: #231f20;stroke-miterlimit: 10"/>
      <path d="M347.08,227.58h0l-0.05.1a26.84,26.84,0,0,0,4.31.79,7.49,7.49,0,0,0,1,0,4.49,4.49,0,0,0,.84-0.13,3.36,3.36,0,0,0,.71-0.27,3.43,3.43,0,0,0,.54-0.36,4.24,4.24,0,0,0,.36-0.32l0.28-.3h0L352.54,220l-0.19.09-2.86,5.06L349,221.61c-0.72.36-2,.65-2.06,1.11a24.41,24.41,0,0,0,0,4.28l0.17,0.57h0Z" transform="translate(-228.29 -155.16)" style="fill: none;stroke: #231f20;stroke-miterlimit: 10"/>
      <path d="M347.08,227.58h0l-0.05.1h0Z" transform="translate(-228.29 -155.16)" style="fill: none;stroke: #231f20;stroke-miterlimit: 10"/>
      <path d="M353.88,228.06a3.36,3.36,0,0,1-.71.27A3.36,3.36,0,0,0,353.88,228.06Z" transform="translate(-228.29 -155.16)" style="fill: none;stroke: #231f20;stroke-miterlimit: 10"/>
      <polygon points="118.78 72.42 118.78 72.42 118.78 72.42 118.78 72.42" style="fill: none;stroke: #231f20;stroke-miterlimit: 10"/>
      <path d="M354.42,227.7a3.43,3.43,0,0,1-.54.36A3.43,3.43,0,0,0,354.42,227.7Z" transform="translate(-228.29 -155.16)" style="fill: none;stroke: #231f20;stroke-miterlimit: 10"/>
      <path d="M354.78,227.38l0.28-.3h0Z" transform="translate(-228.29 -155.16)" style="fill: none;stroke: #231f20;stroke-miterlimit: 10"/>
      <path d="M347.08,227.58l-0.15.07,0.1,0,0.05-.1h0Z" transform="translate(-228.29 -155.16)" style="fill: none;stroke: #231f20;stroke-miterlimit: 10"/>
      <path d="M347.08,227.58L346.9,227h0l0.17,0.57h0Z" transform="translate(-228.29 -155.16)" style="fill: none;stroke: #231f20;stroke-miterlimit: 10"/>
      <path d="M346.9,227c0,0.22,0,.43,0,0.65l0.15-.07Z" transform="translate(-228.29 -155.16)" style="fill: none;stroke: #231f20;stroke-miterlimit: 10"/>
      <path d="M352.49,219.84l-0.14.24,0.19-.09Z" transform="translate(-228.29 -155.16)" style="fill: none;stroke: #231f20;stroke-miterlimit: 10"/>
      <path d="M365.05,229.17c0.11-2.87,1.07-6.08-1.24-7l-6.38,3.4,0.55,3.61h7.06Z" transform="translate(-228.29 -155.16)" style="fill: none;stroke: #231f20;stroke-miterlimit: 10"/>
      <path d="M387,209.62l-0.09,0h0l0-.26-2.47-5-2,.23-0.5,9.73,0.12,0.22Z" transform="translate(-228.29 -155.16)" style="fill: none;stroke: #231f20;stroke-miterlimit: 10"/>
      <polygon points="158.63 54.52 158.63 54.52 158.63 54.52 158.63 54.52" style="fill: none;stroke: #231f20;stroke-miterlimit: 10"/>
      <path d="M386.93,209.67h0l0.09,0h0Z" transform="translate(-228.29 -155.16)" style="fill: none;stroke: #231f20;stroke-miterlimit: 10"/>
      <polygon points="158.63 54.52 158.63 54.52 158.63 54.52 158.63 54.52" style="fill: none;stroke: #231f20;stroke-miterlimit: 10"/>
      <path d="M386.93,209.67l0-.26h0l0,0.26h0Z" transform="translate(-228.29 -155.16)" style="fill: none;stroke: #231f20;stroke-miterlimit: 10"/>
      <polygon points="158.63 54.52 158.75 54.44 158.75 54.44 158.63 54.52 158.63 54.52" style="fill: none;stroke: #231f20;stroke-miterlimit: 10"/>
      <path d="M387,209.62l0,0-0.12.08Z" transform="translate(-228.29 -155.16)" style="fill: none;stroke: #231f20;stroke-miterlimit: 10"/>
      <path d="M387,209.59l-0.09-.19,0,0.26h0Z" transform="translate(-228.29 -155.16)" style="fill: none;stroke: #231f20;stroke-miterlimit: 10"/>
      <path d="M387.81,230.07h21.85v-0.65H387.81Q387.81,229.75,387.81,230.07Z" transform="translate(-228.29 -155.16)" style="fill: none;stroke: #231f20;stroke-miterlimit: 10"/>
      <path d="M420.22,187.59h11.72l-6.23-5.07Z" transform="translate(-228.29 -155.16)" style="fill: none;stroke: #231f20;stroke-miterlimit: 10"/>
      <path d="M382.09,214.58h0l-0.14.09,0-.35L380.71,212l-1.6-3c-3.54,3.3-1.89,7.07-2.15,10.41l0.11,0.17Z" transform="translate(-228.29 -155.16)" style="fill: none;stroke: #231f20;stroke-miterlimit: 10"/>
      <circle cx="153.78" cy="59.39" style="fill: none;stroke: #231f20;stroke-miterlimit: 10"/>
      <path d="M382.09,214.58h0l0,0h0Z" transform="translate(-228.29 -155.16)" style="fill: none;stroke: #231f20;stroke-miterlimit: 10"/>
      <path d="M382.09,214.58h0Z" transform="translate(-228.29 -155.16)" style="fill: none;stroke: #231f20;stroke-miterlimit: 10"/>
      <path d="M382.08,214.59l-0.14.09Z" transform="translate(-228.29 -155.16)" style="fill: none;stroke: #231f20;stroke-miterlimit: 10"/>
      <path d="M382,214.33L380.71,212l1.24,2.33h0Z" transform="translate(-228.29 -155.16)" style="fill: none;stroke: #231f20;stroke-miterlimit: 10"/>
      <path d="M382.07,214.55l-0.13.13,0.13-.13h0Z" transform="translate(-228.29 -155.16)" style="fill: none;stroke: #231f20;stroke-miterlimit: 10"/>
      <path d="M381.94,214.68l0.14-.09h0l0,0Z" transform="translate(-228.29 -155.16)" style="fill: none;stroke: #231f20;stroke-miterlimit: 10"/>
      <path d="M377.08,219.55l-0.11-.17c0,0.1,0,.2,0,0.3Z" transform="translate(-228.29 -155.16)" style="fill: none;stroke: #231f20;stroke-miterlimit: 10"/>
      <path d="M382.07,214.55h0l-0.12-.22h0Z" transform="translate(-228.29 -155.16)" style="fill: none;stroke: #231f20;stroke-miterlimit: 10"/>
      <path d="M382,214.33l0,0.35,0.13-.13Z" transform="translate(-228.29 -155.16)" style="fill: none;stroke: #231f20;stroke-miterlimit: 10"/>
      <path d="M363,362.33a4.53,4.53,0,0,0-.91.62v24.45h10.59c0-5.78,0-11.24,0-16.69C372.68,361,372.68,361,363,362.33Z" transform="translate(-228.29 -155.16)" style="fill: none;stroke: #231f20;stroke-miterlimit: 10"/>
      <path d="M375,387.4H385v-25H375v25Z" transform="translate(-228.29 -155.16)" style="fill: none;stroke: #231f20;stroke-miterlimit: 10"/>
      <path d="M362.3,354.2h10.06V334.68H362.3V354.2Z" transform="translate(-228.29 -155.16)" style="fill: none;stroke: #231f20;stroke-miterlimit: 10"/>
      <path d="M385.2,334.92H375.12v19.2H385.2v-19.2Z" transform="translate(-228.29 -155.16)" style="fill: none;stroke: #231f20;stroke-miterlimit: 10"/>
      <path d="M387.36,389.14l1-.09V374.17h-1v15Z" transform="translate(-228.29 -155.16)" style="fill: none;stroke: #231f20;stroke-miterlimit: 10"/>
      <path d="M361.62,319.08c-0.31,0-.62,1.14-0.92,1.86l32.71-1.72C382.8,319,372.21,319,361.62,319.08Z" transform="translate(-228.29 -155.16)" style="fill: none;stroke: #231f20;stroke-miterlimit: 10"/>
      <path d="M360.69,320.94h-0.21l0.18,0.05Z" transform="translate(-228.29 -155.16)" style="fill: none;stroke: #231f20;stroke-miterlimit: 10"/>
      <path d="M360.48,320.95l0,0,0.16,0h0Z" transform="translate(-228.29 -155.16)" style="fill: none;stroke: #231f20;stroke-miterlimit: 10"/>
      <path d="M360.63,321.08l0-.07-0.16,0Z" transform="translate(-228.29 -155.16)" style="fill: none;stroke: #231f20;stroke-miterlimit: 10"/>
      <path d="M314.54,295.56L311,297c0.34,0.45.71,1.3,1,1.27,4.16-.37,2.87,2.69,3,4.73,0.12,2.34,0,4.69,0,7l1.69-.18V298.47l4.31-.78-0.11-1.24-3.75-.4-0.44-5.87-1.18-.05Z" transform="translate(-228.29 -155.16)" style="fill: none;stroke: #231f20;stroke-miterlimit: 10"/>
      <path d="M534.68,295.5L531,297l4.16,2.6,0.55,10.72,1.51,0V299l4.3-1.81-3.83-1.8-1.12-5.77-1.48.14Z" transform="translate(-228.29 -155.16)" style="fill: none;stroke: #231f20;stroke-miterlimit: 10"/>
      <path d="M353.75,272.92c0.27,6.38.16,12.77,0.16,19.16l0,0V270.48l-4.39.27C351.46,271.7,353.72,272.26,353.75,272.92Z" transform="translate(-228.29 -155.16)" style="fill: none;stroke: #231f20;stroke-miterlimit: 10"/>
      <path d="M354.21,244.45c0.32,4.15.1,8.34,0.1,12.51l0.35,0V239.05h-2.75C352.81,241.06,354.08,242.71,354.21,244.45Z" transform="translate(-228.29 -155.16)" style="fill: none;stroke: #231f20;stroke-miterlimit: 10"/>
      <path d="M575.8,362.59l1.87,22.07C577.92,377.21,579.47,369.57,575.8,362.59Z" transform="translate(-228.29 -155.16)" style="fill: none;stroke: #231f20;stroke-miterlimit: 10"/>
      <path d="M502.65,276.15c0.26,4.28-1,8.72.16,12.84C502.37,284.73,503.11,280.35,502.65,276.15Z" transform="translate(-228.29 -155.16)" style="fill: none;stroke: #231f20;stroke-miterlimit: 10"/>
      <path d="M502.65,276.15a12.06,12.06,0,0,0-1.46-5.34A16,16,0,0,1,502.65,276.15Z" transform="translate(-228.29 -155.16)" style="fill: none;stroke: #231f20;stroke-miterlimit: 10"/>
      <path d="M394.87,305.5l-2.66-3.07c-3.51,2.07-4.13,4.48-.95,7.87Z" transform="translate(-228.29 -155.16)" style="fill: none;stroke: #231f20;stroke-miterlimit: 10"/>
      <path d="M572.74,335.28l-0.5,1.39c3.64,1.21,4.9,4.49,3.82,11.82-0.21,1.44-2.3,2.6-4.42,4.83,2.14-1.06,4.84-1.73,4.88-2.54a99,99,0,0,0-.44-14.16C576,336.09,573.9,335.73,572.74,335.28Z" transform="translate(-228.29 -155.16)" style="fill: none;stroke: #231f20;stroke-miterlimit: 10"/>
      <path d="M505.26,227.14c0.66-1.67-.06-3.89-0.21-5.88l-1.24-.08-2.14,3.7-2.31-4.69L497.17,225l-3-5-0.48,7.17a55.08,55.08,0,0,0,6.66.88C502.06,228.08,504.93,228,505.26,227.14Z" transform="translate(-228.29 -155.16)" style="fill: none;stroke: #231f20;stroke-miterlimit: 10"/>
      <path d="M493.69,227.25l-0.11-.11h0Z" transform="translate(-228.29 -155.16)" style="fill: none;stroke: #231f20;stroke-miterlimit: 10"/>
      <path d="M493.7,227.15h0l0,0.1v-0.1Z" transform="translate(-228.29 -155.16)" style="fill: none;stroke: #231f20;stroke-miterlimit: 10"/>
      <path d="M493.67,227.15h-0.09l0.11,0.11Z" transform="translate(-228.29 -155.16)" style="fill: none;stroke: #231f20;stroke-miterlimit: 10"/>
      <path d="M575,301.4l-3.91-2.67,0.49-.91L575,298l0.51-1.41L570,294l0.72,10.49Z" transform="translate(-228.29 -155.16)" style="fill: none;stroke: #231f20;stroke-miterlimit: 10"/>
      <path d="M498.06,307.11c0.25,1.06,2,1.77,2.28,2l2.15-7.92c-1,.15-3.24-0.1-3.78.74A7.37,7.37,0,0,0,498.06,307.11Z" transform="translate(-228.29 -155.16)" style="fill: none;stroke: #231f20;stroke-miterlimit: 10"/>
      <path d="M426.05,199.91c-2.41.85-4.39,2.93-7.85,5.4,3.38,3.37,5.56,7.24,7.68,7.2,2.34,0,5.11-3.33,6.77-5.82C433.73,205.09,428.12,199.18,426.05,199.91Zm4.6,6.22c-2.11,1.59-3.43,2.92-5,3.52-0.39.15-2.61-2.41-2.36-3.23a6.76,6.76,0,0,1,3.38-3.67C427.19,202.5,428.8,204.51,430.66,206.13Z" transform="translate(-228.29 -155.16)" style="fill: none;stroke: #231f20;stroke-miterlimit: 10"/>
      <path d="M461.08,222.12l-11.49-15-6.11,15h17.61Z" transform="translate(-228.29 -155.16)" style="fill: none;stroke: #231f20;stroke-miterlimit: 10"/>
      <path d="M387,222.09h21.42l-6.25-14.4Z" transform="translate(-228.29 -155.16)" style="fill: none;stroke: #231f20;stroke-miterlimit: 10"/>
      <path d="M423.28,206.42c-0.25.82,2,3.37,2.36,3.23,1.59-.6,2.91-1.93,5-3.52-1.86-1.62-3.47-3.63-4-3.37A6.76,6.76,0,0,0,423.28,206.42Z" transform="translate(-228.29 -155.16)" style="fill: none;stroke: #231f20;stroke-miterlimit: 10"/>
    </g>
  </g>
</svg>
