<svg id="Layer_1" data-name="Layer 1" xmlns="http://www.w3.org/2000/svg" viewBox="0 0 263.57 52.39"><defs><style>.cls-1{fill:none;stroke:#231f20;stroke-miterlimit:10;stroke-width:0.5px;}</style></defs><title>name</title><path class="cls-1" d="M24.23,98.13H17.92l-1.1,3.57H11.89l7-19.11h4.33l7.06,19.11H25.35ZM19,94.58h4.11l-2.06-6.63Z" transform="translate(-11.53 -82.08)"/><path class="cls-1" d="M39,98.16h8v3.54H34.37V82.59H39V98.16Z" transform="translate(-11.53 -82.08)"/><path class="cls-1" d="M56.54,101.7H51.95V82.59h4.59V101.7Z" transform="translate(-11.53 -82.08)"/><path class="cls-1" d="M72.29,96.63A1.89,1.89,0,0,0,71.57,95a8.9,8.9,0,0,0-2.51-1.17,24,24,0,0,1-2.94-1.17q-3.71-1.82-3.71-5a4.5,4.5,0,0,1,.93-2.8A6,6,0,0,1,65.95,83a10.2,10.2,0,0,1,3.81-.68,8.92,8.92,0,0,1,3.69.73A5.85,5.85,0,0,1,76,85.16a5.47,5.47,0,0,1,.91,3.1H72.3a2.31,2.31,0,0,0-.72-1.81,2.79,2.79,0,0,0-1.94-.64,3.15,3.15,0,0,0-1.95.54,1.6,1.6,0,0,0,.07,2.72,9.94,9.94,0,0,0,2.77,1.23,17,17,0,0,1,3.25,1.37,5.47,5.47,0,0,1,3.1,4.92A4.67,4.67,0,0,1,75,100.54,8.41,8.41,0,0,1,69.82,102a10.28,10.28,0,0,1-4.21-.83,6.34,6.34,0,0,1-2.84-2.28,6,6,0,0,1-1-3.34h4.62a2.93,2.93,0,0,0,.79,2.26,3.75,3.75,0,0,0,2.58.73,3,3,0,0,0,1.8-.49A1.62,1.62,0,0,0,72.29,96.63Z" transform="translate(-11.53 -82.08)"/><path class="cls-1" d="M96.95,86.15H91.21V101.7H86.61V86.15H81V82.59h16v3.56Z" transform="translate(-11.53 -82.08)"/><path class="cls-1" d="M110.86,98.13h-6.31l-1.1,3.57H98.52l7-19.11h4.33l7.06,19.11H112Zm-5.21-3.56h4.11l-2.06-6.63Z" transform="translate(-11.53 -82.08)"/><path class="cls-1" d="M125.91,101.7h-4.59V82.59h4.59V101.7Z" transform="translate(-11.53 -82.08)"/><path class="cls-1" d="M138.9,94.94h-2.49v6.76H131.8V82.59h7.52a8.39,8.39,0,0,1,5.32,1.51,5.11,5.11,0,0,1,1.92,4.26,6.2,6.2,0,0,1-.81,3.3,5.73,5.73,0,0,1-2.53,2.12l4,7.72v0.2h-4.94Zm-2.49-3.54h2.91a2.62,2.62,0,0,0,2-.69,2.67,2.67,0,0,0,.66-1.93,2.7,2.7,0,0,0-.67-1.94,2.59,2.59,0,0,0-2-.7h-2.91V91.4Z" transform="translate(-11.53 -82.08)"/><path class="cls-1" d="M167.46,82.59l4.27,13.3L176,82.59H182V101.7h-4.62V97.24l0.45-9.14-4.62,13.6h-3l-4.63-13.61L166,97.24v4.46h-4.61V82.59h6.05Z" transform="translate(-11.53 -82.08)"/><path class="cls-1" d="M198.75,98.13h-6.31l-1.1,3.57h-4.92l7-19.11h4.33l7.06,19.11h-4.95Zm-5.21-3.56h4.11l-2.06-6.63Z" transform="translate(-11.53 -82.08)"/><path class="cls-1" d="M216,94.94H213.5v6.76h-4.61V82.59h7.52a8.39,8.39,0,0,1,5.32,1.51,5.11,5.11,0,0,1,1.92,4.26,6.2,6.2,0,0,1-.81,3.3,5.73,5.73,0,0,1-2.53,2.12l4,7.72v0.2h-4.94ZM213.5,91.4h2.91a2.62,2.62,0,0,0,2-.69,2.67,2.67,0,0,0,.66-1.93,2.7,2.7,0,0,0-.67-1.94,2.59,2.59,0,0,0-2-.7H213.5V91.4Z" transform="translate(-11.53 -82.08)"/><path class="cls-1" d="M243.46,86.15h-5.74V101.7h-4.61V86.15h-5.63V82.59h16v3.56Z" transform="translate(-11.53 -82.08)"/><path class="cls-1" d="M253,101.7h-4.59V82.59H253V101.7Z" transform="translate(-11.53 -82.08)"/><path class="cls-1" d="M274.85,101.7h-4.58L263.5,89.81V101.7h-4.61V82.59h4.61l6.76,11.89V82.59h4.59V101.7Z" transform="translate(-11.53 -82.08)"/><path class="cls-1" d="M88.8,134V114.85h5.29a7.82,7.82,0,0,1,4,1,7.42,7.42,0,0,1,2.82,2.95,9,9,0,0,1,1,4.25v2.48a9.13,9.13,0,0,1-1,4.31,7.43,7.43,0,0,1-2.8,3,7.76,7.76,0,0,1-4,1.09H88.8Zm0.71-18.4v17.69h4.58a7,7,0,0,0,3.66-1,6.84,6.84,0,0,0,2.58-2.73,8.27,8.27,0,0,0,.95-3.89V123.2a8.26,8.26,0,0,0-.91-3.89,6.83,6.83,0,0,0-2.55-2.74,7,7,0,0,0-3.62-1H89.51Z" transform="translate(-11.53 -82.08)"/><path class="cls-1" d="M119.36,124.49h-9.58v8.77H120.7V134H109.07V114.85H120.7v0.71H109.78v8.22h9.58v0.71Z" transform="translate(-11.53 -82.08)"/><path class="cls-1" d="M138.51,129.38a3.61,3.61,0,0,0-.57-2.07,4.84,4.84,0,0,0-1.8-1.5,19.37,19.37,0,0,0-3.71-1.33,17.44,17.44,0,0,1-3.72-1.38,4.92,4.92,0,0,1-1.82-1.61,4.11,4.11,0,0,1-.58-2.23,4,4,0,0,1,1.76-3.38,7.55,7.55,0,0,1,4.58-1.29,7.42,7.42,0,0,1,3.3.72,5.36,5.36,0,0,1,2.26,2,5.43,5.43,0,0,1,.8,2.92h-0.71a4.52,4.52,0,0,0-1.58-3.54,5.92,5.92,0,0,0-4.08-1.4,6.81,6.81,0,0,0-4.08,1.12,3.41,3.41,0,0,0-.2,5.58,12.77,12.77,0,0,0,4.46,1.86,13.76,13.76,0,0,1,4.55,1.87,4.27,4.27,0,0,1,1.84,3.62,4.2,4.2,0,0,1-.81,2.55,5.18,5.18,0,0,1-2.31,1.71,8.92,8.92,0,0,1-3.36.6,9.61,9.61,0,0,1-3.73-.69,5.3,5.3,0,0,1-2.49-2,5.36,5.36,0,0,1-.83-3h0.71a4.27,4.27,0,0,0,1.76,3.65,7.52,7.52,0,0,0,4.58,1.3,7,7,0,0,0,4.13-1.15A3.51,3.51,0,0,0,138.51,129.38Z" transform="translate(-11.53 -82.08)"/><path class="cls-1" d="M146.88,134h-0.71V114.85h0.71V134Z" transform="translate(-11.53 -82.08)"/><path class="cls-1" d="M168.81,131.92a5.23,5.23,0,0,1-2.53,1.65,11.65,11.65,0,0,1-4,.66,6.9,6.9,0,0,1-6.4-4,9.73,9.73,0,0,1-1-4.28V122.7a9.51,9.51,0,0,1,.91-4.21,6.78,6.78,0,0,1,2.55-2.88,6.86,6.86,0,0,1,3.69-1,7.12,7.12,0,0,1,4.64,1.46,5.75,5.75,0,0,1,2.08,4h-0.71a5.29,5.29,0,0,0-1.9-3.5,6.45,6.45,0,0,0-4.11-1.22,5.85,5.85,0,0,0-4.66,2.06,8,8,0,0,0-1.77,5.42v3a9.23,9.23,0,0,0,.83,4,6.21,6.21,0,0,0,5.82,3.69,10.85,10.85,0,0,0,3.56-.57,4.76,4.76,0,0,0,2.26-1.37V126h-5.84V125.3h6.55v6.62Z" transform="translate(-11.53 -82.08)"/><path class="cls-1" d="M190.26,134h-0.71l-12.34-17.9V134h-0.72V114.85h0.72l12.34,17.86V114.85h0.71V134Z" transform="translate(-11.53 -82.08)"/><path class="cls-1" d="M209.64,129.38a3.61,3.61,0,0,0-.57-2.07,4.84,4.84,0,0,0-1.8-1.5,19.37,19.37,0,0,0-3.71-1.33,17.44,17.44,0,0,1-3.72-1.38,4.92,4.92,0,0,1-1.82-1.61,4.11,4.11,0,0,1-.58-2.23,4,4,0,0,1,1.76-3.38,7.55,7.55,0,0,1,4.58-1.29,7.42,7.42,0,0,1,3.3.72,5.36,5.36,0,0,1,2.26,2,5.43,5.43,0,0,1,.8,2.92h-0.71a4.52,4.52,0,0,0-1.58-3.54,5.92,5.92,0,0,0-4.08-1.4,6.81,6.81,0,0,0-4.08,1.12,3.41,3.41,0,0,0-.2,5.58,12.77,12.77,0,0,0,4.46,1.86,13.76,13.76,0,0,1,4.55,1.87,4.27,4.27,0,0,1,1.84,3.62,4.2,4.2,0,0,1-.81,2.55,5.18,5.18,0,0,1-2.31,1.71,8.92,8.92,0,0,1-3.36.6,9.61,9.61,0,0,1-3.73-.69,5.3,5.3,0,0,1-2.49-2,5.36,5.36,0,0,1-.83-3h0.71a4.27,4.27,0,0,0,1.76,3.65,7.52,7.52,0,0,0,4.58,1.3,7,7,0,0,0,4.13-1.15A3.51,3.51,0,0,0,209.64,129.38Z" transform="translate(-11.53 -82.08)"/></svg>