<?xml version="1.0" encoding="utf-8"?>
<!-- Generator: Adobe Illustrator 19.2.1, SVG Export Plug-In . SVG Version: 6.00 Build 0)  -->
<svg version="1.1" id="Layer_1" xmlns="http://www.w3.org/2000/svg" xmlns:xlink="http://www.w3.org/1999/xlink" x="0px" y="0px"
	 viewBox="0 0 841.9 595.3" style="enable-background:new 0 0 841.9 595.3;" xml:space="preserve">
<g>
	<path style="fill:none;stroke:#000000;stroke-miterlimit:10;" d="M324.5,299.1c0,1.6,1.6,2.9,3.6,2.9h60.6l14.3,11.5l14.3-11.5
		h56.9c2,0,3.6-1.3,3.6-2.9h-62.1l-12.8,10.3l-12.8-10.3H324.5"/>
	<g>
		<polyline style="fill:none;stroke:#000000;stroke-miterlimit:10;" points="367.3,295.1 371,295.1 404.9,238.8 437.6,295.1 
			441.2,295.1 404.9,228.8 367.3,295.1 		"/>
		<polyline style="fill:none;stroke:#000000;stroke-miterlimit:10;" points="361.1,306 331.4,358.2 332.9,358.2 364.4,306 
			361.1,306 		"/>
		<polyline style="fill:none;stroke:#000000;stroke-miterlimit:10;" points="443.9,306 474.3,358.2 475.7,358.2 447.2,306 
			443.9,306 		"/>
	</g>
</g>
</svg>
