<svg id="ca3920df-b1fa-4153-b684-9a2c0d52b5a4" data-name="Layer 1" xmlns="http://www.w3.org/2000/svg" width="841.89" height="595.28" viewBox="0 0 841.89 595.28">
  <title>namecopy4</title>
  <g>
    <path d="M388.81,302l14.3,11.51L417.4,302h56.94c2,0,3.63-1.31,3.63-2.92H415.9l-12.79,10.29-12.8-10.3H324.54c0,1.61,1.62,2.92,3.63,2.92h60.65Z" style="fill: none;stroke: #231f20;stroke-miterlimit: 10"/>
    <g>
      <polygon points="370.99 295.06 404.89 238.83 437.58 295.07 441.18 295.07 404.89 228.79 367.28 295.06 370.99 295.06" style="fill: none;stroke: #231f20;stroke-miterlimit: 10"/>
      <polygon points="361.08 305.98 331.44 358.2 332.93 358.2 364.41 305.98 361.08 305.98" style="fill: none;stroke: #231f20;stroke-miterlimit: 10"/>
      <polygon points="443.93 305.99 474.27 358.2 475.75 358.2 447.16 305.99 443.93 305.99" style="fill: none;stroke: #231f20;stroke-miterlimit: 10"/>
    </g>
  </g>
</svg>
