<svg id="a72e72fd-11a3-436e-aa32-35ab442ba62b" data-name="Layer 1" xmlns="http://www.w3.org/2000/svg" width="100%" height="100%" viewBox="0 0 263.57 52.41">
  <title>namecopy3</title>
  <path d="M11.69,0.51H7.36l-7,19.11H5.29L6.39,16H12.7l1.12,3.57h4.93Zm-4.22,12L9.52,5.87l2.06,6.63H7.47Z" transform="translate(0 0.01)" style="fill: none;stroke: #231f20;stroke-miterlimit: 10;stroke-width: 0.5px"/>
  <path d="M27.47,16.08h8v3.54H22.84V0.51h4.63V16.08Z" transform="translate(0 0.01)" style="fill: none;stroke: #231f20;stroke-miterlimit: 10;stroke-width: 0.5px"/>
  <path d="M45,19.62H40.42V0.51H45V19.62Z" transform="translate(0 0.01)" style="fill: none;stroke: #231f20;stroke-miterlimit: 10;stroke-width: 0.5px"/>
  <path d="M60.76,14.55A1.89,1.89,0,0,0,60,12.92a8.9,8.9,0,0,0-2.51-1.17,24,24,0,0,1-2.94-1.17q-3.71-1.82-3.71-5a4.5,4.5,0,0,1,.93-2.8A6,6,0,0,1,54.42.92,10.2,10.2,0,0,1,58.23.24,8.92,8.92,0,0,1,61.92,1a5.85,5.85,0,0,1,2.55,2.11,5.47,5.47,0,0,1,.91,3.1H60.77a2.31,2.31,0,0,0-.72-1.81,2.79,2.79,0,0,0-1.94-.64,3.15,3.15,0,0,0-1.95.54A1.6,1.6,0,0,0,56.23,7,9.94,9.94,0,0,0,59,8.22a17,17,0,0,1,3.25,1.37,5.47,5.47,0,0,1,3.1,4.92,4.67,4.67,0,0,1-1.88,3.95,8.41,8.41,0,0,1-5.18,1.46,10.28,10.28,0,0,1-4.21-.83,6.34,6.34,0,0,1-2.84-2.28,6,6,0,0,1-1-3.34h4.62a2.93,2.93,0,0,0,.79,2.26,3.75,3.75,0,0,0,2.58.73A3,3,0,0,0,60,16,1.62,1.62,0,0,0,60.76,14.55Z" transform="translate(0 0.01)" style="fill: none;stroke: #231f20;stroke-miterlimit: 10;stroke-width: 0.5px"/>
  <path d="M85.42,4.07H79.68V19.62h-4.6V4.07H69.47V0.51h16V4.07H85.42Z" transform="translate(0 0.01)" style="fill: none;stroke: #231f20;stroke-miterlimit: 10;stroke-width: 0.5px"/>
  <path d="M98.32,0.51H94L87,19.62h4.93L93,16h6.31l1.14,3.57h4.91Zm-4.2,12,2-6.63,2.06,6.63H94.12Z" transform="translate(0 0.01)" style="fill: none;stroke: #231f20;stroke-miterlimit: 10;stroke-width: 0.5px"/>
  <path d="M114.38,19.62h-4.59V0.51h4.59V19.62Z" transform="translate(0 0.01)" style="fill: none;stroke: #231f20;stroke-miterlimit: 10;stroke-width: 0.5px"/>
  <path d="M127.37,12.86h-2.49v6.76h-4.61V0.51h7.52A8.39,8.39,0,0,1,133.11,2,5.11,5.11,0,0,1,135,6.28a6.2,6.2,0,0,1-.81,3.3,5.73,5.73,0,0,1-2.53,2.12l4,7.72v0.2h-4.94Zm-2.49-3.54h2.91a2.62,2.62,0,0,0,2-.69,2.67,2.67,0,0,0,.66-1.93,2.7,2.7,0,0,0-.67-1.94,2.59,2.59,0,0,0-2-.7h-2.91V9.32h0Z" transform="translate(0 0.01)" style="fill: none;stroke: #231f20;stroke-miterlimit: 10;stroke-width: 0.5px"/>
  <path d="M155.93,0.51l4.27,13.3,4.27-13.3h6V19.62h-4.62V15.16L166.3,6l-4.62,13.6h-3L154.05,6l0.42,9.15v4.46h-4.61V0.51h6.07Z" transform="translate(0 0.01)" style="fill: none;stroke: #231f20;stroke-miterlimit: 10;stroke-width: 0.5px"/>
  <path d="M186.22,0.51h-4.33l-7,19.11h4.92l1.1-3.57h6.31l1.11,3.57h4.95Zm-4.21,12,2-6.63,2.06,6.63H182Z" transform="translate(0 0.01)" style="fill: none;stroke: #231f20;stroke-miterlimit: 10;stroke-width: 0.5px"/>
  <path d="M208.78,11.7a5.73,5.73,0,0,0,2.53-2.12,6.2,6.2,0,0,0,.81-3.3A5.11,5.11,0,0,0,210.2,2,8.39,8.39,0,0,0,204.88.51h-7.52V19.62H202V12.86h2.5l3.37,6.76h4.94v-0.2Zm-1.9-3.07a2.62,2.62,0,0,1-2,.69H202V4.06h2.9a2.59,2.59,0,0,1,2,.7,2.7,2.7,0,0,1,.67,1.94A2.67,2.67,0,0,1,206.88,8.63Z" transform="translate(0 0.01)" style="fill: none;stroke: #231f20;stroke-miterlimit: 10;stroke-width: 0.5px"/>
  <path d="M231.93,4.07h-5.74V19.62h-4.61V4.07h-5.63V0.51h16V4.07h0Z" transform="translate(0 0.01)" style="fill: none;stroke: #231f20;stroke-miterlimit: 10;stroke-width: 0.5px"/>
  <path d="M241.47,19.62h-4.59V0.51h4.59V19.62Z" transform="translate(0 0.01)" style="fill: none;stroke: #231f20;stroke-miterlimit: 10;stroke-width: 0.5px"/>
  <path d="M263.32,19.62h-4.58L252,7.73V19.62h-4.61V0.51H252l6.76,11.89V0.51h4.59V19.62Z" transform="translate(0 0.01)" style="fill: none;stroke: #231f20;stroke-miterlimit: 10;stroke-width: 0.5px"/>
  <path d="M77.27,51.92V32.77h5.29a7.82,7.82,0,0,1,4,1,7.42,7.42,0,0,1,2.82,2.95,9,9,0,0,1,1,4.25v2.48a9.13,9.13,0,0,1-1,4.31,7.43,7.43,0,0,1-2.8,3,7.76,7.76,0,0,1-4,1.09H77.27v0.07ZM78,33.52V51.21h4.58a7,7,0,0,0,3.66-1,6.84,6.84,0,0,0,2.58-2.73,8.27,8.27,0,0,0,.95-3.89V41.12a8.26,8.26,0,0,0-.91-3.89,6.83,6.83,0,0,0-2.55-2.74,7,7,0,0,0-3.62-1H78v0Z" transform="translate(0 0.01)" style="fill: none;stroke: #231f20;stroke-miterlimit: 10;stroke-width: 0.5px"/>
  <path d="M107.83,42.41H98.25v8.77h10.92v0.74H97.54V32.77h11.63v0.71H98.25V41.7h9.58v0.71Z" transform="translate(0 0.01)" style="fill: none;stroke: #231f20;stroke-miterlimit: 10;stroke-width: 0.5px"/>
  <path d="M127,47.3a3.61,3.61,0,0,0-.57-2.07,4.84,4.84,0,0,0-1.8-1.5,19.37,19.37,0,0,0-3.71-1.33A17.44,17.44,0,0,1,117.18,41a4.92,4.92,0,0,1-1.82-1.61,4.11,4.11,0,0,1-.58-2.23,4,4,0,0,1,1.76-3.38,7.55,7.55,0,0,1,4.58-1.29,7.42,7.42,0,0,1,3.3.72,5.36,5.36,0,0,1,2.26,2,5.43,5.43,0,0,1,.8,2.92h-0.71a4.52,4.52,0,0,0-1.58-3.54,5.92,5.92,0,0,0-4.08-1.4A6.81,6.81,0,0,0,117,34.33a3.41,3.41,0,0,0-.2,5.58,12.77,12.77,0,0,0,4.46,1.86,13.76,13.76,0,0,1,4.55,1.87,4.27,4.27,0,0,1,1.84,3.62,4.2,4.2,0,0,1-.81,2.55,5.18,5.18,0,0,1-2.31,1.71,8.92,8.92,0,0,1-3.36.6,9.61,9.61,0,0,1-3.73-.69,5.3,5.3,0,0,1-2.49-2,5.36,5.36,0,0,1-.83-3h0.71a4.27,4.27,0,0,0,1.76,3.65,7.52,7.52,0,0,0,4.58,1.3,7,7,0,0,0,4.13-1.15A3.51,3.51,0,0,0,127,47.3Z" transform="translate(0 0.01)" style="fill: none;stroke: #231f20;stroke-miterlimit: 10;stroke-width: 0.5px"/>
  <path d="M135.35,51.92h-0.71V32.77h0.71V51.92Z" transform="translate(0 0.01)" style="fill: none;stroke: #231f20;stroke-miterlimit: 10;stroke-width: 0.5px"/>
  <path d="M157.28,49.84a5.23,5.23,0,0,1-2.53,1.65,11.65,11.65,0,0,1-4,.66,6.9,6.9,0,0,1-6.4-4,9.73,9.73,0,0,1-1-4.28V40.62a9.51,9.51,0,0,1,.91-4.21,6.78,6.78,0,0,1,2.55-2.88,6.86,6.86,0,0,1,3.69-1A7.12,7.12,0,0,1,155.14,34a5.75,5.75,0,0,1,2.08,4h-0.71a5.29,5.29,0,0,0-1.9-3.5,6.45,6.45,0,0,0-4.11-1.22,5.85,5.85,0,0,0-4.66,2.06,8,8,0,0,0-1.77,5.42v3a9.23,9.23,0,0,0,.83,4,6.21,6.21,0,0,0,5.82,3.69,10.85,10.85,0,0,0,3.56-.57,4.76,4.76,0,0,0,2.26-1.37V43.92H150.7v-0.7h6.55v6.62h0Z" transform="translate(0 0.01)" style="fill: none;stroke: #231f20;stroke-miterlimit: 10;stroke-width: 0.5px"/>
  <path d="M178.73,51.92H178L165.68,34v17.9H165V32.77h0.72L178,50.63V32.77h0.71V51.92Z" transform="translate(0 0.01)" style="fill: none;stroke: #231f20;stroke-miterlimit: 10;stroke-width: 0.5px"/>
  <path d="M198.11,47.3a3.61,3.61,0,0,0-.57-2.07,4.84,4.84,0,0,0-1.8-1.5A19.37,19.37,0,0,0,192,42.4,17.44,17.44,0,0,1,188.31,41a4.92,4.92,0,0,1-1.82-1.61,4.11,4.11,0,0,1-.58-2.23,4,4,0,0,1,1.76-3.38,7.55,7.55,0,0,1,4.58-1.29,7.42,7.42,0,0,1,3.3.72,5.36,5.36,0,0,1,2.26,2,5.43,5.43,0,0,1,.8,2.92H197.9a4.52,4.52,0,0,0-1.58-3.54,5.92,5.92,0,0,0-4.08-1.4,6.81,6.81,0,0,0-4.08,1.12,3.41,3.41,0,0,0-.2,5.58,12.77,12.77,0,0,0,4.46,1.86A13.76,13.76,0,0,1,197,43.64a4.27,4.27,0,0,1,1.84,3.62,4.2,4.2,0,0,1-.81,2.55,5.18,5.18,0,0,1-2.31,1.71,8.92,8.92,0,0,1-3.36.6,9.61,9.61,0,0,1-3.73-.69,5.3,5.3,0,0,1-2.49-2,5.36,5.36,0,0,1-.83-3H186a4.27,4.27,0,0,0,1.76,3.65,7.52,7.52,0,0,0,4.58,1.3,7,7,0,0,0,4.13-1.15A3.51,3.51,0,0,0,198.11,47.3Z" transform="translate(0 0.01)" style="fill: none;stroke: #231f20;stroke-miterlimit: 10;stroke-width: 0.5px"/>
</svg>
