<?xml version="1.0" encoding="utf-8"?>
<!-- Generator: Adobe Illustrator 19.2.1, SVG Export Plug-In . SVG Version: 6.00 Build 0)  -->
<svg version="1.1" id="Layer_1" xmlns="http://www.w3.org/2000/svg" xmlns:xlink="http://www.w3.org/1999/xlink" x="0px" y="0px"
	 viewBox="0 0 263.6 52.4" style="enable-background:new 0 0 263.6 52.4;" xml:space="preserve">
<title>name</title>
<path style="fill:none;stroke:#231F20;stroke-width:0.5;stroke-miterlimit:10;" d="M11.7,0.5H7.4l-7,19.1h4.9L6.4,16h6.3l1.1,3.6
	h4.9L11.7,0.5z M7.5,12.5l2.1-6.6l2.1,6.6H7.5z"/>
<path style="fill:none;stroke:#231F20;stroke-width:0.5;stroke-miterlimit:10;" d="M27.5,16.1h8v3.5H22.8V0.5h4.6V16.1z"/>
<path style="fill:none;stroke:#231F20;stroke-width:0.5;stroke-miterlimit:10;" d="M45,19.6h-4.6V0.5H45V19.6z"/>
<path style="fill:none;stroke:#231F20;stroke-width:0.5;stroke-miterlimit:10;" d="M60.8,14.5c0-0.6-0.2-1.2-0.7-1.6
	c-0.8-0.5-1.6-0.9-2.5-1.2c-1-0.3-2-0.7-2.9-1.2c-2.5-1.2-3.7-2.9-3.7-5c0-1,0.3-2,0.9-2.8c0.7-0.8,1.6-1.5,2.6-1.9
	c1.2-0.5,2.5-0.7,3.8-0.7c1.3,0,2.5,0.2,3.7,0.7c1,0.4,1.9,1.2,2.6,2.1c0.6,0.9,0.9,2,0.9,3.1h-4.6c0-0.7-0.2-1.3-0.7-1.8
	c-0.5-0.5-1.2-0.7-1.9-0.6c-0.7,0-1.4,0.2-1.9,0.5c-0.7,0.5-0.9,1.5-0.5,2.2C55.8,6.7,56,6.9,56.2,7C57.1,7.5,58,8,59,8.2
	c1.1,0.3,2.2,0.8,3.2,1.4c1.9,0.9,3.1,2.8,3.1,4.9c0.1,1.5-0.6,3-1.9,3.9c-1.5,1-3.3,1.6-5.2,1.5c-1.4,0-2.9-0.3-4.2-0.8
	c-1.1-0.5-2.1-1.3-2.8-2.3c-0.7-1-1-2.2-1-3.3h4.6c-0.1,0.8,0.2,1.7,0.8,2.3c0.7,0.6,1.7,0.8,2.6,0.7c0.6,0,1.3-0.1,1.8-0.5
	C60.5,15.7,60.8,15.1,60.8,14.5z"/>
<path style="fill:none;stroke:#231F20;stroke-width:0.5;stroke-miterlimit:10;" d="M85.4,4.1h-5.7v15.5h-4.6V4.1h-5.6V0.5h16
	L85.4,4.1L85.4,4.1z"/>
<path style="fill:none;stroke:#231F20;stroke-width:0.5;stroke-miterlimit:10;" d="M98.3,0.5H94l-7,19.1h4.9L93,16h6.3l1.1,3.6h4.9
	L98.3,0.5z M94.1,12.5l2-6.6l2.1,6.6H94.1z"/>
<path style="fill:none;stroke:#231F20;stroke-width:0.5;stroke-miterlimit:10;" d="M114.4,19.6h-4.6V0.5h4.6V19.6z"/>
<path style="fill:none;stroke:#231F20;stroke-width:0.5;stroke-miterlimit:10;" d="M127.4,12.9h-2.5v6.8h-4.6V0.5h7.5
	c1.9-0.1,3.8,0.4,5.3,1.5c1.3,1,2,2.6,1.9,4.3c0,1.2-0.2,2.3-0.8,3.3c-0.6,0.9-1.5,1.7-2.5,2.1l4,7.7v0.2h-4.9L127.4,12.9z
	 M124.9,9.3h2.9c0.7,0.1,1.5-0.2,2-0.7c0.5-0.5,0.7-1.2,0.7-1.9c0-0.7-0.2-1.4-0.7-1.9c-0.5-0.5-1.3-0.8-2-0.7h-2.9L124.9,9.3
	L124.9,9.3z"/>
<path style="fill:none;stroke:#231F20;stroke-width:0.5;stroke-miterlimit:10;" d="M155.9,0.5l4.3,13.3l4.3-13.3h6v19.1h-4.6v-4.5
	l0.4-9.1l-4.6,13.6h-3L154.1,6l0.4,9.2v4.5h-4.6V0.5H155.9L155.9,0.5z"/>
<path style="fill:none;stroke:#231F20;stroke-width:0.5;stroke-miterlimit:10;" d="M186.2,0.5h-4.3l-7,19.1h4.9l1.1-3.6h6.3l1.1,3.6
	h4.9L186.2,0.5z M182,12.5l2-6.6l2.1,6.6H182z"/>
<path style="fill:none;stroke:#231F20;stroke-width:0.5;stroke-miterlimit:10;" d="M208.8,11.7c1-0.4,1.9-1.2,2.5-2.1
	c0.6-1,0.9-2.1,0.8-3.3c0.1-1.6-0.6-3.2-1.9-4.3c-1.6-1.1-3.4-1.6-5.3-1.5h-7.5v19.1h4.6v-6.8h2.5l3.4,6.8h4.9v-0.2L208.8,11.7z
	 M206.9,8.6c-0.5,0.5-1.3,0.8-2,0.7H202V4.1h2.9c0.7-0.1,1.5,0.2,2,0.7c0.5,0.5,0.7,1.2,0.7,1.9C207.6,7.4,207.3,8.1,206.9,8.6z"/>
<path style="fill:none;stroke:#231F20;stroke-width:0.5;stroke-miterlimit:10;" d="M231.9,4.1h-5.7v15.5h-4.6V4.1h-5.6V0.5h16
	L231.9,4.1L231.9,4.1z"/>
<path style="fill:none;stroke:#231F20;stroke-width:0.5;stroke-miterlimit:10;" d="M241.5,19.6h-4.6V0.5h4.6V19.6z"/>
<path style="fill:none;stroke:#231F20;stroke-width:0.5;stroke-miterlimit:10;" d="M263.3,19.6h-4.6L252,7.7v11.9h-4.6V0.5h4.6
	l6.8,11.9V0.5h4.6V19.6z"/>
<path style="fill:none;stroke:#231F20;stroke-width:0.5;stroke-miterlimit:10;" d="M77.3,51.9V32.8h5.3c1.4,0,2.8,0.3,4,1
	c1.2,0.7,2.2,1.7,2.8,2.9c0.7,1.3,1,2.8,1,4.2v2.5c0,1.5-0.3,3-1,4.3c-0.6,1.2-1.6,2.3-2.8,3c-1.2,0.7-2.6,1.1-4,1.1L77.3,51.9
	L77.3,51.9z M78,33.5v17.7h4.6c1.3,0,2.6-0.3,3.7-1c1.1-0.7,2-1.6,2.6-2.7c0.6-1.2,1-2.5,0.9-3.9v-2.5c0-1.4-0.3-2.7-0.9-3.9
	c-0.6-1.1-1.5-2.1-2.6-2.7c-1.1-0.7-2.3-1-3.6-1L78,33.5L78,33.5z"/>
<path style="fill:none;stroke:#231F20;stroke-width:0.5;stroke-miterlimit:10;" d="M107.8,42.4h-9.6v8.8h10.9v0.7H97.5V32.8h11.6
	v0.7H98.2v8.2h9.6V42.4z"/>
<path style="fill:none;stroke:#231F20;stroke-width:0.5;stroke-miterlimit:10;" d="M127,47.3c0-0.7-0.2-1.5-0.6-2.1
	c-0.5-0.6-1.1-1.2-1.8-1.5c-1.2-0.6-2.4-1-3.7-1.3c-1.3-0.3-2.5-0.8-3.7-1.4c-0.7-0.4-1.4-0.9-1.8-1.6c-0.4-0.7-0.6-1.4-0.6-2.2
	c0-1.4,0.6-2.6,1.8-3.4c1.3-0.9,3-1.4,4.6-1.3c1.1,0,2.3,0.2,3.3,0.7c0.9,0.4,1.7,1.1,2.3,2c0.5,0.9,0.8,1.9,0.8,2.9h-0.7
	c0-1.4-0.5-2.7-1.6-3.5c-1.1-1-2.6-1.5-4.1-1.4c-1.4-0.1-2.9,0.3-4.1,1.1c-1.6,1-2,3.1-1,4.7c0.2,0.3,0.5,0.6,0.8,0.9
	c1.4,0.9,2.9,1.5,4.5,1.9c1.6,0.3,3.2,1,4.6,1.9c1.2,0.8,1.9,2.2,1.8,3.6c0,0.9-0.3,1.8-0.8,2.6c-0.6,0.8-1.4,1.4-2.3,1.7
	c-1.1,0.4-2.2,0.6-3.4,0.6c-1.3,0-2.5-0.2-3.7-0.7c-1-0.4-1.9-1.1-2.5-2c-0.6-0.9-0.9-1.9-0.8-3h0.7c-0.1,1.4,0.6,2.8,1.8,3.6
	c1.3,0.9,3,1.4,4.6,1.3c1.5,0.1,2.9-0.3,4.1-1.1C126.3,49.6,127,48.5,127,47.3z"/>
<path style="fill:none;stroke:#231F20;stroke-width:0.5;stroke-miterlimit:10;" d="M135.4,51.9h-0.7V32.8h0.7V51.9z"/>
<path style="fill:none;stroke:#231F20;stroke-width:0.5;stroke-miterlimit:10;" d="M157.3,49.8c-0.7,0.8-1.5,1.4-2.5,1.6
	c-1.3,0.5-2.6,0.7-4,0.7c-2.7,0.1-5.2-1.5-6.4-4c-0.7-1.3-1-2.8-1-4.3v-3.2c0-1.5,0.3-2.9,0.9-4.2c0.6-1.2,1.4-2.2,2.6-2.9
	c1.1-0.7,2.4-1,3.7-1c1.7-0.1,3.3,0.4,4.6,1.5c1.2,1,2,2.4,2.1,4h-0.7c-0.2-1.4-0.8-2.6-1.9-3.5c-1.2-0.9-2.6-1.3-4.1-1.2
	c-1.8-0.1-3.5,0.7-4.7,2.1c-1.2,1.5-1.9,3.5-1.8,5.4v3c0,1.4,0.3,2.7,0.8,4c1,2.3,3.3,3.7,5.8,3.7c1.2,0,2.4-0.2,3.6-0.6
	c0.9-0.2,1.7-0.7,2.3-1.4v-5.6h-5.8v-0.7h6.6L157.3,49.8L157.3,49.8z"/>
<path style="fill:none;stroke:#231F20;stroke-width:0.5;stroke-miterlimit:10;" d="M178.7,51.9H178L165.7,34v17.9H165V32.8h0.7
	L178,50.6V32.8h0.7V51.9z"/>
<path style="fill:none;stroke:#231F20;stroke-width:0.5;stroke-miterlimit:10;" d="M198.1,47.3c0-0.7-0.2-1.5-0.6-2.1
	c-0.5-0.6-1.1-1.2-1.8-1.5c-1.2-0.6-2.4-1-3.7-1.3c-1.3-0.3-2.5-0.8-3.7-1.4c-0.7-0.4-1.4-0.9-1.8-1.6c-0.4-0.7-0.6-1.4-0.6-2.2
	c0-1.4,0.6-2.6,1.8-3.4c1.3-0.9,3-1.4,4.6-1.3c1.1,0,2.3,0.2,3.3,0.7c0.9,0.4,1.7,1.1,2.3,2c0.5,0.9,0.8,1.9,0.8,2.9h-0.7
	c0-1.4-0.5-2.7-1.6-3.5c-1.1-1-2.6-1.5-4.1-1.4c-1.4-0.1-2.9,0.3-4.1,1.1c-1.6,1-2,3.1-1,4.7c0.2,0.3,0.5,0.6,0.8,0.9
	c1.4,0.9,2.9,1.5,4.5,1.9c1.6,0.3,3.2,1,4.6,1.9c1.2,0.8,1.9,2.2,1.8,3.6c0,0.9-0.3,1.8-0.8,2.6c-0.6,0.8-1.4,1.4-2.3,1.7
	c-1.1,0.4-2.2,0.6-3.4,0.6c-1.3,0-2.5-0.2-3.7-0.7c-1-0.4-1.9-1.1-2.5-2c-0.6-0.9-0.9-1.9-0.8-3h0.7c-0.1,1.4,0.6,2.8,1.8,3.6
	c1.3,0.9,3,1.4,4.6,1.3c1.5,0.1,2.9-0.3,4.1-1.1C197.5,49.6,198.1,48.5,198.1,47.3z"/>
</svg>
