<?xml version="1.0" encoding="utf-8"?>
<!-- Generator: Adobe Illustrator 19.2.1, SVG Export Plug-In . SVG Version: 6.00 Build 0)  -->
<svg version="1.1" id="Layer_1" xmlns="http://www.w3.org/2000/svg" xmlns:xlink="http://www.w3.org/1999/xlink" x="0px" y="0px"
	 viewBox="0 0 841.9 595.3" style="enable-background:new 0 0 841.9 595.3;" xml:space="preserve">


		<path style="fill:none;stroke:#000000;stroke-width:0.25;stroke-miterlimit:10;" d="M783.2,44.9v504.3"/>


		<path style="fill:none;stroke:#000000;stroke-width:0.25;stroke-miterlimit:10;" d="M757.2,44.9v504.3"/>


		<path style="fill:none;stroke:#000000;stroke-width:0.25;stroke-miterlimit:10;" d="M731.2,44.9v504.3"/>


		<path style="fill:none;stroke:#000000;stroke-width:0.25;stroke-miterlimit:10;" d="M705.2,44.9v504.3"/>


		<path style="fill:none;stroke:#000000;stroke-width:0.25;stroke-miterlimit:10;" d="M679.2,44.9v504.3"/>


		<path style="fill:none;stroke:#000000;stroke-width:0.25;stroke-miterlimit:10;" d="M653.2,44.9v504.3"/>


		<path style="fill:none;stroke:#000000;stroke-width:0.25;stroke-miterlimit:10;" d="M627.2,44.9v504.3"/>


		<path style="fill:none;stroke:#000000;stroke-width:0.25;stroke-miterlimit:10;" d="M601.2,44.9v504.3"/>


		<path style="fill:none;stroke:#000000;stroke-width:0.25;stroke-miterlimit:10;" d="M575.2,44.9v504.3"/>


		<path style="fill:none;stroke:#000000;stroke-width:0.25;stroke-miterlimit:10;" d="M549.2,44.9v504.3"/>


		<path style="fill:none;stroke:#000000;stroke-width:0.25;stroke-miterlimit:10;" d="M523.2,44.9v504.3"/>


		<path style="fill:none;stroke:#000000;stroke-width:0.25;stroke-miterlimit:10;" d="M497.2,44.9v504.3"/>


		<path style="fill:none;stroke:#000000;stroke-width:0.25;stroke-miterlimit:10;" d="M471.2,44.9v504.3"/>


		<path style="fill:none;stroke:#000000;stroke-width:0.25;stroke-miterlimit:10;" d="M445.2,44.9v504.3"/>


		<path style="fill:none;stroke:#000000;stroke-width:0.25;stroke-miterlimit:10;" d="M419.2,44.9v504.3"/>


		<path style="fill:none;stroke:#000000;stroke-width:0.25;stroke-miterlimit:10;" d="M393.2,44.9v504.3"/>


		<path style="fill:none;stroke:#000000;stroke-width:0.25;stroke-miterlimit:10;" d="M367.2,44.9v504.3"/>


		<path style="fill:none;stroke:#000000;stroke-width:0.25;stroke-miterlimit:10;" d="M341.2,44.9v504.3"/>


		<path style="fill:none;stroke:#000000;stroke-width:0.25;stroke-miterlimit:10;" d="M315.2,44.9v504.3"/>


		<path style="fill:none;stroke:#000000;stroke-width:0.25;stroke-miterlimit:10;" d="M289.2,44.9v504.3"/>


		<path style="fill:none;stroke:#000000;stroke-width:0.25;stroke-miterlimit:10;" d="M263.2,44.9v504.3"/>


		<path style="fill:none;stroke:#000000;stroke-width:0.25;stroke-miterlimit:10;" d="M237.2,44.9v504.3"/>


		<path style="fill:none;stroke:#000000;stroke-width:0.25;stroke-miterlimit:10;" d="M211.2,44.9v504.3"/>


		<path style="fill:none;stroke:#000000;stroke-width:0.25;stroke-miterlimit:10;" d="M185.2,44.9v504.3"/>


		<path style="fill:none;stroke:#000000;stroke-width:0.25;stroke-miterlimit:10;" d="M159.2,44.9v504.3"/>


		<path style="fill:none;stroke:#000000;stroke-width:0.25;stroke-miterlimit:10;" d="M133.2,44.9v504.3"/>


		<path style="fill:none;stroke:#000000;stroke-width:0.25;stroke-miterlimit:10;" d="M107.2,44.9v504.3"/>


		<path style="fill:none;stroke:#000000;stroke-width:0.25;stroke-miterlimit:10;" d="M81.2,44.9v504.3"/>


		<path style="fill:none;stroke:#000000;stroke-width:0.25;stroke-miterlimit:10;" d="M55.2,44.9v504.3"/>


		<path style="fill:none;stroke:#000000;stroke-width:0.25;stroke-miterlimit:10;" d="M29.2,44.9v504.3"/>
	

</svg>
