<svg id="14d45a91-ac7b-498c-a43a-e47a1f421d4f" data-name="Photo" xmlns="http://www.w3.org/2000/svg" viewBox="0 0 841.89 595.28"><title>Vectorized Icons copy1</title><circle cx="468.19" cy="286.15" r="207.65" style="fill:none;stroke:#231f20;stroke-miterlimit:10;stroke-width:0.5px"/><circle cx="468.19" cy="286.15" r="57.73" style="fill:none;stroke:#231f20;stroke-miterlimit:10;stroke-width:2px"/><circle cx="467.83" cy="286.15" r="44.67" style="fill:none;stroke:#231f20;stroke-miterlimit:10"/><circle cx="468.19" cy="286.15" r="40.62" style="fill:none;stroke:#231f20;stroke-miterlimit:10;stroke-width:0.5px"/><line x1="426.55" y1="224.51" x2="516.21" y2="224.51" style="fill:none;stroke:#231f20;stroke-miterlimit:10"/><line x1="501.68" y1="239.12" x2="571.16" y2="239.12" style="fill:none;stroke:#231f20;stroke-miterlimit:10;stroke-width:0.5px"/><line x1="434.25" y1="239.44" x2="365.21" y2="239.44" style="fill:none;stroke:#231f20;stroke-miterlimit:10;stroke-width:0.5px"/><line x1="412.57" y1="239.44" x2="412.57" y2="268.21" style="fill:none;stroke:#231f20;stroke-miterlimit:10;stroke-width:0.5px"/><line x1="413.27" y1="303.99" x2="413.27" y2="347.68" style="fill:none;stroke:#231f20;stroke-miterlimit:10;stroke-width:0.5px"/><line x1="523.1" y1="303.99" x2="523.1" y2="347.68" style="fill:none;stroke:#231f20;stroke-miterlimit:10;stroke-width:0.5px"/><line x1="523.7" y1="268.21" x2="523.7" y2="239.44" style="fill:none;stroke:#231f20;stroke-miterlimit:10;stroke-width:0.5px"/><path d="M571.16,236.62a12,12,0,0,0-12-12H511.95a11.41,11.41,0,0,1-11.41-11.41,11.45,11.45,0,0,0-11.41-11.41H447.86a11.45,11.45,0,0,0-11.41,11.41A11.41,11.41,0,0,1,425,224.62H377.21a12,12,0,0,0-12,12V292.1l37.39,55.58H534.24l36.92-54.89V236.62Z" style="fill:none;stroke:#231f20;stroke-miterlimit:10;stroke-width:2px"/><path d="M534.24,347.68h24.92a12,12,0,0,0,12-12V292.79Z" style="fill:none;stroke:#231f20;stroke-miterlimit:10;stroke-width:2px"/><path d="M365.21,335.68a12,12,0,0,0,12,12h25.39L365.21,292.1v43.58Z" style="fill:none;stroke:#231f20;stroke-miterlimit:10;stroke-width:2px"/><rect x="386.63" y="202.44" width="9.01" height="29.1" rx="3.35" ry="3.35" transform="translate(608.13 -174.15) rotate(90)" style="fill:none;stroke:#231f20;stroke-miterlimit:10"/></svg>