<?xml version="1.0" encoding="utf-8"?>
<!-- Generator: Adobe Illustrator 19.2.1, SVG Export Plug-In . SVG Version: 6.00 Build 0)  -->
<svg version="1.1" xmlns="http://www.w3.org/2000/svg" xmlns:xlink="http://www.w3.org/1999/xlink" x="0px" y="0px"
	 viewBox="0 0 420 420" style="enable-background:new 0 0 420 420;" xml:space="preserve">
<g id="Layer_1" style="display:none;">
	<g style="display:inline;opacity:0.1;">
		<rect x="-495" y="-50.8" style="fill:none;stroke:#000000;stroke-miterlimit:10;" width="522.2" height="522.2"/>
		<line style="fill:none;stroke:#000000;stroke-miterlimit:10;" x1="-495" y1="384.4" x2="27.2" y2="384.4"/>
		<line style="fill:none;stroke:#000000;stroke-miterlimit:10;" x1="-495" y1="297.4" x2="27.2" y2="297.4"/>
		<line style="fill:none;stroke:#000000;stroke-miterlimit:10;" x1="-495" y1="210.3" x2="27.2" y2="210.3"/>
		<line style="fill:none;stroke:#000000;stroke-miterlimit:10;" x1="-495" y1="123.3" x2="27.2" y2="123.3"/>
		<line style="fill:none;stroke:#000000;stroke-miterlimit:10;" x1="-495" y1="36.3" x2="27.2" y2="36.3"/>
	</g>
	<g style="display:inline;opacity:0.1;">
		<rect x="400" y="-50.8" style="fill:none;stroke:#000000;stroke-miterlimit:10;" width="522.2" height="522.2"/>
		<line style="fill:none;stroke:#000000;stroke-miterlimit:10;" x1="400" y1="384.4" x2="922.3" y2="384.4"/>
		<line style="fill:none;stroke:#000000;stroke-miterlimit:10;" x1="400" y1="297.4" x2="922.3" y2="297.4"/>
		<line style="fill:none;stroke:#000000;stroke-miterlimit:10;" x1="400" y1="210.3" x2="922.3" y2="210.3"/>
		<line style="fill:none;stroke:#000000;stroke-miterlimit:10;" x1="400" y1="123.3" x2="922.3" y2="123.3"/>
		<line style="fill:none;stroke:#000000;stroke-miterlimit:10;" x1="400" y1="36.3" x2="922.3" y2="36.3"/>
	</g>
</g>
<g id="Design">
</g>
<g id="Code">
	<rect x="89.5" y="284" style="fill:none;stroke:#000000;stroke-width:2;stroke-miterlimit:10;" width="243.2" height="15"/>
	
		<ellipse transform="matrix(7.298410e-03 -1 1 7.298410e-03 -1.0954 419.5873)" style="fill:none;stroke:#000000;stroke-width:0.5;stroke-miterlimit:10;" cx="210.8" cy="210.3" rx="207.7" ry="207.7"/>
	<path style="fill:none;stroke:#000000;stroke-width:2;stroke-miterlimit:10;" d="M286.7,117.4H135.4c-6.6,0-12,5.4-12,12V248
		c0,6.6,5.4,12,12,12h44.4v18.3H242V260h44.7c6.6,0,12-5.4,12-12V129.4C298.7,122.8,293.3,117.4,286.7,117.4z"/>
	<line style="fill:none;stroke:#000000;stroke-width:2;stroke-miterlimit:10;" x1="179.9" y1="260" x2="242" y2="260"/>
	<polyline style="fill:none;stroke:#000000;stroke-width:0.5;stroke-miterlimit:10;" points="94.5,284 94.5,289.2 328.6,289.2 
		328.6,284 	"/>
	<rect x="136.6" y="145.2" style="fill:none;stroke:#000000;stroke-width:2;stroke-miterlimit:10;" width="112.5" height="3.3"/>
	<rect x="136.6" y="155" style="fill:none;stroke:#000000;stroke-width:2;stroke-miterlimit:10;" width="147.3" height="3.3"/>
	<rect x="136.6" y="164.9" style="fill:none;stroke:#000000;stroke-width:2;stroke-miterlimit:10;" width="51.5" height="3.3"/>
	<rect x="136.6" y="174.7" style="fill:none;stroke:#000000;stroke-width:2;stroke-miterlimit:10;" width="147.3" height="3.3"/>
	<rect x="136.6" y="197.6" style="fill:none;stroke:#000000;stroke-width:2;stroke-miterlimit:10;" width="147.3" height="3.3"/>
	<rect x="136.6" y="184.6" style="fill:none;stroke:#000000;stroke-width:2;stroke-miterlimit:10;" width="96.4" height="3.3"/>
	<rect x="136.6" y="208.8" style="fill:none;stroke:#000000;stroke-width:2;stroke-miterlimit:10;" width="51.5" height="3.3"/>
	<rect x="136.6" y="218.7" style="fill:none;stroke:#000000;stroke-width:2;stroke-miterlimit:10;" width="147.3" height="3.3"/>
	<rect x="136.6" y="228.5" style="fill:none;stroke:#000000;stroke-width:2;stroke-miterlimit:10;" width="96.4" height="3.3"/>
	<rect x="238.5" y="184.6" style="fill:none;stroke:#000000;stroke-width:0.5;stroke-miterlimit:10;" width="47.4" height="3.3"/>
	<rect x="193.6" y="208.8" style="fill:none;stroke:#000000;stroke-width:0.5;stroke-miterlimit:10;" width="90.5" height="3.3"/>
	<rect x="238.9" y="228.5" style="fill:none;stroke:#000000;stroke-width:0.5;stroke-miterlimit:10;" width="47" height="3.7"/>
	<rect x="253.2" y="145.2" style="fill:none;stroke:#000000;stroke-width:0.5;stroke-miterlimit:10;" width="32.6" height="3.3"/>
	<rect x="195.8" y="164.9" style="fill:none;stroke:#000000;stroke-width:0.5;stroke-miterlimit:10;" width="88.3" height="3.2"/>
</g>
<g id="Photo">
</g>
<g id="Layer_5" style="display:none;">
</g>
</svg>
