<?xml version="1.0" encoding="utf-8"?>
<!-- Generator: Adobe Illustrator 19.2.1, SVG Export Plug-In . SVG Version: 6.00 Build 0)  -->
<svg version="1.1" xmlns="http://www.w3.org/2000/svg" xmlns:xlink="http://www.w3.org/1999/xlink" x="0px" y="0px"
	 viewBox="0 0 420 420" style="enable-background:new 0 0 420 420;" xml:space="preserve">
<g id="Layer_1" style="display:none;">
	<g style="display:inline;opacity:0.1;">
		<rect x="-51.7" y="-50.8" style="fill:none;stroke:#000000;stroke-miterlimit:10;" width="522.2" height="522.2"/>
		<line style="fill:none;stroke:#000000;stroke-miterlimit:10;" x1="-51.7" y1="384.4" x2="470.5" y2="384.4"/>
		<line style="fill:none;stroke:#000000;stroke-miterlimit:10;" x1="-51.7" y1="297.4" x2="470.5" y2="297.4"/>
		<line style="fill:none;stroke:#000000;stroke-miterlimit:10;" x1="-51.7" y1="210.3" x2="470.5" y2="210.3"/>
		<line style="fill:none;stroke:#000000;stroke-miterlimit:10;" x1="-51.7" y1="123.3" x2="470.5" y2="123.3"/>
		<line style="fill:none;stroke:#000000;stroke-miterlimit:10;" x1="-51.7" y1="36.3" x2="470.5" y2="36.3"/>
		<line style="fill:none;stroke:#000000;stroke-miterlimit:10;" x1="383.5" y1="-50.8" x2="383.5" y2="471.5"/>
		<line style="fill:none;stroke:#000000;stroke-miterlimit:10;" x1="296.4" y1="-50.8" x2="296.4" y2="471.5"/>
		<line style="fill:none;stroke:#000000;stroke-miterlimit:10;" x1="209.4" y1="-50.8" x2="209.4" y2="471.5"/>
		<line style="fill:none;stroke:#000000;stroke-miterlimit:10;" x1="122.4" y1="-50.8" x2="122.4" y2="471.5"/>
		<line style="fill:none;stroke:#000000;stroke-miterlimit:10;" x1="35.3" y1="-50.8" x2="35.3" y2="471.5"/>
	</g>
	<g style="display:inline;opacity:0.14;">
		<g>
			<path style="fill:none;stroke:#000000;stroke-miterlimit:10;" d="M209.4,384.4c-96.2,0-174.1-77.9-174.1-174.1
				S113.2,36.3,209.4,36.3s174.1,77.9,174.1,174.1S305.6,384.4,209.4,384.4z"/>
			<path style="fill:none;stroke:#000000;stroke-miterlimit:10;" d="M354.5,210.3c0-80.2-64.9-145.1-145.1-145.1
				S64.3,130.2,64.3,210.3s64.9,145.1,145.1,145.1S354.5,290.5,354.5,210.3z"/>
			<path style="fill:none;stroke:#000000;stroke-miterlimit:10;" d="M209.4,326.4c-64.1,0-116-51.9-116-116s51.9-116,116-116
				s116,51.9,116,116S273.5,326.4,209.4,326.4z"/>
			<path style="fill:none;stroke:#000000;stroke-miterlimit:10;" d="M296.4,210.3c0-48.1-38.9-87-87-87s-87,38.9-87,87
				s38.9,87,87,87S296.4,258.5,296.4,210.3z"/>
			<path style="fill:none;stroke:#000000;stroke-miterlimit:10;" d="M209.4,268.4c-32.1,0-58-26-58-58s26-58,58-58s58,26,58,58
				S241.5,268.4,209.4,268.4z"/>
			<path style="fill:none;stroke:#000000;stroke-miterlimit:10;" d="M238.4,210.3c0-16-13-29-29-29s-29,13-29,29s13,29,29,29
				S238.4,226.4,238.4,210.3z"/>
		</g>
		<g>
			<line style="fill:none;stroke:#000000;stroke-miterlimit:10;" x1="209.4" y1="210.3" x2="209.4" y2="384.4"/>
			<line style="fill:none;stroke:#000000;stroke-miterlimit:10;" x1="209.4" y1="210.3" x2="375" y2="264.1"/>
			<line style="fill:none;stroke:#000000;stroke-miterlimit:10;" x1="209.4" y1="210.3" x2="311.7" y2="69.5"/>
			<line style="fill:none;stroke:#000000;stroke-miterlimit:10;" x1="209.4" y1="210.3" x2="107.1" y2="69.5"/>
			<line style="fill:none;stroke:#000000;stroke-miterlimit:10;" x1="209.4" y1="210.3" x2="43.8" y2="264.1"/>
		</g>
	</g>
	<g style="display:inline;opacity:0.14;">
		<g>
			<path style="fill:none;stroke:#000000;stroke-miterlimit:10;" d="M311.9,351.2c-77.9,56.5-186.6,39.2-243.1-38.6
				S29.5,126,107.4,69.5S294,30.2,350.5,108.1S389.7,294.7,311.9,351.2z"/>
			<path style="fill:none;stroke:#000000;stroke-miterlimit:10;" d="M327,125.1c-47.1-64.9-137.7-79.3-202.6-32.2
				S45.1,230.7,92.2,295.5s137.7,79.3,202.6,32.2S374.1,190,327,125.1z"/>
			<path style="fill:none;stroke:#000000;stroke-miterlimit:10;" d="M277.8,304.3c-51.9,37.7-124.4,26.2-162.1-25.8
				s-26.2-124.4,25.8-162.1s124.4-26.2,162.1,25.8S329.7,266.6,277.8,304.3z"/>
			<path style="fill:none;stroke:#000000;stroke-miterlimit:10;" d="M280.1,159.2c-28.3-38.9-82.6-47.6-121.6-19.3
				s-47.6,82.6-19.3,121.6c28.3,38.9,82.6,47.6,121.6,19.3S308.3,198.2,280.1,159.2z"/>
			<path style="fill:none;stroke:#000000;stroke-miterlimit:10;" d="M243.7,257.3c-26,18.8-62.2,13.1-81-12.9s-13.1-62.2,12.9-81
				s62.2-13.1,81,12.9S269.7,238.5,243.7,257.3z"/>
			<path style="fill:none;stroke:#000000;stroke-miterlimit:10;" d="M233.1,193.3c-9.4-13-27.5-15.9-40.5-6.4
				c-13,9.4-15.9,27.5-6.4,40.5c9.4,13,27.5,15.9,40.5,6.4C239.6,224.4,242.5,206.3,233.1,193.3z"/>
		</g>
		<g>
			<line style="fill:none;stroke:#000000;stroke-miterlimit:10;" x1="209.6" y1="210.3" x2="311.9" y2="351.2"/>
			<line style="fill:none;stroke:#000000;stroke-miterlimit:10;" x1="209.6" y1="210.3" x2="375.2" y2="156.6"/>
			<line style="fill:none;stroke:#000000;stroke-miterlimit:10;" x1="209.6" y1="210.3" x2="209.7" y2="36.3"/>
			<line style="fill:none;stroke:#000000;stroke-miterlimit:10;" x1="209.6" y1="210.3" x2="44.1" y2="156.5"/>
			<line style="fill:none;stroke:#000000;stroke-miterlimit:10;" x1="209.6" y1="210.3" x2="107.2" y2="351.1"/>
		</g>
	</g>
</g>
<g id="Design">
</g>
<g id="Code">
</g>
<g id="Photo">
	<circle style="fill:none;stroke:#000000;stroke-width:0.5;stroke-miterlimit:10;" cx="210.6" cy="210" r="207.7"/>
	<circle style="fill:none;stroke:#000000;stroke-width:2;stroke-miterlimit:10;" cx="210.6" cy="210" r="57.7"/>
	<circle style="fill:none;stroke:#000000;stroke-miterlimit:10;" cx="210.3" cy="210" r="44.7"/>
	<circle style="fill:none;stroke:#000000;stroke-width:0.5;stroke-miterlimit:10;" cx="210.6" cy="210" r="40.6"/>
	<line style="fill:none;stroke:#000000;stroke-miterlimit:10;" x1="169" y1="148.4" x2="258.6" y2="148.4"/>
	<line style="fill:none;stroke:#000000;stroke-width:0.5;stroke-miterlimit:10;" x1="244.1" y1="163" x2="313.6" y2="163"/>
	<line style="fill:none;stroke:#000000;stroke-width:0.5;stroke-miterlimit:10;" x1="176.7" y1="163.3" x2="107.6" y2="163.3"/>
	<line style="fill:none;stroke:#000000;stroke-width:0.5;stroke-miterlimit:10;" x1="155" y1="163.3" x2="155" y2="192.1"/>
	<line style="fill:none;stroke:#000000;stroke-width:0.5;stroke-miterlimit:10;" x1="155.7" y1="227.8" x2="155.7" y2="271.5"/>
	<line style="fill:none;stroke:#000000;stroke-width:0.5;stroke-miterlimit:10;" x1="265.5" y1="227.8" x2="265.5" y2="271.5"/>
	<line style="fill:none;stroke:#000000;stroke-width:0.5;stroke-miterlimit:10;" x1="266.1" y1="192.1" x2="266.1" y2="163.3"/>
	<path style="fill:none;stroke:#000000;stroke-width:2;stroke-miterlimit:10;" d="M313.6,160.5c0-6.6-5.4-12-12-12h-47.2
		c-6.3,0-11.4-5.1-11.4-11.4c0-6.3-5.1-11.4-11.4-11.4h-41.3c-6.3,0-11.4,5.1-11.4,11.4c0,6.3-5.1,11.4-11.4,11.4h-47.8
		c-6.6,0-12,5.4-12,12v55.5l37.4,55.6h131.6l36.9-54.9V160.5z"/>
	<path style="fill:none;stroke:#000000;stroke-width:2;stroke-miterlimit:10;" d="M276.7,271.5h24.9c6.6,0,12-5.4,12-12v-42.9
		L276.7,271.5z"/>
	<path style="fill:none;stroke:#000000;stroke-width:2;stroke-miterlimit:10;" d="M107.6,259.5c0,6.6,5.4,12,12,12H145l-37.4-55.6
		V259.5z"/>
	<path style="fill:none;stroke:#000000;stroke-miterlimit:10;" d="M148.1,142v-2.3c0-1.8-1.5-3.3-3.3-3.3h-22.4
		c-1.8,0-3.3,1.5-3.3,3.3v2.3c0,1.8,1.5,3.3,3.3,3.3h22.4C146.6,145.3,148.1,143.8,148.1,142z"/>
</g>
<g id="Layer_5" style="display:none;">
	
		<line style="display:inline;fill:none;stroke:#000000;stroke-width:0.5;stroke-miterlimit:10;" x1="257.5" y1="153.8" x2="257.5" y2="144.8"/>
	
		<line style="display:inline;fill:none;stroke:#000000;stroke-width:0.5;stroke-miterlimit:10;" x1="301.6" y1="198.5" x2="308.6" y2="198.5"/>
	
		<line style="display:inline;fill:none;stroke:#000000;stroke-width:0.5;stroke-miterlimit:10;" x1="299.4" y1="184.9" x2="305.3" y2="183"/>
	
		<line style="display:inline;fill:none;stroke:#000000;stroke-width:0.5;stroke-miterlimit:10;" x1="283.4" y1="162.5" x2="287.2" y2="157.3"/>
	
		<line style="display:inline;fill:none;stroke:#000000;stroke-width:0.5;stroke-miterlimit:10;" x1="299.4" y1="212.2" x2="306.5" y2="214.5"/>
	
		<line style="display:inline;fill:none;stroke:#000000;stroke-width:0.5;stroke-miterlimit:10;" x1="287.1" y1="239.3" x2="283.5" y2="234.4"/>
	
		<line style="display:inline;fill:none;stroke:#000000;stroke-width:0.5;stroke-miterlimit:10;" x1="256.9" y1="249.6" x2="256.9" y2="243.2"/>
	
		<line style="display:inline;fill:none;stroke:#000000;stroke-width:0.5;stroke-miterlimit:10;" x1="227.1" y1="240.2" x2="231" y2="234.9"/>
	
		<line style="display:inline;fill:none;stroke:#000000;stroke-width:0.5;stroke-miterlimit:10;" x1="208.3" y1="214.4" x2="214.4" y2="212.4"/>
	
		<line style="display:inline;fill:none;stroke:#000000;stroke-width:0.5;stroke-miterlimit:10;" x1="206.1" y1="198.5" x2="212.2" y2="198.5"/>
	
		<line style="display:inline;fill:none;stroke:#000000;stroke-width:0.5;stroke-miterlimit:10;" x1="208.5" y1="182.6" x2="214.5" y2="184.5"/>
	
		<line style="display:inline;fill:none;stroke:#000000;stroke-width:0.5;stroke-miterlimit:10;" x1="227.3" y1="157.3" x2="230.9" y2="162.2"/>
</g>
</svg>
